<svg width="30" height="26" viewBox="0 0 30 26" fill="none" xmlns="http://www.w3.org/2000/svg">
<path d="M23.89 11.8298C23.6779 11.739 23.466 11.6481 23.2539 11.5573L22.2846 11.2241C19.1953 10.3459 15.6519 10.5276 14.4707 10.6185V11.6481C14.4707 12.4053 13.9559 13.1322 13.2289 13.3441H13.1683C12.2597 13.5864 11.3208 13.1018 11.0179 12.2236C10.7453 11.4362 10.5939 10.6184 10.5637 9.80062L9.71564 10.1944C9.10997 10.4669 8.62533 10.9213 8.32236 11.4966L8.01941 12.0115C7.65604 12.6778 7.01996 13.132 6.2628 13.2835L5.05146 13.4956V21.4912L6.95955 21.5214L7.20187 20.3402C7.29271 19.886 7.56524 19.5224 7.95903 19.2499C8.35282 19.0076 8.80705 18.9168 9.26123 19.0076C9.65502 19.0984 9.98816 19.3106 10.2305 19.6437C10.6243 19.2197 11.23 19.0076 11.8357 19.1289C12.2899 19.2197 12.6535 19.4923 12.8958 19.886C12.9867 20.0071 13.0169 20.1284 13.0775 20.2798C13.4409 20.0981 13.8347 20.0375 14.2284 20.1284C14.8341 20.2798 15.2886 20.7038 15.4702 21.2793C15.8336 21.0976 16.2274 21.037 16.6212 21.1278C17.0754 21.2187 17.4389 21.4912 17.7115 21.885C17.9236 22.2181 18.0144 22.6119 17.984 23.0055L19.3166 23.4295C19.9528 23.5506 20.6189 23.1266 20.7703 22.4907C20.831 22.1575 20.7703 21.8546 20.6189 21.582C20.4372 21.3095 20.1949 21.1278 19.8919 21.0672L19.3771 20.9461C19.1348 20.8855 18.9833 20.6736 19.0439 20.4313C19.1046 20.189 19.3165 20.0375 19.5588 20.0981L20.0736 20.2192L20.4976 20.31C21.1639 20.4615 21.7998 20.0375 21.9513 19.3712V19.341C22.0724 18.7049 21.6484 18.069 21.0125 17.9176L20.0439 17.7054C19.8015 17.6448 19.6501 17.4329 19.7107 17.1906C19.7713 16.9483 19.9832 16.7968 20.2255 16.8574L21.7096 17.1906C22.3457 17.3421 23.0423 16.8877 23.1633 16.2518C23.2239 15.9186 23.1633 15.6157 23.0118 15.3431C22.8302 15.0706 22.5878 14.8889 22.2849 14.8283L20.7404 14.4647C20.6193 14.4345 20.5283 14.3739 20.4678 14.283C20.4072 14.1922 20.377 14.0709 20.4072 13.9499C20.4678 13.7076 20.6797 13.5561 20.922 13.6167L22.8301 14.0407C23.1935 14.1315 23.5571 14.0407 23.8598 13.8286C24.1324 13.6469 24.314 13.3744 24.3747 13.0714C24.4353 12.7685 24.3747 12.4658 24.193 12.1932C24.1323 12.0418 24.0113 11.9207 23.89 11.8299L23.89 11.8298Z" fill="#02B5A1"/>
<path d="M14.4407 7.25659L12.8355 7.65037C12.0177 7.86248 11.4727 8.55902 11.4422 9.3768V9.49786C11.4422 10.3156 11.5937 11.1637 11.8662 11.951C12.0177 12.4052 12.5325 12.6475 12.9867 12.5265C13.3501 12.4054 13.6229 12.0723 13.5924 11.6785V10.2248C13.5924 10.0733 13.6833 9.92183 13.8045 9.86141C13.8652 9.8312 13.9256 9.80078 13.9862 9.80078C14.2587 9.77057 20.1949 9.13448 24.3744 11.0728L25.7373 8.46818L18.3479 5.04577C17.2576 6.13608 15.925 6.89324 14.4409 7.25662L14.4407 7.25659Z" fill="#02B5A1"/>
<path d="M16.5304 22.0363C16.3183 21.9757 16.0762 22.0363 15.8943 22.1574C15.7126 22.2784 15.5611 22.4603 15.5309 22.6722L15.1676 24.2774C15.0767 24.7316 15.3492 25.186 15.8037 25.2768C16.2277 25.3677 16.7123 25.0647 16.8031 24.6407L17.1665 23.0355C17.2271 22.8234 17.1665 22.5813 17.0454 22.3994C16.9242 22.2179 16.7423 22.0969 16.5304 22.0363L16.5304 22.0363Z" fill="#02B5A1"/>
<path d="M14.1075 21.0672C13.8954 21.0065 13.6533 21.0672 13.4714 21.1882C13.2897 21.3093 13.1382 21.4912 13.108 21.7031L12.6538 23.7322C12.5932 23.9443 12.6538 24.1864 12.7749 24.3684C12.8959 24.55 13.0778 24.7015 13.2897 24.7317C13.7137 24.8226 14.1984 24.5196 14.2892 24.0956L14.7434 22.0664C14.8646 21.6122 14.5619 21.158 14.1075 21.0671L14.1075 21.0672Z" fill="#02B5A1"/>
<path d="M11.7149 20.0677C11.5028 20.0071 11.2607 20.0677 11.0788 20.1888C10.8971 20.3098 10.7456 20.4917 10.7154 20.7036L10.1704 23.1872C10.1097 23.3993 10.1704 23.6414 10.2914 23.8233C10.4125 24.005 10.5944 24.1565 10.8062 24.1867C11.2302 24.2775 11.7149 23.9746 11.8057 23.5506L12.3507 21.067C12.4114 20.8549 12.3507 20.6128 12.2297 20.4309C12.1084 20.2494 11.9268 20.1281 11.7149 20.0677Z" fill="#02B5A1"/>
<path d="M9.11027 19.9466C8.89816 19.8859 8.65606 19.9466 8.47414 20.0676C8.29246 20.1887 8.14098 20.3706 8.11077 20.5825L7.65656 22.6116C7.59593 22.8238 7.65657 23.0659 7.77762 23.2478C7.89867 23.4294 8.08057 23.5809 8.29246 23.6111C8.74667 23.702 9.2011 23.4294 9.29191 22.975L9.74612 20.9458C9.86738 20.522 9.56443 20.0679 9.11021 19.9465L9.11027 19.9466Z" fill="#02B5A1"/>
<path d="M3.44672 12.2841H1.02376C0.599762 12.2841 0.266602 12.6173 0.266602 13.0413V22.6723C0.266602 23.0963 0.599762 23.4295 1.02376 23.4295H3.44672C3.65883 23.4295 3.84051 23.3386 3.99177 23.2174C4.14324 23.0659 4.20387 22.8842 4.20387 22.7025V13.0715C4.20387 12.6173 3.87072 12.2841 3.44672 12.2841ZM2.26555 22.1575C1.81135 22.1575 1.47816 21.7941 1.47816 21.3701C1.47816 20.9159 1.84153 20.5827 2.26555 20.5827C2.71976 20.5827 3.05294 20.9461 3.05294 21.3701C3.05316 21.7939 2.68957 22.1575 2.26555 22.1575Z" fill="#02B5A1"/>
<path d="M28.645 4.53082L19.8922 0.472501C19.7105 0.381659 19.4984 0.381659 19.3167 0.442291C19.135 0.502924 18.9836 0.654399 18.8927 0.836079L17.8933 3.0167C17.7116 3.38007 17.8933 3.83448 18.2566 4.01614L27.0094 8.04423C27.3728 8.22591 27.8272 8.04423 28.0088 7.68086L29.0083 5.50024C29.1598 5.13645 29.0083 4.71247 28.6449 4.53075L28.645 4.53082ZM27.3425 6.10576C27.1609 6.49955 26.6762 6.68125 26.2824 6.49955C25.8886 6.31784 25.7069 5.83325 25.8886 5.43942C26.0703 5.04563 26.5549 4.86392 26.9488 5.04563C27.373 5.22732 27.5245 5.68175 27.3425 6.10576Z" fill="#02B5A1"/>
</svg>
