<svg width="29" height="30" viewBox="0 0 29 30" fill="none" xmlns="http://www.w3.org/2000/svg">
<path fill-rule="evenodd" clip-rule="evenodd" d="M25.3017 17.9239L28.6157 23.6642H21.9877L25.3017 17.9239ZM15.2194 9.39635C15.8578 9.54822 16.4678 9.80143 17.0271 10.1457L18.2016 9.62416L19.5859 11.0085L19.0644 12.1826C19.4087 12.7418 19.6619 13.3517 19.8137 13.9904L21.012 14.4515V16.4092L19.8135 16.8707C19.6617 17.5091 19.4084 18.1191 19.0642 18.6779L19.5857 19.8525L18.2014 21.2368L17.0273 20.7153C16.4685 21.0595 15.8582 21.3127 15.2194 21.4646L14.7583 22.6628L12.8007 22.6626L12.3392 21.4642C11.7004 21.3123 11.0908 21.0591 10.532 20.7148L9.35742 21.2363L7.97311 19.852L8.49462 18.6779C8.15037 18.1191 7.89717 17.5088 7.7453 16.8701L6.54708 16.409V14.4513L7.7453 13.9902C7.89718 13.3514 8.15038 12.7416 8.49462 12.1826L7.97311 11.008L9.35742 9.62373L10.532 10.1452C11.0908 9.80099 11.7009 9.54779 12.3396 9.39592L12.8011 8.19747H14.7588L15.2194 9.39635ZM13.7795 12.0163C11.8941 12.0163 10.3656 13.5447 10.3656 15.4302C10.3656 17.3156 11.8941 18.8441 13.7795 18.8441C15.665 18.8441 17.1935 17.3156 17.1935 15.4302C17.1935 13.5447 15.665 12.0163 13.7795 12.0163ZM18.9589 4.34153C18.7238 4.23161 18.6223 3.95155 18.7322 3.71616C18.8421 3.481 19.1222 3.37947 19.3575 3.48939C20.0496 3.81328 20.7043 4.19215 21.3303 4.63058C21.5432 4.77931 21.5952 5.07237 21.4465 5.28527C21.2978 5.4982 21.0047 5.55022 20.7918 5.40149C20.2154 4.99788 19.5962 4.63942 18.9589 4.34153ZM11.6285 28.6605C11.7772 28.8734 11.7252 29.1665 11.5122 29.3152C11.2993 29.4639 11.0063 29.4119 10.8575 29.199L9.86699 27.7846C9.6912 27.5331 9.80049 27.1863 10.0828 27.0766L11.6933 26.4536C11.9358 26.3598 12.2083 26.4804 12.3021 26.7229C12.3959 26.9654 12.2752 27.2379 12.0327 27.3317L11.6493 27.4798L11.653 27.4804C11.9966 27.5406 12.3472 27.5866 12.7038 27.6176C12.9635 27.6403 13.1559 27.8689 13.1336 28.1286C13.1114 28.3883 12.8823 28.5807 12.6226 28.5585C12.2421 28.5253 11.8645 28.4758 11.4909 28.4099L11.4476 28.4024L11.6285 28.6605ZM22.4362 6.78395C22.2529 6.59935 22.2535 6.30146 22.4381 6.1183C22.6227 5.93495 22.9206 5.93559 23.1038 6.12019C23.6417 6.65867 24.1313 7.24081 24.5688 7.86345C24.7186 8.07637 24.6674 8.37027 24.4545 8.52008C24.2416 8.66986 23.9477 8.61867 23.7979 8.40575C23.3928 7.82844 22.9351 7.28323 22.4362 6.78395ZM24.8737 10.2663C24.7637 10.0301 24.8661 9.74918 25.1023 9.63903C25.3385 9.52911 25.6194 9.63148 25.7296 9.86769C26.0497 10.5541 26.3136 11.2793 26.5095 12.0108C26.5768 12.2623 26.4271 12.5207 26.1755 12.5881C25.924 12.6554 25.6656 12.5056 25.5982 12.2541C25.4142 11.5682 25.1741 10.9101 24.8737 10.2663ZM25.9693 14.37C25.9479 14.1103 26.1413 13.8822 26.401 13.8608C26.6607 13.8394 26.8888 14.0328 26.9102 14.2926C26.9383 14.6206 26.9534 14.9542 26.9578 15.2833L27.1558 15.0337C27.3178 14.83 27.6142 14.7962 27.8181 14.9582C28.0218 15.1201 28.0556 15.4165 27.8936 15.6204L26.8198 16.9729C26.6221 17.2217 26.2427 17.2058 26.0639 16.9488L25.0226 15.6007C24.8638 15.3949 24.9017 15.0996 25.1075 14.9403C25.3133 14.7815 25.6091 14.8195 25.7679 15.0253L26.0144 15.3446C26.0125 15.0167 25.9972 14.6968 25.9693 14.37ZM20.7914 25.4586C21.0043 25.3099 21.2973 25.3619 21.4461 25.5748C21.5948 25.7877 21.5428 26.0808 21.3298 26.2295C20.7043 26.6677 20.0491 27.0468 19.3575 27.3707C19.1223 27.4806 18.842 27.3791 18.7321 27.1439C18.6222 26.9088 18.7237 26.6285 18.9589 26.5186C19.5957 26.2205 20.2153 25.8619 20.7913 25.4586L20.7914 25.4586ZM16.9407 27.253C17.1922 27.187 17.45 27.3369 17.5161 27.5889C17.5822 27.8404 17.4322 28.0982 17.1802 28.1643C16.4444 28.3605 15.6948 28.4926 14.936 28.5587C14.6763 28.5814 14.4477 28.3886 14.425 28.1289C14.4028 27.8692 14.5952 27.6405 14.8549 27.6179C15.5583 27.5566 16.2587 27.4347 16.9407 27.253ZM2.68516 20.5944C2.79508 20.8306 2.69271 21.1115 2.4565 21.2216C2.22029 21.3316 1.9394 21.2292 1.82925 20.993C1.67254 20.6575 1.52717 20.3053 1.39312 19.9376C1.2618 19.577 1.14684 19.2143 1.04909 18.8499C0.981748 18.5984 1.13153 18.3399 1.38306 18.2726C1.63458 18.2052 1.89303 18.355 1.96037 18.6066C2.05372 18.9544 2.15986 19.2911 2.27839 19.6168C2.39649 19.9409 2.53244 20.2669 2.68516 20.5944ZM1.58929 16.4903C1.61069 16.75 1.41728 16.978 1.15757 16.9994C0.897863 17.0208 0.669834 16.8274 0.648433 16.5677C0.583823 15.8146 0.583823 15.0455 0.648433 14.2924C0.669831 14.0327 0.897858 13.8395 1.15757 13.8607C1.41727 13.8821 1.61048 14.1101 1.58929 14.3698C1.52846 15.0787 1.52846 15.7812 1.58929 16.4903ZM1.95997 12.2538C1.89263 12.5053 1.63418 12.6547 1.38266 12.5878C1.13113 12.5204 0.981775 12.262 1.04869 12.0104C1.24483 11.279 1.50852 10.5535 1.82862 9.86715C1.93855 9.63094 2.21923 9.52857 2.45587 9.63849C2.69208 9.74842 2.79446 10.0291 2.68453 10.2657C2.38434 10.9098 2.14417 11.5678 1.95997 12.2538ZM3.76026 8.40541C3.61048 8.61834 3.31658 8.66953 3.10363 8.51974C2.89071 8.36996 2.83952 8.07606 2.9893 7.86311C3.4269 7.24026 3.91633 6.65834 4.45438 6.11985C4.63773 5.93525 4.93582 5.93462 5.12003 6.11797C5.30464 6.30131 5.30526 6.5994 5.12192 6.78362C4.62349 7.28289 4.16615 7.8281 3.76026 8.40541ZM6.76721 5.40179C6.55429 5.55053 6.26122 5.4985 6.11251 5.28557C5.96378 5.07265 6.0158 4.77959 6.22873 4.63088C6.51214 4.43222 6.79976 4.24678 7.09029 4.07516L6.73073 4.01474C6.47418 3.97174 6.30069 3.72903 6.34349 3.47245C6.38649 3.21589 6.6292 3.0424 6.88578 3.0852L8.58833 3.37281C8.88685 3.42252 9.0639 3.7416 8.94265 4.02288L8.25627 5.60734C8.15348 5.84565 7.87699 5.95537 7.63847 5.85257C7.40016 5.74978 7.29045 5.47329 7.39324 5.23477L7.53547 4.90647C7.26884 5.06464 7.01267 5.22998 6.76721 5.40179ZM10.9091 0.599976H16.6494V4.8457H10.9091V0.599976ZM5.66334 22.338C4.07824 22.338 2.79317 23.6231 2.79317 25.2081C2.79317 26.7932 4.07829 28.0783 5.66334 28.0783C7.24839 28.0783 8.53351 26.7932 8.53351 25.2081C8.53351 23.6228 7.24839 22.338 5.66334 22.338Z" fill="#02B5A1"/>
</svg>
