<svg width="30" height="30" viewBox="0 0 30 30" fill="none" xmlns="http://www.w3.org/2000/svg">
<path d="M16.4177 0.599976H0.224609V29.3997L29.0247 29.4V7.21183H16.4174L16.4177 0.599976ZM3.66297 28.8122V19.6728H8.01231V28.8122H3.66297ZM8.59998 28.8122V19.6728H13.0081V28.8122H8.59998ZM15.8294 28.8122H13.596V19.0853H3.07499V28.8122H0.812091V1.18815H15.8294L15.8294 28.8122ZM28.4367 7.80039V28.8122H16.4175V7.80039H28.4367Z" fill="#52525B"/>
<path d="M3.07543 7.59434H13.5964V3.65653H3.07543V7.59434ZM3.6631 4.2442H13.0084V7.00667H3.6631V4.2442Z" fill="#52525B"/>
<path d="M3.07543 13.9421H13.5964V10.0043H3.07543V13.9421ZM3.6631 10.5919H13.0084V13.3544H3.6631V10.5919Z" fill="#52525B"/>
<path d="M21.5601 10.0043H17.9747V13.5897H21.5601V10.0043ZM20.9724 13.0018H18.5627L18.5624 10.592H20.9722L20.9724 13.0018Z" fill="#52525B"/>
<path d="M26.8499 10.0043H23.2645V13.5897H26.8499V10.0043ZM26.2622 13.0018H23.8525L23.8522 10.592H26.262L26.2622 13.0018Z" fill="#52525B"/>
<path d="M21.5601 15.4705H17.9747V19.0558H21.5601V15.4705ZM20.9724 18.4679H18.5627V16.0581H20.9724V18.4679Z" fill="#52525B"/>
<path d="M26.8499 15.4705H23.2645V19.0558H26.8499V15.4705ZM26.2622 18.4679H23.8525V16.0581H26.2622V18.4679Z" fill="#52525B"/>
<path d="M21.5601 20.9655H17.9747V24.5509H21.5601V20.9655ZM20.9724 23.963H18.5627V21.5532H20.9724V23.963Z" fill="#52525B"/>
<path d="M26.8499 20.9655H23.2645V24.5509H26.8499V20.9655ZM26.2622 23.963H23.8525V21.5532H26.2622V23.963Z" fill="#52525B"/>
</svg>
