<svg width="205" height="60" viewBox="0 0 205 60" fill="none" xmlns="http://www.w3.org/2000/svg">
<path d="M69.1603 13.1707C70.7939 11.6392 73.3464 11.7414 74.8438 13.3749C74.8778 13.443 74.9459 13.477 74.9799 13.5451C75.3203 14.0216 75.5245 14.6001 75.5585 15.1787H73.7548C73.6867 14.8383 73.5165 14.498 73.3123 14.2258C72.5296 13.477 71.3044 13.477 70.5216 14.2258C70.4536 14.2938 70.3855 14.3619 70.3174 14.464C69.909 15.1446 69.7048 15.9274 69.7389 16.7442C69.6708 17.5269 69.875 18.3097 70.3174 18.9563C70.6578 19.4328 71.2363 19.705 71.8149 19.671C72.3594 19.705 72.9039 19.4668 73.2443 19.0584C73.4485 18.7521 73.6186 18.4118 73.6867 18.0374H75.4904C75.3543 18.9223 74.9459 19.7391 74.2993 20.3517C73.6186 20.9643 72.7338 21.2706 71.8489 21.2365C70.7599 21.3046 69.6708 20.8622 68.9221 20.0454C67.5267 17.9353 67.5948 15.1446 69.1603 13.1707ZM82.263 20.2155C80.9017 21.5428 78.6895 21.5428 77.3282 20.2155C76.2392 18.7862 76.2392 16.7782 77.3282 15.3488C78.6895 13.9875 80.9017 13.9875 82.263 15.3488C83.318 16.8122 83.318 18.7862 82.263 20.2155ZM80.9017 19.2966C81.4122 18.3778 81.4122 17.2206 80.9017 16.3018C80.3571 15.6892 79.4383 15.5871 78.8257 16.1316C78.7576 16.1997 78.7236 16.2337 78.6555 16.3018C78.111 17.2206 78.111 18.3778 78.6555 19.2966C79.2 19.9092 80.1189 20.0113 80.7315 19.4668C80.7996 19.3988 80.8676 19.3647 80.9017 19.2966ZM87.9465 14.3959V16.1316H87.47C86.9255 16.0635 86.381 16.3358 86.1087 16.8123C85.9726 17.1866 85.9045 17.561 85.9045 17.9694V21.0323H84.2029V14.5661H85.8024V15.6892C85.9726 15.3488 86.2108 15.0766 86.4831 14.8043C86.8234 14.5321 87.2658 14.3959 87.7083 14.3959H87.9465ZM94.3447 15.2467C94.9232 15.9274 95.1955 16.8123 95.1274 17.6971C95.1955 18.616 94.9232 19.5689 94.3447 20.3176C93.8682 20.8962 93.1195 21.2365 92.3708 21.2025C91.9283 21.2365 91.4519 21.0664 91.0775 20.8281C90.8733 20.658 90.6691 20.4538 90.533 20.2155V23.5848H88.8654V14.5661H90.4649V15.519C90.6351 15.2808 90.8052 15.0425 91.0435 14.8383C91.4178 14.532 91.8943 14.3959 92.3708 14.3959C93.1875 14.3959 93.9022 14.7022 94.3447 15.2467ZM93.0854 16.4379C92.8472 16.0635 92.4048 15.8253 91.9624 15.8593C91.3838 15.8253 90.8733 16.1997 90.7031 16.7442C90.567 17.1185 90.4989 17.5269 90.533 17.9353C90.4649 18.5139 90.7031 19.1265 91.1456 19.5349C91.3838 19.7051 91.6901 19.8071 91.9964 19.8071C92.4388 19.8412 92.8472 19.637 93.0854 19.2626C93.5279 18.3778 93.5279 17.3227 93.0854 16.4379ZM101.662 20.2155C100.3 21.5428 98.0883 21.5428 96.727 20.2155C95.6379 18.7862 95.6379 16.7782 96.727 15.3488C98.0883 13.9875 100.3 13.9875 101.662 15.3488C102.751 16.8122 102.751 18.7862 101.662 20.2155ZM100.334 19.2966C100.845 18.3778 100.845 17.2206 100.334 16.3018C99.7899 15.6892 98.871 15.5871 98.2585 16.1316C98.1904 16.1997 98.1564 16.2337 98.0883 16.3018C97.5778 17.2206 97.5778 18.3778 98.0883 19.2966C98.6328 19.9092 99.5517 20.0113 100.164 19.4668C100.232 19.3988 100.3 19.3647 100.334 19.2966ZM107.379 14.3959V16.1316H106.903C106.358 16.0635 105.814 16.3358 105.541 16.8123C105.405 17.1866 105.337 17.561 105.337 17.9694V21.0323H103.636V14.5661H105.235V15.6892C105.405 15.3488 105.644 15.0766 105.916 14.8043C106.256 14.5321 106.699 14.3959 107.141 14.3959H107.379ZM110.919 17.0845C111.157 17.0505 111.361 17.0165 111.599 16.9484C111.804 16.8803 111.974 16.6761 111.974 16.4719C112.008 16.2337 111.906 16.0295 111.701 15.9274C111.429 15.8253 111.157 15.7572 110.885 15.7572C110.578 15.7232 110.238 15.8253 110.034 16.0635C109.898 16.2337 109.83 16.4379 109.796 16.6421H108.162C108.162 16.1316 108.332 15.6551 108.638 15.2467C109.217 14.6341 110.068 14.2938 110.953 14.3959C111.599 14.3959 112.246 14.5321 112.825 14.8043C113.403 15.1106 113.709 15.7572 113.641 16.4039V19.3647C113.641 19.5689 113.641 19.8071 113.641 20.1134C113.641 20.2836 113.675 20.4197 113.743 20.5559C113.811 20.658 113.88 20.726 113.982 20.7601V20.9983H112.144C112.11 20.8962 112.042 20.7601 112.042 20.6239C112.042 20.5218 112.042 20.3857 112.042 20.2496C111.804 20.4878 111.531 20.726 111.225 20.8962C110.851 21.1004 110.408 21.2365 110 21.2025C109.455 21.2365 108.945 21.0323 108.536 20.692C108.128 20.3176 107.924 19.8071 107.958 19.2626C107.924 18.5479 108.264 17.9013 108.877 17.5269C109.353 17.2887 109.83 17.1526 110.374 17.1185L110.919 17.0845ZM111.94 17.8673C111.838 17.9353 111.735 18.0034 111.599 18.0374C111.463 18.0715 111.293 18.1395 111.157 18.1395L110.783 18.2076C110.51 18.2416 110.272 18.3097 110 18.4458C109.762 18.582 109.591 18.8542 109.625 19.1605C109.591 19.3988 109.693 19.637 109.864 19.7731C110.034 19.9092 110.238 19.9773 110.442 19.9773C110.817 19.9773 111.157 19.8752 111.463 19.671C111.804 19.3647 111.974 18.9563 111.94 18.4799V17.8673ZM114.424 15.7913V14.6001H115.309V12.7964H116.977V14.6001H117.998V15.7913H116.977V19.1946C116.943 19.3647 116.977 19.5349 117.079 19.671C117.283 19.7731 117.487 19.8071 117.691 19.7731H118.032V21.0323H117.249C116.67 21.1344 116.092 20.9643 115.615 20.6239C115.411 20.3857 115.309 20.0454 115.343 19.7391V15.7572L114.424 15.7913ZM120.822 13.7833H119.121V12.2178H120.822V13.7833ZM119.121 14.532H120.822V20.9983H119.121V14.532ZM127.799 20.2155C126.438 21.5428 124.226 21.5428 122.864 20.2155C121.775 18.7862 121.775 16.7782 122.864 15.3488C124.226 13.9875 126.438 13.9875 127.799 15.3488C128.888 16.8122 128.888 18.7862 127.799 20.2155ZM126.472 19.2966C126.982 18.3778 126.982 17.2206 126.472 16.3018C125.927 15.6892 125.008 15.5871 124.396 16.1316C124.328 16.1997 124.294 16.2337 124.226 16.3018C123.715 17.2206 123.715 18.3778 124.226 19.2966C124.77 19.9092 125.689 20.0113 126.302 19.4668C126.37 19.3988 126.404 19.3647 126.472 19.2966ZM135.014 14.9064C135.49 15.3488 135.695 15.9955 135.661 16.6421V21.0323H133.925V17.0845C133.925 16.8123 133.891 16.54 133.789 16.3018C133.619 15.9614 133.244 15.7572 132.87 15.7913C132.359 15.7572 131.883 16.0635 131.713 16.506C131.577 16.8463 131.543 17.1866 131.543 17.5269V21.0323H129.875V14.5661H131.509V15.519C131.679 15.2467 131.883 15.0085 132.121 14.8043C132.496 14.5321 132.972 14.3959 133.414 14.43C133.993 14.3959 134.572 14.5661 135.014 14.9064ZM71.6107 27.0221C71.917 27.1923 72.1892 27.4305 72.3594 27.7368V24.6739H74.0951V33.4203H72.4615V32.5354C72.2573 32.8758 71.9851 33.1821 71.6447 33.3863C71.3044 33.5564 70.896 33.6585 70.4876 33.6585C69.7389 33.6585 69.0582 33.3182 68.5818 32.7396C68.0372 32.059 67.765 31.2422 67.799 30.3914C67.7309 29.4725 68.0032 28.5536 68.5477 27.7708C69.0242 27.1582 69.8069 26.7839 70.5897 26.8179C70.93 26.7839 71.3044 26.852 71.6107 27.0221ZM72.0191 31.6506C72.2914 31.2422 72.4275 30.7657 72.3934 30.2552C72.4615 29.6427 72.2233 28.996 71.7809 28.5536C71.5426 28.3494 71.2363 28.2473 70.93 28.2473C70.4876 28.2133 70.0792 28.4515 69.841 28.8259C69.6028 29.2343 69.4666 29.7448 69.5006 30.2212C69.4666 30.7317 69.6028 31.2082 69.875 31.6506C70.1132 31.9909 70.4876 32.1951 70.896 32.1951C71.3384 32.1951 71.7468 31.9909 72.0191 31.6506ZM79.8466 27.0562C80.2891 27.2604 80.6975 27.6007 80.9697 28.0091C81.242 28.4175 81.4122 28.8599 81.4802 29.3364C81.5143 29.7448 81.5483 30.1872 81.5483 30.6296H76.8518C76.8177 31.1741 77.09 31.6846 77.5324 31.9909C77.8047 32.1611 78.145 32.2291 78.4513 32.2291C78.7916 32.2291 79.132 32.1271 79.4042 31.9229C79.5404 31.7867 79.6765 31.6506 79.7445 31.4804H81.4802C81.4122 31.9229 81.1739 32.3313 80.8676 32.6376C80.221 33.2842 79.3362 33.6245 78.4173 33.5905C77.6005 33.5905 76.7837 33.3182 76.1371 32.8077C75.4224 32.1611 75.048 31.2082 75.1161 30.2212C75.048 29.2683 75.3883 28.3494 76.0009 27.6347C76.6135 27.0221 77.4643 26.7158 78.3152 26.7499C78.8257 26.7499 79.3362 26.852 79.8126 27.0562M77.2601 28.5196C76.9879 28.7918 76.8518 29.1662 76.8177 29.5406H79.7105C79.7105 29.1662 79.5404 28.7918 79.2681 28.5196C78.9958 28.2813 78.6215 28.1452 78.2471 28.1792C77.8727 28.1452 77.4984 28.2813 77.2261 28.5536M83.6924 31.3103C83.6924 31.5485 83.7945 31.7527 83.9306 31.9569C84.2709 32.2292 84.6793 32.3313 85.0877 32.2972C85.36 32.2972 85.6322 32.2632 85.8705 32.1611C86.1087 32.059 86.2448 31.7527 86.1087 31.4804C86.0747 31.3783 86.0066 31.3103 85.9045 31.2762C85.3259 31.038 84.7474 30.8678 84.1348 30.7657C83.5562 30.6636 83.0457 30.4254 82.5693 30.0851C82.263 29.7788 82.0928 29.3704 82.1268 28.928C82.1268 28.3494 82.3991 27.7708 82.8415 27.3965C83.3861 26.92 84.1008 26.7158 84.8155 26.7499C85.4961 26.7158 86.1768 26.886 86.7894 27.2263C87.3339 27.6007 87.6742 28.2133 87.6742 28.8939H85.9726C85.9726 28.6897 85.9045 28.5196 85.8024 28.3834C85.5642 28.1452 85.2238 28.0091 84.8495 28.0431C84.5772 28.0091 84.305 28.0771 84.0667 28.2133C83.9306 28.3154 83.8285 28.4515 83.8285 28.6217C83.8285 28.7918 83.9306 28.962 84.0667 29.0301C84.6453 29.2343 85.2238 29.4044 85.8364 29.5065C86.381 29.6086 86.9255 29.8469 87.3339 30.2212C87.6742 30.5275 87.8444 30.9699 87.8444 31.4464C87.8784 32.059 87.6062 32.6376 87.1297 33.0119C86.4831 33.4543 85.7003 33.6926 84.9175 33.6245C84.1008 33.6926 83.318 33.4543 82.6714 32.9779C82.1949 32.5695 81.9227 31.9569 81.9567 31.3443L83.6924 31.3103ZM100.573 26.9541C100.879 27.0902 101.117 27.2944 101.321 27.5326C101.526 27.7708 101.628 28.0431 101.696 28.3494C101.73 28.6557 101.764 28.996 101.764 29.3023V33.3863H100.028V29.3023C100.028 29.0981 99.9941 28.8939 99.892 28.6897C99.7219 28.3834 99.4156 28.2133 99.0752 28.2473C98.6668 28.2133 98.2925 28.4515 98.0883 28.8259C97.9862 29.0641 97.9521 29.3023 97.9521 29.5746V33.4203H96.2505V29.5406C96.2505 29.2683 96.2165 28.962 96.1144 28.6897C95.9782 28.3834 95.6379 28.1792 95.2635 28.2133C94.8892 28.1792 94.5148 28.3494 94.2766 28.6897C94.1745 28.928 94.1405 29.2002 94.1405 29.4725V33.3522H92.4048V26.886H94.0384V27.8389C94.2085 27.5666 94.3787 27.3284 94.6169 27.1242C95.3657 26.6478 96.3186 26.6137 97.0673 27.0562C97.3055 27.2604 97.5097 27.5326 97.6459 27.8389C97.8501 27.4986 98.1223 27.1923 98.4626 26.9881C98.837 26.8179 99.2114 26.7158 99.6198 26.7158C100.062 26.7839 100.334 26.8179 100.573 26.9541ZM105.882 29.4385C106.12 29.4044 106.324 29.3704 106.562 29.2683C106.767 29.2002 106.903 28.996 106.937 28.7918C106.971 28.5536 106.869 28.3494 106.665 28.2473C106.392 28.1452 106.12 28.0771 105.848 28.0771C105.541 28.0431 105.201 28.1452 104.997 28.3834C104.861 28.5536 104.793 28.7578 104.759 28.962H103.125C103.125 28.4515 103.295 27.975 103.602 27.5667C104.18 26.92 105.065 26.6137 105.916 26.7158C106.562 26.7158 107.209 26.852 107.822 27.1242C108.4 27.4305 108.707 28.0771 108.638 28.7238V31.6846C108.638 31.8888 108.638 32.1271 108.638 32.4333C108.638 32.6035 108.673 32.7396 108.741 32.8758C108.809 32.9779 108.911 33.0459 109.013 33.08V33.3182H107.175C107.107 33.2161 107.073 33.08 107.073 32.9438C107.073 32.8077 107.073 32.6716 107.073 32.5695C106.835 32.8077 106.562 33.0459 106.256 33.2161C105.882 33.4203 105.439 33.5224 105.031 33.5224C104.486 33.5564 103.976 33.3522 103.568 33.0119C103.159 32.6376 102.955 32.1271 102.989 31.5825C102.955 30.8678 103.295 30.2212 103.908 29.8468C104.384 29.6086 104.895 29.4725 105.405 29.4385H105.882ZM106.903 30.2212C106.801 30.2893 106.699 30.3233 106.562 30.3914C106.426 30.4254 106.256 30.4935 106.12 30.4935L105.746 30.5615C105.473 30.5956 105.235 30.6636 104.963 30.7998C104.691 30.9359 104.555 31.2082 104.555 31.5145C104.521 31.7527 104.623 31.9909 104.793 32.1271C104.963 32.2632 105.167 32.3313 105.371 32.3313C105.746 32.3313 106.086 32.2292 106.392 32.025C106.733 31.7527 106.903 31.3103 106.869 30.8678L106.903 30.2212ZM113.131 26.0692H111.77L110.987 25.0482L110.204 26.0692H108.809L110.204 24.2995H111.701L113.131 26.0692ZM110.068 26.92H111.804V33.3863H110.068V26.92ZM112.79 28.1792V26.9881H113.675V25.1843H115.343V26.9881H116.364V28.1792H115.343V31.5825C115.309 31.7527 115.343 31.9229 115.445 32.059C115.649 32.1611 115.853 32.1951 116.058 32.1611H116.398V33.4203H115.615C115.037 33.5224 114.458 33.3522 113.982 33.0119C113.777 32.7737 113.675 32.4334 113.709 32.1271V28.1452L112.79 28.1792ZM121.231 26.7839V28.5196H120.754C120.21 28.4515 119.665 28.7238 119.393 29.2002C119.257 29.5746 119.189 29.9489 119.189 30.3573V33.4203H117.487V26.9541H119.087V28.0771C119.257 27.7368 119.495 27.4646 119.767 27.1923C120.108 26.92 120.55 26.7839 120.992 26.7839H121.231ZM126.438 27.0562C126.88 27.2604 127.289 27.6007 127.561 28.0091C127.833 28.4175 128.003 28.8599 128.071 29.3364C128.105 29.7448 128.139 30.1872 128.139 30.6296H123.443C123.409 31.1741 123.681 31.6846 124.123 31.9909C124.396 32.1611 124.736 32.2291 125.042 32.2291C125.383 32.2291 125.723 32.1271 125.995 31.9229C126.131 31.7867 126.268 31.6506 126.336 31.4804H128.105C128.037 31.9229 127.799 32.3313 127.493 32.6376C126.846 33.2842 125.961 33.6245 125.042 33.5905C124.226 33.5905 123.409 33.3182 122.762 32.8077C122.047 32.1611 121.673 31.2082 121.741 30.2212C121.673 29.2683 122.013 28.3494 122.626 27.6347C123.239 27.0221 124.089 26.7158 124.94 26.7499C125.417 26.7499 125.961 26.852 126.438 27.0562ZM123.885 28.5196C123.613 28.7918 123.477 29.1662 123.443 29.5406H126.336C126.336 29.1662 126.165 28.7918 125.893 28.5196C125.621 28.2813 125.247 28.1452 124.872 28.1792C124.498 28.1452 124.123 28.2813 123.851 28.5536M130.283 31.3103C130.283 31.5485 130.385 31.7527 130.522 31.9569C130.862 32.2292 131.27 32.3313 131.679 32.2972C131.951 32.2972 132.223 32.2632 132.462 32.1611C132.7 32.059 132.836 31.7527 132.7 31.4804C132.666 31.3783 132.598 31.3103 132.496 31.2762C131.917 31.038 131.338 30.8678 130.726 30.7657C130.147 30.6636 129.637 30.4254 129.16 30.0851C128.854 29.7788 128.684 29.3704 128.718 28.928C128.718 28.3494 128.99 27.7708 129.433 27.3965C129.977 26.92 130.692 26.7158 131.406 26.7499C132.087 26.7158 132.768 26.886 133.38 27.2263C133.925 27.6007 134.265 28.2133 134.265 28.8939H132.564C132.564 28.6897 132.496 28.5196 132.393 28.3834C132.155 28.1452 131.815 28.0091 131.441 28.0431C131.168 28.0091 130.896 28.0771 130.658 28.2133C130.522 28.3154 130.42 28.4515 130.42 28.6217C130.42 28.7918 130.522 28.962 130.658 29.0301C131.236 29.2343 131.815 29.4044 132.427 29.5065C132.972 29.6086 133.517 29.8469 133.925 30.2212C134.265 30.5275 134.435 30.9699 134.435 31.4464C134.469 32.059 134.197 32.6376 133.721 33.0119C133.074 33.4543 132.291 33.6926 131.509 33.6245C130.692 33.6926 129.909 33.4543 129.262 32.9779C128.786 32.5695 128.514 31.9569 128.548 31.3443L130.283 31.3103ZM143.318 27.0562C143.76 27.2604 144.169 27.6007 144.441 28.0091C144.713 28.4175 144.884 28.8599 144.952 29.3364C144.986 29.7448 145.02 30.1872 145.02 30.6296H140.357C140.323 31.1741 140.595 31.6846 141.038 31.9909C141.31 32.1611 141.65 32.2291 141.957 32.2291C142.501 32.2632 143.012 31.9909 143.25 31.4804H144.986C144.918 31.9229 144.679 32.3313 144.373 32.6376C143.726 33.2842 142.842 33.6245 141.923 33.5905C141.106 33.5905 140.289 33.3182 139.642 32.8077C138.928 32.1611 138.553 31.2082 138.621 30.2212C138.553 29.2683 138.894 28.3494 139.506 27.6347C140.119 27.0221 140.97 26.6818 141.821 26.7499C142.331 26.7499 142.842 26.852 143.318 27.0562ZM140.8 28.5196C140.527 28.7918 140.391 29.1662 140.357 29.5406H143.25C143.25 29.1662 143.08 28.7918 142.808 28.5196C142.535 28.2813 142.161 28.1452 141.787 28.1792C141.412 28.1452 141.038 28.2813 140.766 28.5536M143.76 24.2995L141.957 26.0692H140.732L141.889 24.2995H143.76ZM145.905 24.6398H147.606V33.3863H145.905V24.6398ZM153.46 27.0562C153.902 27.2604 154.311 27.6007 154.583 28.0091C154.855 28.4175 155.025 28.8599 155.093 29.3364C155.127 29.7448 155.161 30.1872 155.161 30.6296H150.431C150.397 31.1741 150.669 31.6846 151.112 31.9909C151.384 32.1611 151.724 32.2291 152.03 32.2291C152.575 32.2632 153.085 31.9569 153.324 31.4804H155.059C154.991 31.9229 154.753 32.3313 154.447 32.6376C153.8 33.2842 152.915 33.6245 151.996 33.5905C151.18 33.5905 150.363 33.3182 149.716 32.8077C149.001 32.1611 148.627 31.2082 148.695 30.2212C148.627 29.2683 148.967 28.3494 149.58 27.6347C150.193 27.0221 151.043 26.7158 151.894 26.7499C152.405 26.7499 152.915 26.852 153.392 27.0562M150.873 28.5196C150.601 28.7918 150.465 29.1662 150.431 29.5406H153.324C153.324 29.1662 153.154 28.7918 152.881 28.5196C152.609 28.2813 152.235 28.1452 151.86 28.1792C151.486 28.1452 151.112 28.2813 150.839 28.5536M159.892 29.2343C159.858 28.996 159.79 28.7918 159.654 28.5876C159.45 28.3154 159.109 28.1792 158.769 28.2133C158.224 28.1792 157.748 28.5196 157.578 29.0641C157.442 29.4385 157.408 29.8469 157.408 30.2552C157.408 30.6296 157.442 31.038 157.578 31.4124C157.714 31.9229 158.19 32.2632 158.701 32.2291C159.007 32.2632 159.347 32.1611 159.552 31.9229C159.722 31.6846 159.824 31.3783 159.858 31.1061H161.594C161.56 31.6506 161.355 32.1611 161.015 32.5695C160.471 33.3182 159.586 33.7266 158.667 33.6585C157.782 33.7266 156.965 33.3863 156.387 32.7396C155.876 32.059 155.604 31.2082 155.638 30.3233C155.57 29.4044 155.876 28.4515 156.455 27.7368C157.033 27.0902 157.85 26.7499 158.701 26.8179C159.416 26.7839 160.096 26.9881 160.709 27.3625C161.287 27.8389 161.628 28.5536 161.628 29.3023L159.892 29.2343ZM162.104 28.1792V26.9881H162.989V25.1843H164.657V26.9881H165.678V28.1792H164.657V31.5825C164.657 31.8548 164.657 32.025 164.759 32.059C164.963 32.1611 165.167 32.1951 165.371 32.1611H165.712V33.4203H164.929C164.35 33.5224 163.772 33.3522 163.295 33.0119C163.091 32.7737 162.989 32.4334 163.023 32.1271V28.1452L162.104 28.1792ZM170.408 26.7839H170.544V28.5196H170.034C169.489 28.4515 168.945 28.7238 168.673 29.2002C168.536 29.5746 168.468 29.9489 168.468 30.3573V33.4203H166.767V26.9541H168.366V28.0771C168.536 27.7368 168.775 27.4646 169.047 27.1923C169.387 26.92 169.83 26.7839 170.272 26.7839H170.34M173.267 26.1373H171.531V24.5718H173.267V26.1373ZM171.565 26.92H173.301V33.3863H171.565V26.92ZM178.78 29.2343C178.746 28.996 178.678 28.7918 178.542 28.5876C178.338 28.3154 177.998 28.1792 177.657 28.2133C177.113 28.1792 176.636 28.5196 176.466 29.0641C176.33 29.4385 176.296 29.8469 176.296 30.2552C176.296 30.6296 176.33 31.038 176.466 31.4124C176.602 31.9229 177.079 32.2632 177.623 32.2291C177.929 32.2632 178.27 32.1611 178.474 31.9229C178.644 31.6846 178.746 31.3783 178.78 31.1061H180.516C180.482 31.6506 180.278 32.1271 179.937 32.5695C179.393 33.3182 178.508 33.7266 177.589 33.6585C176.704 33.7266 175.853 33.3863 175.275 32.7396C174.764 32.059 174.492 31.2082 174.526 30.3233C174.458 29.4044 174.764 28.4855 175.343 27.7368C175.922 27.0902 176.738 26.7499 177.589 26.8179C178.304 26.7839 178.984 26.9881 179.597 27.3625C180.176 27.8389 180.516 28.5536 180.516 29.3023L178.78 29.2343ZM183.409 26.1373H181.673V24.5718H183.409V26.1373ZM181.707 26.92H183.443V33.3863H181.707V26.92ZM189.262 27.0562C189.705 27.2604 190.113 27.6007 190.385 28.0091C190.658 28.4175 190.828 28.8599 190.896 29.3364C190.93 29.7448 190.964 30.1872 190.964 30.6296H186.268C186.233 31.1741 186.506 31.6846 186.948 31.9909C187.22 32.1611 187.561 32.2291 187.867 32.2291C188.412 32.2632 188.922 31.9909 189.16 31.4804H190.896C190.828 31.9229 190.59 32.3313 190.283 32.6376C189.637 33.2842 188.752 33.6245 187.833 33.5905C187.016 33.5905 186.199 33.3182 185.553 32.8077C184.838 32.1611 184.464 31.2082 184.532 30.2212C184.464 29.2683 184.804 28.3494 185.417 27.6347C186.029 27.0221 186.88 26.7158 187.731 26.7499C188.241 26.7499 188.752 26.852 189.262 27.0562ZM186.71 28.5196C186.438 28.7918 186.302 29.1662 186.268 29.5406H189.16C189.16 29.1662 188.99 28.7918 188.718 28.5196C188.446 28.2813 188.071 28.1452 187.697 28.1792C187.323 28.1452 186.948 28.2813 186.676 28.5536M197.022 27.2944C197.498 27.7368 197.737 28.3834 197.669 29.0301V33.3863H195.933V29.4385C195.933 29.1662 195.899 28.8939 195.797 28.6557C195.627 28.3154 195.252 28.1112 194.844 28.1452C194.333 28.1112 193.857 28.3834 193.653 28.8599C193.517 29.2002 193.482 29.5406 193.482 29.8809V33.3863H191.781V26.92H193.414V27.8729C193.585 27.6007 193.789 27.3624 194.027 27.1583C194.401 26.886 194.878 26.7499 195.354 26.7839C196.001 26.7499 196.579 26.92 197.022 27.2944ZM200.561 31.3103C200.561 31.5485 200.663 31.7867 200.8 31.9569C201.14 32.2292 201.548 32.3313 201.957 32.2972C202.229 32.2972 202.501 32.2632 202.739 32.1611C202.978 32.059 203.114 31.7527 202.978 31.4804C202.944 31.3783 202.876 31.3103 202.773 31.2762C202.195 31.038 201.616 30.8678 201.004 30.7657C200.459 30.6636 199.915 30.4254 199.472 30.0851C199.166 29.7788 198.996 29.3704 199.03 28.928C199.03 28.3494 199.268 27.8049 199.676 27.3965C200.221 26.92 200.936 26.7158 201.65 26.7499C202.331 26.7158 203.012 26.886 203.624 27.2263C204.169 27.6007 204.509 28.2133 204.509 28.8939H202.807C202.807 28.6897 202.739 28.5196 202.637 28.3834C202.399 28.1452 202.059 28.0091 201.684 28.0431C201.412 28.0091 201.14 28.0771 200.902 28.2133C200.766 28.3154 200.663 28.4515 200.663 28.6217C200.663 28.7918 200.766 28.962 200.902 29.0301C201.48 29.2343 202.059 29.4044 202.671 29.5065C203.216 29.6086 203.76 29.8469 204.169 30.2212C204.509 30.5275 204.679 30.9699 204.679 31.4464C204.713 32.059 204.441 32.6376 203.965 33.0119C202.603 33.8627 200.868 33.8627 199.506 33.0119C199.03 32.6035 198.758 31.9909 198.792 31.3783L200.561 31.3103ZM71.6107 39.4101C71.917 39.5803 72.1892 39.8185 72.3594 40.1248V37.0618H74.0951V45.8083H72.4615V44.9234C72.2573 45.2638 71.9851 45.5701 71.6447 45.7743C71.3044 45.9444 70.896 46.0465 70.4876 46.0465C69.7389 46.0465 69.0582 45.7062 68.5818 45.1276C68.0372 44.447 67.765 43.6302 67.799 42.7794C67.7309 41.8605 68.0032 40.9416 68.5477 40.1588C69.0242 39.5462 69.8069 39.1719 70.5897 39.2059C70.93 39.1719 71.3044 39.274 71.6107 39.4101ZM72.0191 44.0386C72.2914 43.6302 72.4275 43.1537 72.3934 42.6432C72.4615 42.0306 72.2233 41.384 71.7809 40.9416C71.5426 40.7374 71.2363 40.6353 70.93 40.6353C70.4876 40.6012 70.0792 40.8395 69.841 41.2138C69.6028 41.6222 69.4666 42.1327 69.5006 42.6092C69.4666 43.1197 69.6028 43.5961 69.875 44.0386C70.1132 44.3789 70.4876 44.5831 70.896 44.5831C71.3384 44.6171 71.7468 44.4129 72.0191 44.0386ZM77.2942 39.308V43.2218C77.2942 43.494 77.3282 43.8003 77.4303 44.0386C77.6005 44.3789 77.9408 44.5831 78.3152 44.515C78.8257 44.5491 79.3021 44.2768 79.5063 43.8344C79.6425 43.494 79.6765 43.1537 79.6765 42.8134V39.308H81.4122V45.8423H79.7786V44.9234L79.6424 45.0936C79.5744 45.1957 79.5063 45.2978 79.4042 45.3659C79.166 45.57 78.9278 45.7402 78.6215 45.8423C78.3492 45.9444 78.0429 45.9784 77.7366 45.9784C76.9539 46.0805 76.1711 45.6721 75.7967 44.9575C75.5925 44.4129 75.4904 43.8684 75.5245 43.2898V39.3761L77.2942 39.308ZM94.3106 43.2218C94.1745 43.6982 93.9363 44.1066 93.63 44.481L94.651 45.4339L93.698 46.4549L92.677 45.4339C92.4048 45.6041 92.1325 45.7402 91.8603 45.8423C91.4178 45.9784 90.9414 46.0465 90.4649 46.0465C89.4439 46.0805 88.4229 45.7062 87.6402 45.0255C85.8024 42.9495 85.8024 39.8525 87.6402 37.7765C88.4229 37.0959 89.4439 36.7215 90.4649 36.7555C91.5199 36.7215 92.5409 37.0959 93.3237 37.7765C94.2426 38.6614 94.719 39.9206 94.651 41.2138C94.651 41.8605 94.5829 42.5411 94.3787 43.1537M91.0094 44.3108C91.1456 44.2768 91.2817 44.2087 91.4178 44.1407L90.533 43.2898L91.4859 42.2689L92.3708 43.1197C92.677 42.5411 92.8132 41.8945 92.7792 41.2479C92.8132 40.4311 92.609 39.6483 92.1666 38.9677C91.7582 38.4231 91.0775 38.1168 90.3969 38.1849C89.7162 38.1509 89.1036 38.4572 88.6612 38.9677C88.1847 39.6483 87.9465 40.4651 88.0145 41.2819C87.9125 42.2348 88.2528 43.1877 88.9334 43.8684C89.3418 44.2087 89.8523 44.3789 90.3628 44.3789C90.601 44.3789 90.8052 44.3449 91.0094 44.3108ZM97.5438 39.308V43.2218C97.5438 43.494 97.5778 43.8003 97.6799 44.0386C97.8501 44.3789 98.1904 44.5831 98.5647 44.515C99.0752 44.5491 99.5517 44.2768 99.7559 43.8344C99.892 43.494 99.9261 43.1537 99.9261 42.8134V39.308H101.662V45.8423H100.028V44.9234L99.892 45.0936C99.824 45.1957 99.7559 45.2978 99.6538 45.3659C99.4496 45.57 99.1773 45.7402 98.871 45.8423C98.5988 45.9444 98.2925 45.9784 97.9862 45.9784C97.2034 46.0805 96.4207 45.6721 96.0463 44.9575C95.8421 44.4129 95.74 43.8684 95.774 43.2898V39.3761L97.5438 39.308ZM107.515 39.4441C107.958 39.6483 108.366 39.9887 108.638 40.397C108.911 40.8054 109.081 41.2479 109.149 41.7243C109.183 42.1327 109.217 42.5752 109.217 43.0176H104.589C104.555 43.5621 104.827 44.0726 105.269 44.3789C105.541 44.5491 105.882 44.6171 106.188 44.6171C106.733 44.6512 107.243 44.3789 107.481 43.8684H109.217C109.149 44.3108 108.911 44.7192 108.604 45.0255C107.958 45.6721 107.073 46.0125 106.154 45.9784C105.337 45.9784 104.521 45.7062 103.874 45.1957C103.159 44.5491 102.785 43.5961 102.853 42.6092C102.785 41.6563 103.125 40.7374 103.738 40.0227C104.35 39.4101 105.201 39.0698 106.052 39.1378C106.528 39.1038 107.039 39.2059 107.515 39.4441ZM104.997 40.8735C104.725 41.1458 104.589 41.5201 104.555 41.8945H107.447C107.447 41.5201 107.277 41.1458 107.005 40.8735C106.733 40.6353 106.358 40.4991 105.984 40.5332C105.61 40.4991 105.235 40.6353 104.963 40.9075M107.958 36.6534L106.154 38.4231H104.929L106.086 36.6534H107.958ZM115.581 40.0908C116.092 40.7714 116.33 41.6222 116.296 42.4731C116.33 43.3579 116.092 44.2428 115.581 44.9575C114.798 45.9444 113.403 46.2507 112.28 45.6381C112.042 45.4679 111.804 45.2297 111.633 44.9575V45.7743H109.966V37.0278H111.667V40.0908C111.872 39.8185 112.11 39.5803 112.382 39.4101C112.722 39.2059 113.131 39.1038 113.539 39.1038C114.322 39.0698 115.105 39.4101 115.581 40.0227M114.186 43.9705C114.458 43.5621 114.56 43.0856 114.56 42.5751C114.56 42.2008 114.526 41.7924 114.39 41.4521C114.22 40.9075 113.709 40.5672 113.131 40.6012C112.552 40.5672 112.042 40.9075 111.872 41.4521C111.735 41.8264 111.667 42.2008 111.701 42.6092C111.667 43.0856 111.804 43.5621 112.076 43.9705C112.314 44.3449 112.756 44.5491 113.199 44.515C113.573 44.515 113.982 44.3108 114.186 43.9705ZM121.673 39.4441C122.116 39.6483 122.524 39.9887 122.796 40.397C123.068 40.8054 123.239 41.2479 123.307 41.7243C123.341 42.1327 123.375 42.5752 123.375 43.0176H118.678C118.644 43.5621 118.916 44.0726 119.359 44.3789C119.631 44.5491 119.971 44.6171 120.278 44.6171C120.618 44.6171 120.958 44.515 121.231 44.3108C121.367 44.1747 121.503 44.0386 121.571 43.8684H123.307C123.239 44.3108 123 44.7192 122.694 45.0255C122.047 45.6721 121.163 46.0125 120.244 45.9784C119.427 45.9784 118.61 45.7062 117.963 45.1957C117.249 44.5491 116.874 43.5961 116.943 42.6092C116.874 41.6563 117.215 40.7374 117.827 40.0227C118.44 39.4101 119.291 39.0698 120.142 39.1378C120.652 39.1378 121.197 39.2399 121.673 39.4441ZM119.121 40.8735C118.848 41.1458 118.712 41.5201 118.678 41.8945H121.571C121.571 41.5201 121.401 41.1458 121.129 40.8735C120.856 40.6353 120.482 40.4991 120.108 40.5332C119.733 40.4991 119.359 40.6353 119.087 40.9075M128.071 41.6222C128.037 41.384 127.969 41.1798 127.833 40.9756C127.629 40.7033 127.289 40.5672 126.948 40.6012C126.404 40.5672 125.927 40.9075 125.757 41.4521C125.621 41.8264 125.587 42.2348 125.587 42.6432C125.587 43.0176 125.621 43.426 125.757 43.8003C125.893 44.3108 126.37 44.6512 126.88 44.6171C127.186 44.6512 127.527 44.5491 127.731 44.3108C127.901 44.0726 128.003 43.7663 128.037 43.494H129.773C129.739 44.0386 129.535 44.515 129.228 44.9575C128.684 45.7062 127.799 46.1146 126.88 46.0805C125.995 46.1486 125.178 45.8083 124.6 45.1617C124.089 44.481 123.817 43.6302 123.851 42.7453C123.783 41.8264 124.089 40.8735 124.668 40.1588C125.247 39.5122 126.063 39.1719 126.914 39.2399C127.629 39.2059 128.309 39.4101 128.922 39.7845C129.501 40.2609 129.841 40.9756 129.841 41.7243H128.071V41.6222ZM49.183 38.2189C44.5886 48.633 32.4048 53.3636 21.9907 48.7691C11.5767 44.1747 6.84608 31.9909 11.4405 21.5769C16.035 11.1628 28.2187 6.43222 38.6328 11.0267C45.8818 14.2258 50.6464 21.2706 50.9187 29.2002H36.4887L45.031 22.3596L12.6657 32.9098H24.305L20.0168 36.8576H59.6992C60.2097 34.6115 60.4819 32.2972 60.4819 29.983C60.4819 13.409 47.0389 0 30.4649 0C13.8909 0 0.481934 13.443 0.481934 30.017C0.481934 46.591 13.9249 60 30.4989 60C43.9079 60 55.6833 51.0834 59.3588 38.1849L49.183 38.2189Z" fill="#A1A1AA"/>
</svg>
