<svg width="21" height="30" viewBox="0 0 21 30" fill="none" xmlns="http://www.w3.org/2000/svg">
<path d="M20.4265 0.599976H0.325196L0.325195 29.4L20.4267 29.4L20.4265 0.599976ZM5.99726 28.8123V18.9084H10.0819V28.8123H5.99726ZM10.6699 28.8123V18.9084H14.7841V28.8123H10.6699ZM15.3717 28.8123V18.3208H5.40927V28.8123H0.912806L0.913052 1.18815H19.8392V28.8129L15.3717 28.8123Z" fill="#52525B"/>
<path d="M2.26479 6.12518H6.05576V2.33421H2.26479V6.12518ZM2.85247 2.92214H5.46783V5.53751H2.85247V2.92214Z" fill="#52525B"/>
<path d="M8.49479 6.12518H12.2858V2.33421H8.49479V6.12518ZM9.08271 2.92214H11.6981V5.53751H9.08271V2.92214Z" fill="#52525B"/>
<path d="M14.6958 6.12518H18.4868V2.33421H14.6958V6.12518ZM15.2835 2.92214H17.8989V5.53751H15.2835V2.92214Z" fill="#52525B"/>
<path d="M2.26479 11.4736H6.05576V7.68234H2.26479V11.4736ZM2.85247 8.27027H5.46783L5.46808 10.8859H2.85271L2.85247 8.27027Z" fill="#52525B"/>
<path d="M8.49479 11.4736H12.2858V7.68234H8.49479V11.4736ZM9.08271 8.27027H11.6981V10.8859H9.08271V8.27027Z" fill="#52525B"/>
<path d="M14.6958 11.4736H18.4868V7.68234H14.6958V11.4736ZM15.2835 8.27027H17.8989L17.8991 10.8859H15.2838L15.2835 8.27027Z" fill="#52525B"/>
<path d="M2.26479 16.8219H6.05576V13.031H2.26479V16.8219ZM2.85247 13.6186H5.46783V16.2343H2.85247V13.6186Z" fill="#52525B"/>
<path d="M8.49479 16.8219H12.2858V13.031H8.49479V16.8219ZM9.08271 13.6186H11.6981V16.2343H9.08271V13.6186Z" fill="#52525B"/>
<path d="M14.6958 16.8219H18.4868V13.031H14.6958V16.8219ZM15.2835 13.6186H17.8989V16.2343H15.2835V13.6186Z" fill="#52525B"/>
</svg>
