<svg width="30" height="30" viewBox="0 0 30 30" fill="none" xmlns="http://www.w3.org/2000/svg">
<path d="M22.2221 0.599976H7.52772V8.15625L0.474609 10.8597V29.4H29.2746L29.2749 10.8597L22.2217 8.15625L22.2221 0.599976ZM7.52772 28.8124H1.06279V11.264L7.52835 8.78587L7.52772 28.8124ZM9.9965 28.8124V18.4387H14.5808V28.8124H9.9965ZM15.1688 28.8124V18.4387H19.7238V28.8124H15.1688ZM21.6337 28.8124H20.3112V17.8505H9.40851V28.8124H8.11533V1.18815H21.634L21.6337 28.8124ZM28.6868 11.264V28.8124H22.2219V8.786L28.6868 11.264Z" fill="#52525B"/>
<path d="M9.40877 5.65479H20.3115V2.86302L9.40877 2.86277V5.65479ZM9.99645 3.45069H19.7234V5.06711L9.99645 5.06687V3.45069Z" fill="#52525B"/>
<path d="M9.40877 9.26951H20.3115V6.47774H9.40877V9.26951ZM9.99645 7.06541H19.7234V8.68184H9.99645V7.06541Z" fill="#52525B"/>
<path d="M9.40877 12.8546H20.3115V10.0629H9.40877V12.8546ZM9.99645 10.6505H19.7234V12.267H9.99645V10.6505Z" fill="#52525B"/>
<path d="M9.40877 16.4694H20.3115V13.6776H9.40877V16.4694ZM9.99645 14.2653H19.7234V15.8817H9.99645V14.2653Z" fill="#52525B"/>
<path d="M27.3356 12.5316H23.6034V16.0877H27.3356V12.5316ZM26.748 15.5H24.1911V13.1195H26.748V15.5Z" fill="#52525B"/>
<path d="M27.3356 18.0569H23.6034V21.6128H27.3356V18.0569ZM26.748 21.0251H24.1911V18.6449H26.748V21.0251Z" fill="#52525B"/>
<path d="M27.3356 23.5817H23.6034V27.1375H27.3356V23.5817ZM26.748 26.5498H24.1911V24.1696H26.748V26.5498Z" fill="#52525B"/>
<path d="M6.1763 12.5316H2.44407V16.0877H6.1763V12.5316ZM5.58862 15.5H3.03174V13.1195H5.58862V15.5Z" fill="#52525B"/>
<path d="M6.1763 18.0569H2.44407V21.6128H6.1763V18.0569ZM5.58862 21.0251H3.03174V18.6449H5.58862V21.0251Z" fill="#52525B"/>
<path d="M6.1763 23.5817H2.44407V27.1375H6.1763V23.5817ZM5.58862 26.5498H3.03174V24.1696H5.58862V26.5498Z" fill="#52525B"/>
</svg>
