<svg width="30" height="30" viewBox="0 0 30 30" fill="none" xmlns="http://www.w3.org/2000/svg">
<path d="M27.7279 11.9207L29.7746 10.5301L24.315 6.76504V1.09622H20.2064V3.93193L15.3745 0.599976L0.974609 10.5297L3.02132 11.9204L5.0167 10.5465V26.6731L1.19743 26.6733V29.0167H29.5515V26.6733H25.7325V10.5467L27.7279 11.9207ZM20.7852 1.67473H23.7365V6.36099L20.7852 4.32928V1.67473ZM3.0194 11.2195L1.99933 10.5266L15.375 1.30298L28.7507 10.5266L27.7306 11.2195L15.6228 2.88309L15.3751 2.71187L15.1273 2.88285L3.0194 11.2195ZM28.9735 27.2518V28.4381H1.77694V27.2518H28.9735ZM18.4708 26.6733H12.2792V16.604H18.4708V26.6733ZM19.0494 26.6733V16.0255H11.7006V26.6733H5.59565V10.1598L15.3748 3.41492L25.1539 10.1592V26.6726L19.0494 26.6733Z" fill="#52525B"/>
<path d="M15.3746 9.13942C14.2099 9.13942 13.2625 10.0868 13.2625 11.2515C13.2625 12.4161 14.2099 13.3638 15.3746 13.3638C16.5392 13.3638 17.4866 12.4161 17.4866 11.2515C17.4866 10.0868 16.5392 9.13942 15.3746 9.13942ZM15.3746 12.7853C14.5291 12.7853 13.8411 12.0972 13.8411 11.2515C13.8411 10.4061 14.5291 9.71806 15.3746 9.71806C16.22 9.71806 16.9081 10.4061 16.9081 11.2515C16.9081 12.0973 16.22 12.7853 15.3746 12.7853Z" fill="#52525B"/>
</svg>
