<svg width="261" height="58" viewBox="0 0 261 58" fill="none" xmlns="http://www.w3.org/2000/svg">
<rect width="261" height="58" fill="#F5F5F5"/>
<path d="M0 36.9364V12.3493H5.97302V36.9364H0Z" fill="#03252F"/>
<path d="M26.6827 36.9364L16.7855 20.8575H16.6814L16.8203 36.9364H11.0556V12.3493H17.8273L27.6898 28.3934H27.7939L27.655 12.3493H33.4197V36.9364H26.6827Z" fill="#03252F"/>
<path d="M51.479 18.7392C50.9697 18.0909 50.2983 17.5816 49.4649 17.2111C48.6546 16.8176 47.8674 16.6208 47.1034 16.6208C46.7099 16.6208 46.3047 16.6555 45.888 16.725C45.4944 16.7944 45.1356 16.9333 44.8115 17.1417C44.4873 17.3269 44.2095 17.5816 43.978 17.9057C43.7697 18.2067 43.6655 18.6002 43.6655 19.0864C43.6655 19.5032 43.7465 19.8504 43.9086 20.1283C44.0938 20.4061 44.3484 20.6492 44.6726 20.8575C45.0198 21.0659 45.425 21.2627 45.888 21.4479C46.351 21.61 46.8719 21.7836 47.4507 21.9688C48.2841 22.2466 49.1523 22.5592 50.0552 22.9065C50.9581 23.2306 51.78 23.6705 52.5208 24.2261C53.2617 24.7817 53.8752 25.4763 54.3613 26.3098C54.8475 27.1201 55.0906 28.1387 55.0906 29.3658C55.0906 30.778 54.8244 32.0051 54.2919 33.0469C53.7826 34.0656 53.088 34.9106 52.2083 35.582C51.3285 36.2534 50.3214 36.7512 49.187 37.0753C48.0526 37.3994 46.8835 37.5615 45.6796 37.5615C43.9201 37.5615 42.2185 37.2605 40.5748 36.6586C38.931 36.0335 37.5651 35.1537 36.477 34.0193L40.3664 30.0603C40.9684 30.8012 41.7555 31.4263 42.7278 31.9356C43.7234 32.4218 44.7073 32.6649 45.6796 32.6649C46.1195 32.6649 46.5478 32.6186 46.9645 32.526C47.3812 32.4334 47.7401 32.2829 48.0411 32.0745C48.3652 31.8662 48.6198 31.5884 48.805 31.2411C48.9903 30.8938 49.0829 30.4771 49.0829 29.9909C49.0829 29.5279 48.9671 29.1343 48.7356 28.8101C48.5041 28.486 48.1684 28.1966 47.7285 27.942C47.3118 27.6641 46.7793 27.421 46.1311 27.2127C45.506 26.9812 44.7883 26.7381 43.978 26.4834C43.1909 26.2287 42.4153 25.9278 41.6513 25.5805C40.9105 25.2332 40.2391 24.7933 39.6372 24.2608C39.0584 23.7052 38.5838 23.0454 38.2134 22.2814C37.8661 21.4942 37.6925 20.545 37.6925 19.4337C37.6925 18.0678 37.9703 16.8986 38.5259 15.9262C39.0815 14.9538 39.8108 14.1551 40.7137 13.53C41.6166 12.9049 42.6352 12.4535 43.7696 12.1756C44.9041 11.8747 46.05 11.7242 47.2076 11.7242C48.5967 11.7242 50.0089 11.9789 51.4443 12.4882C52.9028 12.9975 54.1761 13.75 55.2642 14.7455L51.479 18.7392Z" fill="#03252F"/>
<path d="M69.0899 17.4195V36.9364H63.1516V17.4195H56.2062V12.3493H76.0352V17.4195H69.0899Z" fill="#03252F"/>
<path d="M93.346 36.9364L91.436 32.1093H81.9209L80.1151 36.9364H73.6559L83.9698 12.3493H89.7344L99.9441 36.9364H93.346ZM86.7479 18.9128L83.6225 27.3516H89.8039L86.7479 18.9128Z" fill="#03252F"/>
<path d="M121.145 29.7825C121.145 31.1253 120.879 32.2598 120.347 33.1858C119.814 34.0887 119.108 34.818 118.228 35.3737C117.349 35.9293 116.342 36.3345 115.207 36.5891C114.096 36.8206 112.95 36.9364 111.769 36.9364H101.976V12.3493H111.769C112.718 12.3493 113.691 12.4535 114.686 12.6618C115.682 12.847 116.585 13.1827 117.395 13.6689C118.205 14.132 118.865 14.7686 119.374 15.5789C119.884 16.3893 120.138 17.4195 120.138 18.6697C120.138 20.0356 119.768 21.1701 119.027 22.073C118.286 22.9528 117.314 23.5894 116.11 23.983V24.0525C116.805 24.1682 117.453 24.3882 118.055 24.7123C118.68 25.0133 119.212 25.4068 119.652 25.893C120.115 26.3792 120.474 26.9464 120.729 27.5947C121.006 28.2429 121.145 28.9722 121.145 29.7825ZM114.408 19.4684C114.408 18.635 114.084 18.033 113.436 17.6626C112.811 17.269 111.873 17.0722 110.623 17.0722H107.706V22.1425H110.901C112.012 22.1425 112.869 21.9225 113.471 21.4826C114.096 21.0196 114.408 20.3482 114.408 19.4684ZM115.207 29.2269C115.207 28.2082 114.825 27.5021 114.061 27.1085C113.297 26.7149 112.278 26.5181 111.005 26.5181H107.706V32.144H111.04C111.503 32.144 111.977 32.1093 112.464 32.0398C112.973 31.9472 113.424 31.7967 113.818 31.5884C114.235 31.38 114.57 31.0906 114.825 30.7202C115.08 30.3266 115.207 29.8288 115.207 29.2269Z" fill="#03252F"/>
<path d="M150.699 24.5387C150.699 26.4834 150.364 28.2661 149.692 29.8867C149.021 31.4842 148.083 32.8617 146.879 34.0193C145.699 35.1537 144.286 36.0335 142.643 36.6586C140.999 37.2837 139.216 37.5962 137.295 37.5962C135.373 37.5962 133.591 37.2837 131.947 36.6586C130.326 36.0335 128.914 35.1537 127.71 34.0193C126.529 32.8617 125.603 31.4842 124.932 29.8867C124.261 28.2661 123.925 26.4834 123.925 24.5387C123.925 22.5708 124.261 20.7997 124.932 19.2253C125.603 17.6279 126.529 16.2735 127.71 15.1622C128.914 14.0509 130.326 13.1943 131.947 12.5924C133.591 11.9904 135.373 11.6895 137.295 11.6895C139.216 11.6895 140.999 11.9904 142.643 12.5924C144.286 13.1943 145.699 14.0509 146.879 15.1622C148.083 16.2735 149.021 17.6279 149.692 19.2253C150.364 20.7997 150.699 22.5708 150.699 24.5387ZM144.344 24.5387C144.344 23.4737 144.171 22.4782 143.823 21.5521C143.476 20.626 142.99 19.8389 142.365 19.1906C141.763 18.5192 141.022 17.9983 140.142 17.6279C139.286 17.2343 138.337 17.0375 137.295 17.0375C136.253 17.0375 135.304 17.2343 134.447 17.6279C133.591 17.9983 132.85 18.5192 132.225 19.1906C131.6 19.8389 131.113 20.626 130.766 21.5521C130.442 22.4782 130.28 23.4737 130.28 24.5387C130.28 25.6499 130.454 26.6802 130.801 27.6294C131.148 28.5555 131.623 29.3542 132.225 30.0256C132.85 30.697 133.591 31.2295 134.447 31.6231C135.304 31.9935 136.253 32.1787 137.295 32.1787C138.337 32.1787 139.286 31.9935 140.142 31.6231C140.999 31.2295 141.74 30.697 142.365 30.0256C142.99 29.3542 143.476 28.5555 143.823 27.6294C144.171 26.6802 144.344 25.6499 144.344 24.5387Z" fill="#03252F"/>
<path d="M167.771 36.9364L162.457 27.178H160.443V36.9364H154.609V12.3493H163.985C165.166 12.3493 166.312 12.4766 167.423 12.7313C168.558 12.9628 169.565 13.368 170.444 13.9467C171.347 14.5255 172.065 15.2895 172.598 16.2388C173.13 17.188 173.396 18.3687 173.396 19.781C173.396 21.4479 172.945 22.8486 172.042 23.983C171.139 25.1174 169.889 25.9278 168.291 26.4139L174.716 36.9364H167.771ZM167.527 19.8852C167.527 19.3064 167.4 18.8433 167.145 18.4961C166.914 18.1256 166.601 17.8478 166.208 17.6626C165.837 17.4542 165.409 17.3153 164.923 17.2459C164.46 17.1764 164.008 17.1417 163.569 17.1417H160.408V22.8717H163.221C163.707 22.8717 164.205 22.837 164.715 22.7676C165.224 22.6749 165.687 22.5245 166.104 22.3161C166.52 22.1077 166.856 21.8068 167.111 21.4132C167.389 21.0196 167.527 20.5103 167.527 19.8852Z" fill="#03252F"/>
<path d="M193.263 36.9364L183.366 20.8575H183.262L183.401 36.9364H177.636V12.3493H184.408L194.27 28.3934H194.374L194.235 12.3493H200V36.9364H193.263Z" fill="#03252F"/>
<path d="M81.5685 50.6983C81.5685 51.3691 81.4499 51.9868 81.2126 52.5513C80.9836 53.1076 80.6645 53.5903 80.2554 53.9993C79.8464 54.4002 79.3596 54.7152 78.7951 54.9443C78.2306 55.1651 77.617 55.2756 76.9544 55.2756C76.2917 55.2756 75.6781 55.1651 75.1136 54.9443C74.5573 54.7152 74.0746 54.4002 73.6655 53.9993C73.2565 53.5903 72.9374 53.1076 72.7084 52.5513C72.4793 51.9868 72.3647 51.3691 72.3647 50.6983C72.3647 50.0192 72.4793 49.4016 72.7084 48.8453C72.9374 48.2808 73.2565 47.8022 73.6655 47.4095C74.0746 47.0086 74.5573 46.6977 75.1136 46.4768C75.6781 46.2559 76.2917 46.1455 76.9544 46.1455C77.617 46.1455 78.2306 46.2559 78.7951 46.4768C79.3596 46.6977 79.8464 47.0086 80.2554 47.4095C80.6645 47.8022 80.9836 48.2808 81.2126 48.8453C81.4499 49.4016 81.5685 50.0192 81.5685 50.6983ZM80.2554 50.6983C80.2554 50.2238 80.1777 49.7779 80.0223 49.3607C79.8668 48.9352 79.6459 48.563 79.3596 48.2439C79.0733 47.9249 78.7256 47.6754 78.3165 47.4954C77.9156 47.3072 77.4616 47.2131 76.9544 47.2131C76.4553 47.2131 76.0013 47.3072 75.5922 47.4954C75.1913 47.6754 74.8477 47.9249 74.5614 48.2439C74.2832 48.563 74.0664 48.9352 73.911 49.3607C73.7555 49.7779 73.6778 50.2238 73.6778 50.6983C73.6778 51.181 73.7555 51.635 73.911 52.0604C74.0664 52.4858 74.2873 52.8581 74.5736 53.1771C74.86 53.488 75.2036 53.7335 75.6045 53.9134C76.0053 54.0934 76.4553 54.1834 76.9544 54.1834C77.4534 54.1834 77.9075 54.0934 78.3165 53.9134C78.7256 53.7335 79.0733 53.488 79.3596 53.1771C79.6459 52.8581 79.8668 52.4858 80.0223 52.0604C80.1777 51.635 80.2554 51.181 80.2554 50.6983Z" fill="#03252F"/>
<path d="M84.2024 49.2379C84.2188 49.3852 84.231 49.5529 84.2392 49.7411C84.2474 49.9211 84.2515 50.0724 84.2515 50.1951H84.2883C84.3619 50.0397 84.4601 49.8965 84.5828 49.7656C84.7137 49.6265 84.861 49.5079 85.0246 49.4097C85.1882 49.3034 85.3682 49.2216 85.5646 49.1643C85.7609 49.107 85.9654 49.0784 86.1781 49.0784C86.5545 49.0784 86.8776 49.1439 87.1476 49.2748C87.4176 49.3975 87.6426 49.5652 87.8226 49.7779C88.0025 49.9906 88.1334 50.2401 88.2152 50.5265C88.3052 50.8128 88.3502 51.1196 88.3502 51.4468V55.0547H87.1967V51.8273C87.1967 51.59 87.1762 51.365 87.1353 51.1523C87.1026 50.9396 87.0372 50.7514 86.939 50.5878C86.8408 50.4242 86.7058 50.2933 86.534 50.1951C86.3622 50.097 86.1413 50.0479 85.8714 50.0479C85.4132 50.0479 85.0369 50.2238 84.7424 50.5756C84.456 50.9192 84.3129 51.3814 84.3129 51.9622V55.0547H83.1593V50.4897C83.1593 50.3342 83.1552 50.1338 83.147 49.8883C83.1389 49.6429 83.1266 49.4261 83.1102 49.2379H84.2024Z" fill="#03252F"/>
<path d="M96.5113 50.7105C96.3804 50.4978 96.1963 50.326 95.9591 50.1951C95.7218 50.0561 95.4559 49.9865 95.1614 49.9865C95.0305 49.9865 94.8996 50.0029 94.7687 50.0356C94.6378 50.0601 94.5192 50.1051 94.4128 50.1706C94.3147 50.2279 94.2328 50.3056 94.1674 50.4037C94.1101 50.4937 94.0815 50.6083 94.0815 50.7474C94.0815 50.9928 94.1919 51.1769 94.4128 51.2996C94.6337 51.4141 94.9651 51.5205 95.4068 51.6186C95.685 51.6841 95.9427 51.7618 96.18 51.8518C96.4172 51.9418 96.6217 52.0563 96.7935 52.1954C96.9735 52.3263 97.1126 52.4858 97.2108 52.674C97.3089 52.8622 97.358 53.0831 97.358 53.3367C97.358 53.6803 97.2926 53.9707 97.1617 54.208C97.0308 54.4452 96.8549 54.6416 96.634 54.797C96.4213 54.9443 96.1759 55.0506 95.8977 55.1161C95.6195 55.1815 95.3332 55.2142 95.0387 55.2142C94.5969 55.2142 94.1633 55.1283 93.7379 54.9565C93.3207 54.7847 92.973 54.5229 92.6948 54.1711L93.517 53.4717C93.6724 53.7007 93.8851 53.893 94.1551 54.0484C94.4333 54.2039 94.736 54.2816 95.0632 54.2816C95.2105 54.2816 95.3496 54.2693 95.4805 54.2448C95.6195 54.212 95.7423 54.163 95.8486 54.0975C95.9632 54.0321 96.0531 53.9462 96.1186 53.8398C96.184 53.7335 96.2168 53.5985 96.2168 53.4348C96.2168 53.1649 96.0859 52.9644 95.8241 52.8335C95.5705 52.7026 95.1941 52.5799 94.6951 52.4654C94.4987 52.4163 94.2983 52.359 94.0938 52.2936C93.8974 52.2199 93.7174 52.1218 93.5538 51.9991C93.3902 51.8763 93.2552 51.725 93.1488 51.545C93.0507 51.3568 93.0016 51.1278 93.0016 50.8578C93.0016 50.5469 93.0629 50.281 93.1857 50.0601C93.3166 49.8311 93.4843 49.647 93.6888 49.5079C93.8933 49.3607 94.1265 49.2543 94.3883 49.1889C94.6501 49.1152 94.9201 49.0784 95.1982 49.0784C95.6155 49.0784 96.0163 49.1602 96.4008 49.3238C96.7935 49.4875 97.0962 49.7247 97.3089 50.0356L96.5113 50.7105Z" fill="#03252F"/>
<path d="M103.081 51.6309C103.073 51.4018 103.032 51.1891 102.958 50.9928C102.893 50.7883 102.79 50.6124 102.651 50.4651C102.52 50.3178 102.353 50.2033 102.148 50.1215C101.952 50.0315 101.719 49.9865 101.449 49.9865C101.203 49.9865 100.97 50.0315 100.749 50.1215C100.536 50.2033 100.348 50.3178 100.185 50.4651C100.029 50.6124 99.8983 50.7883 99.7919 50.9928C99.6938 51.1891 99.6365 51.4018 99.6201 51.6309H103.081ZM104.247 52.0972C104.247 52.1627 104.247 52.2281 104.247 52.2936C104.247 52.359 104.242 52.4245 104.234 52.4899H99.6201C99.6283 52.7354 99.6815 52.9685 99.7797 53.1894C99.886 53.4021 100.025 53.5903 100.197 53.7539C100.369 53.9093 100.565 54.0321 100.786 54.1221C101.015 54.212 101.256 54.257 101.51 54.257C101.903 54.257 102.242 54.1711 102.529 53.9993C102.815 53.8275 103.04 53.6189 103.203 53.3735L104.013 54.0239C103.703 54.4329 103.334 54.7356 102.909 54.932C102.492 55.1201 102.025 55.2142 101.51 55.2142C101.068 55.2142 100.659 55.1406 100.283 54.9933C99.9065 54.8461 99.5833 54.6416 99.3134 54.3798C99.0434 54.1098 98.8307 53.7866 98.6752 53.4103C98.5198 53.034 98.4421 52.6167 98.4421 52.1586C98.4421 51.7086 98.5157 51.2955 98.663 50.9192C98.8184 50.5346 99.0311 50.2074 99.3011 49.9374C99.5711 49.6675 99.8901 49.4588 100.258 49.3116C100.626 49.1561 101.023 49.0784 101.449 49.0784C101.874 49.0784 102.259 49.148 102.602 49.287C102.954 49.4261 103.248 49.6265 103.486 49.8883C103.731 50.1501 103.919 50.4692 104.05 50.8455C104.181 51.2137 104.247 51.6309 104.247 52.0972Z" fill="#03252F"/>
<path d="M112.999 50.7105C112.877 50.5224 112.692 50.3669 112.447 50.2442C112.202 50.1133 111.94 50.0479 111.662 50.0479C111.359 50.0479 111.089 50.1051 110.852 50.2197C110.623 50.3342 110.426 50.4896 110.263 50.686C110.099 50.8742 109.972 51.0951 109.882 51.3487C109.8 51.6023 109.76 51.8682 109.76 52.1463C109.76 52.4245 109.8 52.6904 109.882 52.944C109.972 53.1976 110.099 53.4226 110.263 53.6189C110.426 53.8071 110.627 53.9584 110.864 54.073C111.101 54.1875 111.371 54.2448 111.674 54.2448C111.968 54.2448 112.234 54.1875 112.472 54.073C112.717 53.9584 112.917 53.803 113.073 53.6066L113.846 54.3061C113.601 54.5925 113.294 54.8174 112.926 54.9811C112.557 55.1365 112.14 55.2142 111.674 55.2142C111.224 55.2142 110.807 55.1406 110.422 54.9933C110.046 54.8461 109.719 54.6416 109.44 54.3798C109.162 54.1098 108.941 53.7866 108.778 53.4103C108.622 53.034 108.545 52.6126 108.545 52.1463C108.545 51.6882 108.622 51.2709 108.778 50.8946C108.933 50.5183 109.15 50.1951 109.428 49.9252C109.706 49.6552 110.034 49.4466 110.41 49.2993C110.794 49.152 111.208 49.0784 111.649 49.0784C112.058 49.0784 112.463 49.1602 112.864 49.3238C113.273 49.4875 113.596 49.7247 113.834 50.0356L112.999 50.7105Z" fill="#03252F"/>
<path d="M116.192 50.1215C116.331 49.8352 116.568 49.5897 116.903 49.3852C117.239 49.1807 117.615 49.0784 118.032 49.0784C118.409 49.0784 118.732 49.1439 119.002 49.2748C119.272 49.3975 119.497 49.5652 119.677 49.7779C119.857 49.9906 119.988 50.2401 120.069 50.5265C120.159 50.8128 120.204 51.1196 120.204 51.4468V55.0547H119.051V51.8395C119.051 51.6023 119.03 51.3773 118.99 51.1646C118.957 50.9519 118.891 50.7637 118.793 50.6001C118.695 50.4365 118.56 50.3056 118.388 50.2074C118.225 50.1092 118.008 50.0601 117.738 50.0601C117.28 50.0601 116.903 50.236 116.609 50.5878C116.314 50.9314 116.167 51.3937 116.167 51.9745V55.0547H115.014V45.7773H116.167V50.1215H116.192Z" fill="#03252F"/>
<path d="M125.776 51.2873C125.776 50.8537 125.645 50.5346 125.383 50.3301C125.121 50.1174 124.773 50.0111 124.34 50.0111C124.013 50.0111 123.702 50.0765 123.407 50.2074C123.121 50.3301 122.879 50.4896 122.683 50.686L122.07 49.9497C122.356 49.6797 122.704 49.467 123.113 49.3116C123.53 49.1561 123.976 49.0784 124.45 49.0784C124.867 49.0784 125.227 49.1398 125.53 49.2625C125.841 49.377 126.095 49.5366 126.291 49.7411C126.487 49.9456 126.635 50.1869 126.733 50.4651C126.831 50.7433 126.88 51.0419 126.88 51.3609V53.9012C126.88 54.0975 126.884 54.3061 126.892 54.527C126.909 54.7397 126.933 54.9156 126.966 55.0547H125.923C125.857 54.7765 125.825 54.4984 125.825 54.2202H125.788C125.575 54.5311 125.305 54.7724 124.978 54.9443C124.659 55.1161 124.278 55.202 123.837 55.202C123.608 55.202 123.366 55.1692 123.113 55.1038C122.867 55.0465 122.642 54.9483 122.438 54.8093C122.233 54.6702 122.061 54.4861 121.922 54.257C121.791 54.028 121.726 53.7457 121.726 53.4103C121.726 52.9685 121.845 52.6208 122.082 52.3672C122.319 52.1054 122.63 51.9091 123.014 51.7782C123.399 51.6391 123.833 51.5491 124.315 51.5082C124.798 51.4673 125.285 51.4468 125.776 51.4468V51.2873ZM125.493 52.2813C125.207 52.2813 124.908 52.2936 124.598 52.3181C124.295 52.3427 124.017 52.3918 123.763 52.4654C123.518 52.539 123.313 52.6495 123.149 52.7967C122.986 52.944 122.904 53.1403 122.904 53.3858C122.904 53.5576 122.937 53.7007 123.002 53.8153C123.076 53.9298 123.17 54.0239 123.284 54.0975C123.399 54.1711 123.526 54.2243 123.665 54.257C123.804 54.2816 123.947 54.2939 124.094 54.2939C124.634 54.2939 125.047 54.1343 125.334 53.8153C125.628 53.488 125.776 53.079 125.776 52.5881V52.2813H125.493Z" fill="#03252F"/>
<path d="M128.807 50.4897C128.807 50.3342 128.803 50.1338 128.794 49.8883C128.786 49.6429 128.774 49.4261 128.758 49.2379H129.85C129.866 49.3852 129.878 49.557 129.887 49.7534C129.895 49.9415 129.899 50.097 129.899 50.2197H129.936C130.099 49.8761 130.336 49.602 130.647 49.3975C130.966 49.1848 131.322 49.0784 131.715 49.0784C131.895 49.0784 132.046 49.0948 132.169 49.1275L132.12 50.1951C131.956 50.1542 131.78 50.1338 131.592 50.1338C131.314 50.1338 131.073 50.1869 130.868 50.2933C130.664 50.3915 130.492 50.5265 130.353 50.6983C130.222 50.8701 130.124 51.0705 130.058 51.2996C129.993 51.5205 129.96 51.7536 129.96 51.9991V55.0547H128.807V50.4897Z" fill="#03252F"/>
<path d="M133.491 56.0487C133.745 56.335 134.06 56.5641 134.436 56.7359C134.82 56.9077 135.213 56.9936 135.614 56.9936C135.999 56.9936 136.322 56.9363 136.583 56.8218C136.845 56.7155 137.054 56.5641 137.209 56.3678C137.373 56.1796 137.488 55.9546 137.553 55.6928C137.627 55.431 137.663 55.1488 137.663 54.8461V54.0975H137.639C137.426 54.4248 137.136 54.6743 136.768 54.8461C136.399 55.0179 136.007 55.1038 135.589 55.1038C135.148 55.1038 134.743 55.0261 134.375 54.8706C134.015 54.7152 133.708 54.5025 133.454 54.2325C133.201 53.9625 133.004 53.6475 132.865 53.2876C132.726 52.9194 132.657 52.5267 132.657 52.1095C132.657 51.6923 132.726 51.2996 132.865 50.9314C133.004 50.5633 133.201 50.2442 133.454 49.9742C133.708 49.6961 134.015 49.4793 134.375 49.3238C134.735 49.1602 135.135 49.0784 135.577 49.0784C135.994 49.0784 136.391 49.1684 136.768 49.3484C137.152 49.5284 137.455 49.8024 137.676 50.1706H137.7V49.2379H138.817V54.7602C138.817 55.1856 138.764 55.5906 138.657 55.9751C138.551 56.3678 138.371 56.7114 138.117 57.0059C137.864 57.3086 137.533 57.5499 137.123 57.7299C136.714 57.9099 136.207 57.9999 135.602 57.9999C135.095 57.9999 134.583 57.9058 134.068 57.7176C133.561 57.5377 133.123 57.28 132.755 56.9445L133.491 56.0487ZM133.847 52.085C133.847 52.3549 133.888 52.6126 133.97 52.8581C134.06 53.1035 134.186 53.3203 134.35 53.5085C134.522 53.6966 134.726 53.848 134.964 53.9625C135.201 54.0771 135.471 54.1343 135.774 54.1343C136.068 54.1343 136.338 54.0811 136.583 53.9748C136.829 53.8684 137.038 53.7253 137.209 53.5453C137.381 53.3571 137.512 53.1403 137.602 52.8949C137.7 52.6413 137.749 52.3713 137.749 52.085C137.749 51.8068 137.7 51.545 137.602 51.2996C137.512 51.0541 137.377 50.8373 137.197 50.6492C137.025 50.461 136.817 50.3138 136.571 50.2074C136.334 50.0929 136.068 50.0356 135.774 50.0356C135.471 50.0356 135.201 50.0929 134.964 50.2074C134.726 50.3138 134.522 50.461 134.35 50.6492C134.186 50.8292 134.06 51.046 133.97 51.2996C133.888 51.545 133.847 51.8068 133.847 52.085Z" fill="#03252F"/>
<path d="M145.049 51.6309C145.041 51.4018 145 51.1891 144.926 50.9928C144.861 50.7883 144.759 50.6124 144.619 50.4651C144.489 50.3178 144.321 50.2033 144.116 50.1215C143.92 50.0315 143.687 49.9865 143.417 49.9865C143.171 49.9865 142.938 50.0315 142.717 50.1215C142.505 50.2033 142.316 50.3178 142.153 50.4651C141.997 50.6124 141.866 50.7883 141.76 50.9928C141.662 51.1891 141.605 51.4018 141.588 51.6309H145.049ZM146.215 52.0972C146.215 52.1627 146.215 52.2281 146.215 52.2936C146.215 52.359 146.211 52.4245 146.202 52.4899H141.588C141.597 52.7354 141.65 52.9685 141.748 53.1894C141.854 53.4021 141.993 53.5903 142.165 53.7539C142.337 53.9093 142.533 54.0321 142.754 54.1221C142.983 54.212 143.225 54.257 143.478 54.257C143.871 54.257 144.21 54.1711 144.497 53.9993C144.783 53.8275 145.008 53.6189 145.172 53.3735L145.982 54.0239C145.671 54.4329 145.303 54.7356 144.877 54.932C144.46 55.1201 143.994 55.2142 143.478 55.2142C143.036 55.2142 142.627 55.1406 142.251 54.9933C141.875 54.8461 141.552 54.6416 141.282 54.3798C141.012 54.1098 140.799 53.7866 140.643 53.4103C140.488 53.034 140.41 52.6167 140.41 52.1586C140.41 51.7086 140.484 51.2955 140.631 50.9192C140.787 50.5346 140.999 50.2074 141.269 49.9374C141.539 49.6675 141.858 49.4588 142.226 49.3116C142.595 49.1561 142.991 49.0784 143.417 49.0784C143.842 49.0784 144.227 49.148 144.57 49.287C144.922 49.4261 145.217 49.6265 145.454 49.8883C145.699 50.1501 145.887 50.4692 146.018 50.8455C146.149 51.2137 146.215 51.6309 146.215 52.0972Z" fill="#03252F"/>
<path d="M155.532 54.1343C155.311 54.4861 155.008 54.7561 154.624 54.9443C154.247 55.1242 153.851 55.2142 153.433 55.2142C152.983 55.2142 152.579 55.1365 152.219 54.9811C151.859 54.8174 151.552 54.5966 151.298 54.3184C151.045 54.0402 150.848 53.713 150.709 53.3367C150.57 52.9603 150.501 52.5595 150.501 52.134C150.501 51.7086 150.57 51.3118 150.709 50.9437C150.848 50.5674 151.045 50.2401 151.298 49.962C151.56 49.6838 151.871 49.467 152.231 49.3116C152.591 49.1561 152.988 49.0784 153.421 49.0784C153.896 49.0784 154.309 49.1807 154.661 49.3852C155.012 49.5815 155.291 49.8229 155.495 50.1092H155.52V45.7773H156.673V55.0547H155.556V54.1343H155.532ZM151.703 52.134C151.703 52.404 151.744 52.6658 151.826 52.9194C151.908 53.173 152.03 53.398 152.194 53.5944C152.358 53.7907 152.558 53.9502 152.795 54.073C153.033 54.1875 153.311 54.2448 153.63 54.2448C153.924 54.2448 154.19 54.1875 154.427 54.073C154.673 53.9584 154.882 53.8071 155.053 53.6189C155.225 53.4226 155.356 53.1976 155.446 52.944C155.544 52.6904 155.593 52.4245 155.593 52.1463C155.593 51.8682 155.544 51.6023 155.446 51.3487C155.356 51.0951 155.225 50.8701 155.053 50.6737C154.882 50.4774 154.673 50.3219 154.427 50.2074C154.19 50.0929 153.924 50.0356 153.63 50.0356C153.311 50.0356 153.033 50.0929 152.795 50.2074C152.558 50.3219 152.358 50.4774 152.194 50.6737C152.03 50.8701 151.908 51.0951 151.826 51.3487C151.744 51.6023 151.703 51.8641 151.703 52.134Z" fill="#03252F"/>
<path d="M162.941 51.6309C162.933 51.4018 162.892 51.1891 162.818 50.9928C162.753 50.7883 162.651 50.6124 162.512 50.4651C162.381 50.3178 162.213 50.2033 162.008 50.1215C161.812 50.0315 161.579 49.9865 161.309 49.9865C161.064 49.9865 160.83 50.0315 160.61 50.1215C160.397 50.2033 160.209 50.3178 160.045 50.4651C159.89 50.6124 159.759 50.7883 159.652 50.9928C159.554 51.1891 159.497 51.4018 159.481 51.6309H162.941ZM164.107 52.0972C164.107 52.1627 164.107 52.2281 164.107 52.2936C164.107 52.359 164.103 52.4245 164.095 52.4899H159.481C159.489 52.7354 159.542 52.9685 159.64 53.1894C159.746 53.4021 159.885 53.5903 160.057 53.7539C160.229 53.9093 160.425 54.0321 160.646 54.1221C160.875 54.212 161.117 54.257 161.37 54.257C161.763 54.257 162.103 54.1711 162.389 53.9993C162.675 53.8275 162.9 53.6189 163.064 53.3735L163.874 54.0239C163.563 54.4329 163.195 54.7356 162.769 54.932C162.352 55.1201 161.886 55.2142 161.37 55.2142C160.929 55.2142 160.52 55.1406 160.143 54.9933C159.767 54.8461 159.444 54.6416 159.174 54.3798C158.904 54.1098 158.691 53.7866 158.536 53.4103C158.38 53.034 158.302 52.6167 158.302 52.1586C158.302 51.7086 158.376 51.2955 158.523 50.9192C158.679 50.5346 158.891 50.2074 159.161 49.9374C159.431 49.6675 159.751 49.4588 160.119 49.3116C160.487 49.1561 160.884 49.0784 161.309 49.0784C161.734 49.0784 162.119 49.148 162.463 49.287C162.814 49.4261 163.109 49.6265 163.346 49.8883C163.592 50.1501 163.78 50.4692 163.911 50.8455C164.041 51.2137 164.107 51.6309 164.107 52.0972Z" fill="#03252F"/>
<path d="M171.522 55.0547H170.27L167.902 49.2379H169.178L170.884 53.8153H170.908L172.626 49.2379H173.854L171.522 55.0547Z" fill="#03252F"/>
<path d="M180.86 52.134C180.86 52.584 180.778 52.9972 180.614 53.3735C180.459 53.7498 180.238 54.0771 179.952 54.3552C179.673 54.6252 179.342 54.8379 178.958 54.9933C178.573 55.1406 178.16 55.2142 177.718 55.2142C177.276 55.2142 176.863 55.1406 176.479 54.9933C176.094 54.8379 175.763 54.6252 175.485 54.3552C175.206 54.0771 174.986 53.7498 174.822 53.3735C174.667 52.9972 174.589 52.584 174.589 52.134C174.589 51.6841 174.667 51.275 174.822 50.9069C174.986 50.5306 175.206 50.2074 175.485 49.9374C175.763 49.6675 176.094 49.4588 176.479 49.3116C176.863 49.1561 177.276 49.0784 177.718 49.0784C178.16 49.0784 178.573 49.1561 178.958 49.3116C179.342 49.4588 179.673 49.6675 179.952 49.9374C180.238 50.2074 180.459 50.5306 180.614 50.9069C180.778 51.275 180.86 51.6841 180.86 52.134ZM179.657 52.134C179.657 51.8559 179.612 51.59 179.522 51.3364C179.44 51.0828 179.317 50.8619 179.154 50.6737C178.99 50.4774 178.786 50.3219 178.54 50.2074C178.303 50.0929 178.029 50.0356 177.718 50.0356C177.407 50.0356 177.129 50.0929 176.884 50.2074C176.646 50.3219 176.446 50.4774 176.282 50.6737C176.119 50.8619 175.992 51.0828 175.902 51.3364C175.82 51.59 175.779 51.8559 175.779 52.134C175.779 52.4122 175.82 52.6781 175.902 52.9317C175.992 53.1853 176.119 53.4103 176.282 53.6066C176.446 53.803 176.646 53.9584 176.884 54.073C177.129 54.1875 177.407 54.2448 177.718 54.2448C178.029 54.2448 178.303 54.1875 178.54 54.073C178.786 53.9584 178.99 53.803 179.154 53.6066C179.317 53.4103 179.44 53.1853 179.522 52.9317C179.612 52.6781 179.657 52.4122 179.657 52.134Z" fill="#03252F"/>
<path d="M186.558 55.0547C186.542 54.9074 186.529 54.7438 186.521 54.5638C186.513 54.3757 186.509 54.2202 186.509 54.0975H186.484C186.337 54.4084 186.088 54.6743 185.736 54.8952C185.392 55.1079 185.008 55.2142 184.582 55.2142C184.206 55.2142 183.879 55.1529 183.601 55.0302C183.331 54.9074 183.106 54.7397 182.926 54.527C182.754 54.3061 182.623 54.0525 182.533 53.7662C182.451 53.4798 182.41 53.173 182.41 52.8458V49.2379H183.564V52.4531C183.564 52.6904 183.58 52.9194 183.613 53.1403C183.654 53.353 183.723 53.5412 183.821 53.7048C183.92 53.8684 184.055 53.9993 184.226 54.0975C184.398 54.1957 184.619 54.2448 184.889 54.2448C185.355 54.2448 185.732 54.073 186.018 53.7294C186.304 53.3776 186.448 52.9113 186.448 52.3304V49.2379H187.601V53.803C187.601 53.9584 187.605 54.1589 187.613 54.4043C187.622 54.6497 187.634 54.8665 187.65 55.0547H186.558Z" fill="#03252F"/>
<path d="M192.743 50.7105C192.612 50.4978 192.428 50.326 192.191 50.1951C191.954 50.0561 191.688 49.9865 191.393 49.9865C191.263 49.9865 191.132 50.0029 191.001 50.0356C190.87 50.0601 190.751 50.1051 190.645 50.1706C190.547 50.2279 190.465 50.3056 190.399 50.4037C190.342 50.4937 190.314 50.6083 190.314 50.7474C190.314 50.9928 190.424 51.1769 190.645 51.2996C190.866 51.4141 191.197 51.5205 191.639 51.6186C191.917 51.6841 192.175 51.7618 192.412 51.8518C192.649 51.9418 192.854 52.0563 193.026 52.1954C193.206 52.3263 193.345 52.4858 193.443 52.674C193.541 52.8622 193.59 53.0831 193.59 53.3367C193.59 53.6803 193.525 53.9707 193.394 54.208C193.263 54.4452 193.087 54.6416 192.866 54.797C192.653 54.9443 192.408 55.0506 192.13 55.1161C191.852 55.1815 191.565 55.2142 191.271 55.2142C190.829 55.2142 190.395 55.1283 189.97 54.9565C189.553 54.7847 189.205 54.5229 188.927 54.1711L189.749 53.4717C189.904 53.7007 190.117 53.893 190.387 54.0484C190.665 54.2039 190.968 54.2816 191.295 54.2816C191.442 54.2816 191.582 54.2693 191.712 54.2448C191.852 54.212 191.974 54.163 192.081 54.0975C192.195 54.0321 192.285 53.9462 192.351 53.8398C192.416 53.7335 192.449 53.5985 192.449 53.4348C192.449 53.1649 192.318 52.9644 192.056 52.8335C191.802 52.7026 191.426 52.5799 190.927 52.4654C190.731 52.4163 190.53 52.359 190.326 52.2936C190.129 52.2199 189.949 52.1218 189.786 51.9991C189.622 51.8763 189.487 51.725 189.381 51.545C189.283 51.3568 189.234 51.1278 189.234 50.8578C189.234 50.5469 189.295 50.281 189.418 50.0601C189.549 49.8311 189.716 49.647 189.921 49.5079C190.125 49.3607 190.358 49.2543 190.62 49.1889C190.882 49.1152 191.152 49.0784 191.43 49.0784C191.847 49.0784 192.248 49.1602 192.633 49.3238C193.026 49.4875 193.328 49.7247 193.541 50.0356L192.743 50.7105Z" fill="#03252F"/>
<path d="M199.779 52.5145H198.564V46.3664H199.779V52.5145ZM200 54.3184C200 54.5311 199.922 54.7193 199.767 54.8829C199.611 55.0465 199.415 55.1283 199.178 55.1283C198.949 55.1283 198.752 55.0506 198.589 54.8952C198.433 54.7315 198.356 54.5434 198.356 54.3307C198.356 54.1098 198.433 53.9216 198.589 53.7662C198.744 53.6026 198.941 53.5207 199.178 53.5207C199.415 53.5207 199.611 53.5985 199.767 53.7539C199.922 53.9093 200 54.0975 200 54.3184Z" fill="#03252F"/>
<path d="M215.35 23.5326C215.35 22.3511 216.308 21.3933 217.49 21.3933H223.457V25.672H217.49C216.308 25.672 215.35 24.7141 215.35 23.5326Z" fill="#03252F"/>
<path d="M215.35 34.5671C215.35 33.3855 216.308 32.4277 217.49 32.4277H223.457V36.7064H217.49C216.308 36.7064 215.35 35.7486 215.35 34.5671Z" fill="#03252F"/>
<path d="M204.091 29.0006C204.091 44.9904 217.108 58 233.11 58C240.836 58 248.106 55.001 253.582 49.5564C256.825 46.331 259.286 42.3409 260.699 38.0165C260.794 37.728 260.839 37.4348 260.839 37.1474C260.839 35.9722 260.09 34.8791 258.91 34.4932C257.443 34.0146 255.865 34.8157 255.387 36.2806C254.245 39.77 252.257 42.9907 249.637 45.5956C245.217 49.9916 239.347 52.4124 233.11 52.4124C220.191 52.4124 209.681 41.9093 209.681 28.9994C209.681 16.0884 220.191 5.58525 233.11 5.58525C239.371 5.58525 245.251 8.01897 249.675 12.4384C251.199 14.1344 254.263 18.3438 254.263 20.8714C254.263 22.1697 253.854 23.1397 252.976 23.9291C250.748 25.9276 246.236 26.3651 243.094 26.3475C242.85 21.5 238.85 17.6413 233.938 17.6413H225.24V40.3587H233.938C238.753 40.3587 242.695 36.6524 243.08 31.9386C246.825 31.968 252.962 31.4425 256.701 28.094C258.763 26.2478 259.853 23.7508 259.853 20.8714C259.853 15.4679 254.391 9.31734 253.769 8.63473L253.685 8.54442C248.198 3.03424 240.891 0 233.11 0C217.108 0 204.091 13.0096 204.091 29.0006Z" fill="#03252F"/>
<path d="M225.034 17.3398H232.69C239.157 17.3398 244.4 22.5826 244.4 29.0498C244.4 35.5171 239.157 40.7599 232.69 40.7599H225.034V17.3398Z" fill="#03252F"/>
</svg>
