<svg width="768" height="172" viewBox="0 0 768 172" fill="none" xmlns="http://www.w3.org/2000/svg">
<path d="M0 110.209V38.0802H17.5223V110.209H0Z" fill="white"/>
<path d="M78.2759 110.209L49.2418 63.04H48.9362L49.3437 110.209H32.4326V38.0802H52.298L81.2303 85.1472H81.5359L81.1284 38.0802H98.0395V110.209H78.2759Z" fill="white"/>
<path d="M151.018 56.8255C149.524 54.9238 147.554 53.4296 145.109 52.3429C142.732 51.1883 140.423 50.611 138.182 50.611C137.027 50.611 135.839 50.7129 134.616 50.9167C133.462 51.1204 132.409 51.5279 131.458 52.1392C130.507 52.6825 129.692 53.4296 129.013 54.3805C128.402 55.2634 128.096 56.418 128.096 57.8443C128.096 59.0668 128.334 60.0856 128.809 60.9006C129.353 61.7156 130.1 62.4287 131.051 63.04C132.069 63.6512 133.258 64.2285 134.616 64.7719C135.975 65.2473 137.503 65.7567 139.201 66.3C141.646 67.115 144.192 68.0319 146.841 69.0507C149.49 70.0015 151.901 71.292 154.074 72.922C156.248 74.552 158.047 76.5896 159.474 79.0346C160.9 81.4117 161.613 84.4001 161.613 87.9998C161.613 92.1427 160.832 95.7424 159.27 98.7987C157.776 101.787 155.738 104.266 153.157 106.236C150.577 108.205 147.622 109.666 144.294 110.616C140.966 111.567 137.537 112.043 134.005 112.043C128.843 112.043 123.852 111.16 119.03 109.394C114.208 107.56 110.2 104.979 107.008 101.651L118.418 90.0373C120.184 92.2107 122.493 94.0444 125.346 95.5386C128.266 96.9649 131.153 97.678 134.005 97.678C135.295 97.678 136.552 97.5422 137.774 97.2705C138.997 96.9989 140.05 96.5574 140.932 95.9461C141.883 95.3349 142.63 94.5199 143.174 93.5011C143.717 92.4823 143.989 91.2598 143.989 89.8335C143.989 88.4752 143.649 87.3206 142.97 86.3697C142.291 85.4189 141.306 84.5699 140.016 83.8228C138.793 83.0078 137.231 82.2947 135.329 81.6834C133.496 81.0042 131.39 80.2911 129.013 79.544C126.704 78.7969 124.429 77.914 122.188 76.8952C120.014 75.8764 118.045 74.586 116.279 73.0239C114.581 71.3939 113.189 69.4582 112.102 67.2169C111.083 64.9077 110.574 62.1231 110.574 58.863C110.574 54.8559 111.389 51.426 113.019 48.5735C114.649 45.7209 116.788 43.3778 119.437 41.544C122.086 39.7102 125.074 38.3858 128.402 37.5708C131.73 36.6879 135.092 36.2464 138.488 36.2464C142.562 36.2464 146.705 36.9935 150.916 38.4877C155.195 39.9819 158.93 42.1892 162.122 45.1097L151.018 56.8255Z" fill="white"/>
<path d="M202.681 52.9542V110.209H185.26V52.9542H164.886V38.0802H223.056V52.9542H202.681Z" fill="white"/>
<path d="M273.838 110.209L268.235 96.048H240.322L235.024 110.209H216.076L246.332 38.0802H263.243L293.194 110.209H273.838ZM254.482 57.3349L245.314 82.0909H263.447L254.482 57.3349Z" fill="white"/>
<path d="M355.39 89.2223C355.39 93.1615 354.609 96.4895 353.047 99.2062C351.485 101.855 349.414 103.994 346.833 105.624C344.252 107.254 341.298 108.443 337.97 109.19C334.71 109.869 331.348 110.209 327.884 110.209H299.156V38.0802H327.884C330.669 38.0802 333.521 38.3858 336.442 38.9971C339.362 39.5404 342.011 40.5252 344.388 41.9515C346.765 43.3099 348.7 45.1776 350.195 47.5547C351.689 49.9318 352.436 52.9542 352.436 56.6217C352.436 60.6289 351.349 63.9569 349.176 66.6057C347.003 69.1865 344.15 71.0543 340.618 72.2089V72.4126C342.656 72.7522 344.558 73.3974 346.323 74.3483C348.157 75.2312 349.719 76.3858 351.01 77.8121C352.368 79.2384 353.421 80.9024 354.168 82.804C354.983 84.7057 355.39 86.8452 355.39 89.2223ZM335.627 58.9649C335.627 56.5199 334.676 54.754 332.774 53.6673C330.94 52.5127 328.19 51.9354 324.522 51.9354H315.965V66.8094H325.337C328.597 66.8094 331.11 66.1642 332.876 64.8738C334.71 63.5154 335.627 61.5458 335.627 58.9649ZM337.97 87.5923C337.97 84.6039 336.849 82.5324 334.608 81.3778C332.367 80.2232 329.378 79.6459 325.643 79.6459H315.965V96.1499H325.745C327.103 96.1499 328.495 96.048 329.922 95.8443C331.416 95.5726 332.74 95.1311 333.895 94.5199C335.117 93.9086 336.102 93.0596 336.849 91.9729C337.596 90.8183 337.97 89.3581 337.97 87.5923Z" fill="white"/>
<path d="M442.089 73.8389C442.089 79.544 441.104 84.7737 439.135 89.5279C437.165 94.2142 434.415 98.2553 430.883 101.651C427.419 104.979 423.276 107.56 418.454 109.394C413.632 111.228 408.403 112.145 402.766 112.145C397.129 112.145 391.899 111.228 387.077 109.394C382.323 107.56 378.18 104.979 374.648 101.651C371.185 98.2553 368.468 94.2142 366.498 89.5279C364.529 84.7737 363.544 79.544 363.544 73.8389C363.544 68.0659 364.529 62.8702 366.498 58.2518C368.468 53.5654 371.185 49.5923 374.648 46.3322C378.18 43.0721 382.323 40.5592 387.077 38.7933C391.899 37.0275 397.129 36.1445 402.766 36.1445C408.403 36.1445 413.632 37.0275 418.454 38.7933C423.276 40.5592 427.419 43.0721 430.883 46.3322C434.415 49.5923 437.165 53.5654 439.135 58.2518C441.104 62.8702 442.089 68.0659 442.089 73.8389ZM423.446 73.8389C423.446 70.7147 422.937 67.7942 421.918 65.0775C420.899 62.3608 419.473 60.0516 417.639 58.1499C415.873 56.1803 413.7 54.6521 411.119 53.5654C408.606 52.4108 405.822 51.8335 402.766 51.8335C399.709 51.8335 396.925 52.4108 394.412 53.5654C391.899 54.6521 389.726 56.1803 387.892 58.1499C386.058 60.0516 384.632 62.3608 383.613 65.0775C382.662 67.7942 382.187 70.7147 382.187 73.8389C382.187 77.099 382.696 80.1213 383.715 82.9059C384.734 85.6226 386.126 87.9658 387.892 89.9354C389.726 91.905 391.899 93.4671 394.412 94.6217C396.925 95.7084 399.709 96.2518 402.766 96.2518C405.822 96.2518 408.606 95.7084 411.119 94.6217C413.632 93.4671 415.806 91.905 417.639 89.9354C419.473 87.9658 420.899 85.6226 421.918 82.9059C422.937 80.1213 423.446 77.099 423.446 73.8389Z" fill="white"/>
<path d="M492.169 110.209L476.582 81.5815H470.674V110.209H453.559V38.0802H481.065C484.528 38.0802 487.89 38.4537 491.15 39.2008C494.478 39.88 497.432 41.0686 500.013 42.7665C502.662 44.4645 504.767 46.7057 506.329 49.4904C507.892 52.275 508.673 55.7388 508.673 59.8818C508.673 64.7719 507.348 68.8809 504.699 72.2089C502.051 75.5368 498.383 77.914 493.697 79.3402L512.544 110.209H492.169ZM491.456 60.1874C491.456 58.4895 491.082 57.1311 490.335 56.1124C489.656 55.0257 488.739 54.2107 487.585 53.6673C486.498 53.0561 485.241 52.6486 483.815 52.4448C482.457 52.241 481.133 52.1392 479.842 52.1392H470.572V68.9488H478.823C480.25 68.9488 481.71 68.8469 483.204 68.6432C484.698 68.3715 486.056 67.9301 487.279 67.3188C488.501 66.7075 489.486 65.8246 490.233 64.67C491.048 63.5154 491.456 62.0212 491.456 60.1874Z" fill="white"/>
<path d="M566.953 110.209L537.919 63.04H537.614L538.021 110.209H521.11V38.0802H540.975L569.908 85.1472H570.213L569.806 38.0802H586.717V110.209H566.953Z" fill="white"/>
<path d="M239.288 150.581C239.288 152.549 238.94 154.361 238.244 156.017C237.572 157.649 236.636 159.065 235.436 160.265C234.236 161.441 232.808 162.365 231.152 163.037C229.496 163.685 227.696 164.009 225.752 164.009C223.808 164.009 222.008 163.685 220.352 163.037C218.72 162.365 217.304 161.441 216.104 160.265C214.904 159.065 213.968 157.649 213.296 156.017C212.624 154.361 212.288 152.549 212.288 150.581C212.288 148.589 212.624 146.777 213.296 145.145C213.968 143.489 214.904 142.085 216.104 140.933C217.304 139.757 218.72 138.845 220.352 138.197C222.008 137.549 223.808 137.225 225.752 137.225C227.696 137.225 229.496 137.549 231.152 138.197C232.808 138.845 234.236 139.757 235.436 140.933C236.636 142.085 237.572 143.489 238.244 145.145C238.94 146.777 239.288 148.589 239.288 150.581ZM235.436 150.581C235.436 149.189 235.208 147.881 234.752 146.657C234.296 145.409 233.648 144.317 232.808 143.381C231.968 142.445 230.948 141.713 229.748 141.185C228.572 140.633 227.24 140.357 225.752 140.357C224.288 140.357 222.956 140.633 221.756 141.185C220.58 141.713 219.572 142.445 218.732 143.381C217.916 144.317 217.28 145.409 216.824 146.657C216.368 147.881 216.14 149.189 216.14 150.581C216.14 151.997 216.368 153.329 216.824 154.577C217.28 155.825 217.928 156.917 218.768 157.853C219.608 158.765 220.616 159.485 221.792 160.013C222.968 160.541 224.288 160.805 225.752 160.805C227.216 160.805 228.548 160.541 229.748 160.013C230.948 159.485 231.968 158.765 232.808 157.853C233.648 156.917 234.296 155.825 234.752 154.577C235.208 153.329 235.436 151.997 235.436 150.581Z" fill="white"/>
<path d="M247.015 146.297C247.063 146.729 247.099 147.221 247.123 147.773C247.147 148.301 247.159 148.745 247.159 149.105H247.267C247.483 148.649 247.771 148.229 248.131 147.845C248.515 147.437 248.947 147.089 249.427 146.801C249.907 146.489 250.435 146.249 251.011 146.081C251.587 145.913 252.187 145.829 252.811 145.829C253.915 145.829 254.863 146.021 255.655 146.405C256.447 146.765 257.107 147.257 257.635 147.881C258.163 148.505 258.547 149.237 258.787 150.077C259.051 150.917 259.183 151.817 259.183 152.777V163.361H255.799V153.893C255.799 153.197 255.739 152.537 255.619 151.913C255.523 151.289 255.331 150.737 255.043 150.257C254.755 149.777 254.359 149.393 253.855 149.105C253.351 148.817 252.703 148.673 251.911 148.673C250.567 148.673 249.463 149.189 248.599 150.221C247.759 151.229 247.339 152.585 247.339 154.289V163.361H243.955V149.969C243.955 149.513 243.943 148.925 243.919 148.205C243.895 147.485 243.859 146.849 243.811 146.297H247.015Z" fill="white"/>
<path d="M283.124 150.617C282.74 149.993 282.2 149.489 281.504 149.105C280.808 148.697 280.028 148.493 279.164 148.493C278.78 148.493 278.396 148.541 278.012 148.637C277.628 148.709 277.28 148.841 276.968 149.033C276.68 149.201 276.44 149.429 276.248 149.717C276.08 149.981 275.996 150.317 275.996 150.725C275.996 151.445 276.32 151.985 276.968 152.345C277.616 152.681 278.588 152.993 279.884 153.281C280.7 153.473 281.456 153.701 282.152 153.965C282.848 154.229 283.448 154.565 283.952 154.973C284.48 155.357 284.888 155.825 285.176 156.377C285.464 156.929 285.608 157.577 285.608 158.321C285.608 159.329 285.416 160.181 285.032 160.877C284.648 161.573 284.132 162.149 283.484 162.605C282.86 163.037 282.14 163.349 281.324 163.541C280.508 163.733 279.668 163.829 278.804 163.829C277.508 163.829 276.236 163.577 274.988 163.073C273.764 162.569 272.744 161.801 271.928 160.769L274.34 158.717C274.796 159.389 275.42 159.953 276.212 160.409C277.028 160.865 277.916 161.093 278.876 161.093C279.308 161.093 279.716 161.057 280.1 160.985C280.508 160.889 280.868 160.745 281.18 160.553C281.516 160.361 281.78 160.109 281.972 159.797C282.164 159.485 282.26 159.089 282.26 158.609C282.26 157.817 281.876 157.229 281.108 156.845C280.364 156.461 279.26 156.101 277.796 155.765C277.22 155.621 276.632 155.453 276.032 155.261C275.456 155.045 274.928 154.757 274.448 154.397C273.968 154.037 273.572 153.593 273.26 153.065C272.972 152.513 272.828 151.841 272.828 151.049C272.828 150.137 273.008 149.357 273.368 148.709C273.752 148.037 274.244 147.497 274.844 147.089C275.444 146.657 276.128 146.345 276.896 146.153C277.664 145.937 278.456 145.829 279.272 145.829C280.496 145.829 281.672 146.069 282.8 146.549C283.952 147.029 284.84 147.725 285.464 148.637L283.124 150.617Z" fill="white"/>
<path d="M302.396 153.317C302.372 152.645 302.252 152.021 302.036 151.445C301.844 150.845 301.544 150.329 301.136 149.897C300.752 149.465 300.26 149.129 299.66 148.889C299.084 148.625 298.4 148.493 297.608 148.493C296.888 148.493 296.204 148.625 295.556 148.889C294.932 149.129 294.38 149.465 293.9 149.897C293.444 150.329 293.06 150.845 292.748 151.445C292.46 152.021 292.292 152.645 292.244 153.317H302.396ZM305.816 154.685C305.816 154.877 305.816 155.069 305.816 155.261C305.816 155.453 305.804 155.645 305.78 155.837H292.244C292.268 156.557 292.424 157.241 292.712 157.889C293.024 158.513 293.432 159.065 293.936 159.545C294.44 160.001 295.016 160.361 295.664 160.625C296.336 160.889 297.044 161.021 297.788 161.021C298.94 161.021 299.936 160.769 300.776 160.265C301.616 159.761 302.276 159.149 302.756 158.429L305.132 160.337C304.22 161.537 303.14 162.425 301.892 163.001C300.668 163.553 299.3 163.829 297.788 163.829C296.492 163.829 295.292 163.613 294.188 163.181C293.084 162.749 292.136 162.149 291.344 161.381C290.552 160.589 289.928 159.641 289.472 158.537C289.016 157.433 288.788 156.209 288.788 154.865C288.788 153.545 289.004 152.333 289.436 151.229C289.892 150.101 290.516 149.141 291.308 148.349C292.1 147.557 293.036 146.945 294.116 146.513C295.196 146.057 296.36 145.829 297.608 145.829C298.856 145.829 299.984 146.033 300.992 146.441C302.024 146.849 302.888 147.437 303.584 148.205C304.304 148.973 304.856 149.909 305.24 151.013C305.624 152.093 305.816 153.317 305.816 154.685Z" fill="white"/>
<path d="M331.493 150.617C331.133 150.065 330.593 149.609 329.873 149.249C329.153 148.865 328.385 148.673 327.569 148.673C326.681 148.673 325.889 148.841 325.193 149.177C324.521 149.513 323.945 149.969 323.465 150.545C322.985 151.097 322.613 151.745 322.349 152.489C322.109 153.233 321.989 154.013 321.989 154.829C321.989 155.645 322.109 156.425 322.349 157.169C322.613 157.913 322.985 158.573 323.465 159.149C323.945 159.701 324.533 160.145 325.229 160.481C325.925 160.817 326.717 160.985 327.605 160.985C328.469 160.985 329.249 160.817 329.945 160.481C330.665 160.145 331.253 159.689 331.709 159.113L333.977 161.165C333.257 162.005 332.357 162.665 331.277 163.145C330.197 163.601 328.973 163.829 327.605 163.829C326.285 163.829 325.061 163.613 323.933 163.181C322.829 162.749 321.869 162.149 321.053 161.381C320.237 160.589 319.589 159.641 319.109 158.537C318.653 157.433 318.425 156.197 318.425 154.829C318.425 153.485 318.653 152.261 319.109 151.157C319.565 150.053 320.201 149.105 321.017 148.313C321.833 147.521 322.793 146.909 323.897 146.477C325.025 146.045 326.237 145.829 327.533 145.829C328.733 145.829 329.921 146.069 331.097 146.549C332.297 147.029 333.245 147.725 333.941 148.637L331.493 150.617Z" fill="white"/>
<path d="M340.858 148.889C341.266 148.049 341.962 147.329 342.946 146.729C343.93 146.129 345.034 145.829 346.258 145.829C347.362 145.829 348.31 146.021 349.102 146.405C349.894 146.765 350.554 147.257 351.082 147.881C351.61 148.505 351.994 149.237 352.234 150.077C352.498 150.917 352.63 151.817 352.63 152.777V163.361H349.246V153.929C349.246 153.233 349.186 152.573 349.066 151.949C348.97 151.325 348.778 150.773 348.49 150.293C348.202 149.813 347.806 149.429 347.302 149.141C346.822 148.853 346.186 148.709 345.394 148.709C344.05 148.709 342.946 149.225 342.082 150.257C341.218 151.265 340.786 152.621 340.786 154.325V163.361H337.402V136.145H340.786V148.889H340.858Z" fill="white"/>
<path d="M368.973 152.309C368.973 151.037 368.589 150.101 367.821 149.501C367.053 148.877 366.033 148.565 364.761 148.565C363.801 148.565 362.889 148.757 362.025 149.141C361.185 149.501 360.477 149.969 359.901 150.545L358.101 148.385C358.941 147.593 359.961 146.969 361.161 146.513C362.385 146.057 363.693 145.829 365.085 145.829C366.309 145.829 367.365 146.009 368.253 146.369C369.165 146.705 369.909 147.173 370.485 147.773C371.061 148.373 371.493 149.081 371.781 149.897C372.069 150.713 372.213 151.589 372.213 152.525V159.977C372.213 160.553 372.225 161.165 372.249 161.813C372.297 162.437 372.369 162.953 372.465 163.361H369.405C369.213 162.545 369.117 161.729 369.117 160.913H369.009C368.385 161.825 367.593 162.533 366.633 163.037C365.697 163.541 364.581 163.793 363.285 163.793C362.613 163.793 361.905 163.697 361.161 163.505C360.441 163.337 359.781 163.049 359.181 162.641C358.581 162.233 358.077 161.693 357.669 161.021C357.285 160.349 357.093 159.521 357.093 158.537C357.093 157.241 357.441 156.221 358.137 155.477C358.833 154.709 359.745 154.133 360.873 153.749C362.001 153.341 363.273 153.077 364.689 152.957C366.105 152.837 367.533 152.777 368.973 152.777V152.309ZM368.145 155.225C367.305 155.225 366.429 155.261 365.517 155.333C364.629 155.405 363.813 155.549 363.069 155.765C362.349 155.981 361.749 156.305 361.269 156.737C360.789 157.169 360.549 157.745 360.549 158.465C360.549 158.969 360.645 159.389 360.837 159.725C361.053 160.061 361.329 160.337 361.665 160.553C362.001 160.769 362.373 160.925 362.781 161.021C363.189 161.093 363.609 161.129 364.041 161.129C365.625 161.129 366.837 160.661 367.677 159.725C368.541 158.765 368.973 157.565 368.973 156.125V155.225H368.145Z" fill="white"/>
<path d="M377.865 149.969C377.865 149.513 377.853 148.925 377.829 148.205C377.805 147.485 377.769 146.849 377.721 146.297H380.925C380.973 146.729 381.009 147.233 381.033 147.809C381.057 148.361 381.069 148.817 381.069 149.177H381.177C381.657 148.169 382.353 147.365 383.265 146.765C384.201 146.141 385.245 145.829 386.397 145.829C386.925 145.829 387.369 145.877 387.729 145.973L387.585 149.105C387.105 148.985 386.589 148.925 386.037 148.925C385.221 148.925 384.513 149.081 383.913 149.393C383.313 149.681 382.809 150.077 382.401 150.581C382.017 151.085 381.729 151.673 381.537 152.345C381.345 152.993 381.249 153.677 381.249 154.397V163.361H377.865V149.969Z" fill="white"/>
<path d="M391.607 166.277C392.351 167.117 393.275 167.789 394.379 168.293C395.507 168.797 396.659 169.049 397.835 169.049C398.963 169.049 399.911 168.881 400.679 168.545C401.447 168.233 402.059 167.789 402.515 167.213C402.995 166.661 403.331 166.001 403.523 165.233C403.739 164.465 403.847 163.637 403.847 162.749V160.553H403.775C403.151 161.513 402.299 162.245 401.219 162.749C400.139 163.253 398.987 163.505 397.763 163.505C396.467 163.505 395.279 163.277 394.199 162.821C393.143 162.365 392.243 161.741 391.499 160.949C390.755 160.157 390.179 159.233 389.771 158.177C389.363 157.097 389.159 155.945 389.159 154.721C389.159 153.497 389.363 152.345 389.771 151.265C390.179 150.185 390.755 149.249 391.499 148.457C392.243 147.641 393.143 147.005 394.199 146.549C395.255 146.069 396.431 145.829 397.727 145.829C398.951 145.829 400.115 146.093 401.219 146.621C402.347 147.149 403.235 147.953 403.883 149.033H403.955V146.297H407.231V162.497C407.231 163.745 407.075 164.933 406.763 166.061C406.451 167.213 405.923 168.221 405.179 169.085C404.435 169.973 403.463 170.681 402.263 171.209C401.063 171.737 399.575 172.001 397.799 172.001C396.311 172.001 394.811 171.725 393.299 171.173C391.811 170.645 390.527 169.889 389.447 168.905L391.607 166.277ZM392.651 154.649C392.651 155.441 392.771 156.197 393.011 156.917C393.275 157.637 393.647 158.273 394.127 158.825C394.631 159.377 395.231 159.821 395.927 160.157C396.623 160.493 397.415 160.661 398.303 160.661C399.167 160.661 399.959 160.505 400.679 160.193C401.399 159.881 402.011 159.461 402.515 158.933C403.019 158.381 403.403 157.745 403.667 157.025C403.955 156.281 404.099 155.489 404.099 154.649C404.099 153.833 403.955 153.065 403.667 152.345C403.403 151.625 403.007 150.989 402.479 150.437C401.975 149.885 401.363 149.453 400.643 149.141C399.947 148.805 399.167 148.637 398.303 148.637C397.415 148.637 396.623 148.805 395.927 149.141C395.231 149.453 394.631 149.885 394.127 150.437C393.647 150.965 393.275 151.601 393.011 152.345C392.771 153.065 392.651 153.833 392.651 154.649Z" fill="white"/>
<path d="M425.513 153.317C425.489 152.645 425.369 152.021 425.153 151.445C424.961 150.845 424.661 150.329 424.253 149.897C423.869 149.465 423.377 149.129 422.777 148.889C422.201 148.625 421.517 148.493 420.725 148.493C420.005 148.493 419.321 148.625 418.673 148.889C418.049 149.129 417.497 149.465 417.017 149.897C416.561 150.329 416.177 150.845 415.865 151.445C415.577 152.021 415.409 152.645 415.361 153.317H425.513ZM428.933 154.685C428.933 154.877 428.933 155.069 428.933 155.261C428.933 155.453 428.921 155.645 428.897 155.837H415.361C415.385 156.557 415.541 157.241 415.829 157.889C416.141 158.513 416.549 159.065 417.053 159.545C417.557 160.001 418.133 160.361 418.781 160.625C419.453 160.889 420.161 161.021 420.905 161.021C422.057 161.021 423.053 160.769 423.893 160.265C424.733 159.761 425.393 159.149 425.873 158.429L428.249 160.337C427.337 161.537 426.257 162.425 425.009 163.001C423.785 163.553 422.417 163.829 420.905 163.829C419.609 163.829 418.409 163.613 417.305 163.181C416.201 162.749 415.253 162.149 414.461 161.381C413.669 160.589 413.045 159.641 412.589 158.537C412.133 157.433 411.905 156.209 411.905 154.865C411.905 153.545 412.121 152.333 412.553 151.229C413.009 150.101 413.633 149.141 414.425 148.349C415.217 147.557 416.153 146.945 417.233 146.513C418.313 146.057 419.477 145.829 420.725 145.829C421.973 145.829 423.101 146.033 424.109 146.441C425.141 146.849 426.005 147.437 426.701 148.205C427.421 148.973 427.973 149.909 428.357 151.013C428.741 152.093 428.933 153.317 428.933 154.685Z" fill="white"/>
<path d="M456.266 160.661C455.618 161.693 454.73 162.485 453.602 163.037C452.498 163.565 451.334 163.829 450.11 163.829C448.79 163.829 447.602 163.601 446.546 163.145C445.49 162.665 444.59 162.017 443.846 161.201C443.102 160.385 442.526 159.425 442.118 158.321C441.71 157.217 441.506 156.041 441.506 154.793C441.506 153.545 441.71 152.381 442.118 151.301C442.526 150.197 443.102 149.237 443.846 148.421C444.614 147.605 445.526 146.969 446.582 146.513C447.638 146.057 448.802 145.829 450.074 145.829C451.466 145.829 452.678 146.129 453.71 146.729C454.742 147.305 455.558 148.013 456.158 148.853H456.23V136.145H459.614V163.361H456.338V160.661H456.266ZM445.034 154.793C445.034 155.585 445.154 156.353 445.394 157.097C445.634 157.841 445.994 158.501 446.474 159.077C446.954 159.653 447.542 160.121 448.238 160.481C448.934 160.817 449.75 160.985 450.686 160.985C451.55 160.985 452.33 160.817 453.026 160.481C453.746 160.145 454.358 159.701 454.862 159.149C455.366 158.573 455.75 157.913 456.014 157.169C456.302 156.425 456.446 155.645 456.446 154.829C456.446 154.013 456.302 153.233 456.014 152.489C455.75 151.745 455.366 151.085 454.862 150.509C454.358 149.933 453.746 149.477 453.026 149.141C452.33 148.805 451.55 148.637 450.686 148.637C449.75 148.637 448.934 148.805 448.238 149.141C447.542 149.477 446.954 149.933 446.474 150.509C445.994 151.085 445.634 151.745 445.394 152.489C445.154 153.233 445.034 154.001 445.034 154.793Z" fill="white"/>
<path d="M478.002 153.317C477.978 152.645 477.858 152.021 477.642 151.445C477.45 150.845 477.15 150.329 476.742 149.897C476.358 149.465 475.866 149.129 475.266 148.889C474.69 148.625 474.006 148.493 473.214 148.493C472.494 148.493 471.81 148.625 471.162 148.889C470.538 149.129 469.986 149.465 469.506 149.897C469.05 150.329 468.666 150.845 468.354 151.445C468.066 152.021 467.898 152.645 467.85 153.317H478.002ZM481.422 154.685C481.422 154.877 481.422 155.069 481.422 155.261C481.422 155.453 481.41 155.645 481.386 155.837H467.85C467.874 156.557 468.03 157.241 468.318 157.889C468.63 158.513 469.038 159.065 469.542 159.545C470.046 160.001 470.622 160.361 471.27 160.625C471.942 160.889 472.65 161.021 473.394 161.021C474.546 161.021 475.542 160.769 476.382 160.265C477.222 159.761 477.882 159.149 478.362 158.429L480.738 160.337C479.826 161.537 478.746 162.425 477.498 163.001C476.274 163.553 474.906 163.829 473.394 163.829C472.098 163.829 470.898 163.613 469.794 163.181C468.69 162.749 467.742 162.149 466.95 161.381C466.158 160.589 465.534 159.641 465.078 158.537C464.622 157.433 464.394 156.209 464.394 154.865C464.394 153.545 464.61 152.333 465.042 151.229C465.498 150.101 466.122 149.141 466.914 148.349C467.706 147.557 468.642 146.945 469.722 146.513C470.802 146.057 471.966 145.829 473.214 145.829C474.462 145.829 475.59 146.033 476.598 146.441C477.63 146.849 478.494 147.437 479.19 148.205C479.91 148.973 480.462 149.909 480.846 151.013C481.23 152.093 481.422 153.317 481.422 154.685Z" fill="white"/>
<path d="M503.174 163.361H499.502L492.554 146.297H496.298L501.302 159.725H501.374L506.414 146.297H510.014L503.174 163.361Z" fill="white"/>
<path d="M530.567 154.793C530.567 156.113 530.327 157.325 529.847 158.429C529.391 159.533 528.743 160.493 527.903 161.309C527.087 162.101 526.115 162.725 524.987 163.181C523.859 163.613 522.647 163.829 521.351 163.829C520.055 163.829 518.843 163.613 517.715 163.181C516.587 162.725 515.615 162.101 514.799 161.309C513.983 160.493 513.335 159.533 512.855 158.429C512.399 157.325 512.171 156.113 512.171 154.793C512.171 153.473 512.399 152.273 512.855 151.193C513.335 150.089 513.983 149.141 514.799 148.349C515.615 147.557 516.587 146.945 517.715 146.513C518.843 146.057 520.055 145.829 521.351 145.829C522.647 145.829 523.859 146.057 524.987 146.513C526.115 146.945 527.087 147.557 527.903 148.349C528.743 149.141 529.391 150.089 529.847 151.193C530.327 152.273 530.567 153.473 530.567 154.793ZM527.039 154.793C527.039 153.977 526.907 153.197 526.643 152.453C526.403 151.709 526.043 151.061 525.563 150.509C525.083 149.933 524.483 149.477 523.763 149.141C523.067 148.805 522.263 148.637 521.351 148.637C520.439 148.637 519.623 148.805 518.903 149.141C518.207 149.477 517.619 149.933 517.139 150.509C516.659 151.061 516.287 151.709 516.023 152.453C515.783 153.197 515.663 153.977 515.663 154.793C515.663 155.609 515.783 156.389 516.023 157.133C516.287 157.877 516.659 158.537 517.139 159.113C517.619 159.689 518.207 160.145 518.903 160.481C519.623 160.817 520.439 160.985 521.351 160.985C522.263 160.985 523.067 160.817 523.763 160.481C524.483 160.145 525.083 159.689 525.563 159.113C526.043 158.537 526.403 157.877 526.643 157.133C526.907 156.389 527.039 155.609 527.039 154.793Z" fill="white"/>
<path d="M547.284 163.361C547.236 162.929 547.2 162.449 547.176 161.921C547.152 161.369 547.14 160.913 547.14 160.553H547.068C546.636 161.465 545.904 162.245 544.872 162.893C543.864 163.517 542.736 163.829 541.488 163.829C540.384 163.829 539.424 163.649 538.608 163.289C537.816 162.929 537.156 162.437 536.628 161.813C536.124 161.165 535.74 160.421 535.476 159.581C535.236 158.741 535.116 157.841 535.116 156.881V146.297H538.5V155.729C538.5 156.425 538.548 157.097 538.644 157.745C538.764 158.369 538.968 158.921 539.256 159.401C539.544 159.881 539.94 160.265 540.444 160.553C540.948 160.841 541.596 160.985 542.388 160.985C543.756 160.985 544.86 160.481 545.7 159.473C546.54 158.441 546.96 157.073 546.96 155.369V146.297H550.344V159.689C550.344 160.145 550.356 160.733 550.38 161.453C550.404 162.173 550.44 162.809 550.488 163.361H547.284Z" fill="white"/>
<path d="M565.429 150.617C565.045 149.993 564.505 149.489 563.809 149.105C563.113 148.697 562.333 148.493 561.469 148.493C561.085 148.493 560.701 148.541 560.317 148.637C559.933 148.709 559.585 148.841 559.273 149.033C558.985 149.201 558.745 149.429 558.553 149.717C558.385 149.981 558.301 150.317 558.301 150.725C558.301 151.445 558.625 151.985 559.273 152.345C559.921 152.681 560.893 152.993 562.189 153.281C563.005 153.473 563.761 153.701 564.457 153.965C565.153 154.229 565.753 154.565 566.257 154.973C566.785 155.357 567.193 155.825 567.481 156.377C567.769 156.929 567.913 157.577 567.913 158.321C567.913 159.329 567.721 160.181 567.337 160.877C566.953 161.573 566.437 162.149 565.789 162.605C565.165 163.037 564.445 163.349 563.629 163.541C562.813 163.733 561.973 163.829 561.109 163.829C559.813 163.829 558.541 163.577 557.293 163.073C556.069 162.569 555.049 161.801 554.233 160.769L556.645 158.717C557.101 159.389 557.725 159.953 558.517 160.409C559.333 160.865 560.221 161.093 561.181 161.093C561.613 161.093 562.021 161.057 562.405 160.985C562.813 160.889 563.173 160.745 563.485 160.553C563.821 160.361 564.085 160.109 564.277 159.797C564.469 159.485 564.565 159.089 564.565 158.609C564.565 157.817 564.181 157.229 563.413 156.845C562.669 156.461 561.565 156.101 560.101 155.765C559.525 155.621 558.937 155.453 558.337 155.261C557.761 155.045 557.233 154.757 556.753 154.397C556.273 154.037 555.877 153.593 555.565 153.065C555.277 152.513 555.133 151.841 555.133 151.049C555.133 150.137 555.313 149.357 555.673 148.709C556.057 148.037 556.549 147.497 557.149 147.089C557.749 146.657 558.433 146.345 559.201 146.153C559.969 145.937 560.761 145.829 561.577 145.829C562.801 145.829 563.977 146.069 565.105 146.549C566.257 147.029 567.145 147.725 567.769 148.637L565.429 150.617Z" fill="white"/>
<path d="M586.069 155.909H582.505V137.873H586.069V155.909ZM586.717 161.201C586.717 161.825 586.489 162.377 586.033 162.857C585.577 163.337 585.001 163.577 584.305 163.577C583.633 163.577 583.057 163.349 582.577 162.893C582.121 162.413 581.893 161.861 581.893 161.237C581.893 160.589 582.121 160.037 582.577 159.581C583.033 159.101 583.609 158.861 584.305 158.861C585.001 158.861 585.577 159.089 586.033 159.545C586.489 160.001 586.717 160.553 586.717 161.201Z" fill="white"/>
<path d="M632.108 69.7864C632.108 66.2826 634.948 63.4422 638.452 63.4422H656.149V76.1306H638.452C634.948 76.1306 632.108 73.2902 632.108 69.7864Z" fill="white"/>
<path d="M632.108 102.509C632.108 99.0054 634.948 96.165 638.452 96.165H656.149V108.853H638.452C634.948 108.853 632.108 106.013 632.108 102.509Z" fill="white"/>
<path d="M598.717 86.0017C598.717 133.42 637.321 172 684.774 172C707.685 172 729.247 163.106 745.483 146.961C755.1 137.395 762.401 125.563 766.589 112.739C766.87 111.883 767.006 111.013 767.006 110.161C767.006 106.676 764.783 103.434 761.284 102.29C756.933 100.871 752.255 103.247 750.836 107.591C747.452 117.938 741.556 127.49 733.786 135.215C720.676 148.251 703.271 155.43 684.774 155.43C646.462 155.43 615.294 124.283 615.294 85.9983C615.294 47.7103 646.462 16.5631 684.774 16.5631C703.341 16.5631 720.777 23.7804 733.897 36.8862C738.419 41.9157 747.504 54.3989 747.504 61.8944C747.504 65.7448 746.29 68.6212 743.688 70.962C737.08 76.8889 723.699 78.1862 714.381 78.1341C713.657 63.7587 701.797 52.3155 687.23 52.3155H661.436V119.685H687.23C701.508 119.685 713.198 108.693 714.339 94.7146C725.445 94.8016 743.646 93.2433 754.735 83.3131C760.85 77.8384 764.081 70.4334 764.081 61.8944C764.081 45.8704 747.883 27.6307 746.039 25.6064L745.789 25.3386C729.518 8.99808 707.849 0 684.774 0C637.321 0 598.717 38.5801 598.717 86.0017Z" fill="#02B5A1"/>
<path d="M660.824 51.4216H683.529C702.708 51.4216 718.256 66.969 718.256 86.1478C718.256 105.327 702.708 120.874 683.529 120.874H660.824V51.4216Z" fill="white"/>
</svg>
