<svg width="261" height="58" viewBox="0 0 261 58" fill="none" xmlns="http://www.w3.org/2000/svg">
<path d="M0 36.9365V12.3492H5.97302V36.9365H0Z" fill="#03252F"/>
<path d="M26.6827 36.9365L16.7855 20.8575H16.6814L16.8203 36.9365H11.0556V12.3492H17.8273L27.6898 28.3934H27.7939L27.655 12.3492H33.4197V36.9365H26.6827Z" fill="#03252F"/>
<path d="M51.479 18.7391C50.9697 18.0909 50.2983 17.5816 49.4649 17.2111C48.6546 16.8175 47.8674 16.6208 47.1034 16.6208C46.7099 16.6208 46.3047 16.6555 45.888 16.7249C45.4944 16.7944 45.1356 16.9333 44.8115 17.1417C44.4873 17.3269 44.2095 17.5816 43.978 17.9057C43.7697 18.2066 43.6655 18.6002 43.6655 19.0864C43.6655 19.5032 43.7465 19.8504 43.9086 20.1282C44.0938 20.4061 44.3484 20.6492 44.6726 20.8575C45.0198 21.0659 45.425 21.2627 45.888 21.4479C46.351 21.61 46.8719 21.7836 47.4507 21.9688C48.2841 22.2466 49.1523 22.5592 50.0552 22.9065C50.9581 23.2306 51.78 23.6705 52.5208 24.2261C53.2617 24.7818 53.8752 25.4763 54.3613 26.3098C54.8475 27.1201 55.0906 28.1388 55.0906 29.3658C55.0906 30.7781 54.8244 32.0051 54.2919 33.047C53.7826 34.0656 53.088 34.9107 52.2083 35.5821C51.3285 36.2535 50.3214 36.7513 49.187 37.0754C48.0526 37.3995 46.8835 37.5616 45.6796 37.5616C43.9201 37.5616 42.2185 37.2606 40.5748 36.6586C38.931 36.0335 37.5651 35.1538 36.477 34.0193L40.3664 30.0604C40.9684 30.8012 41.7555 31.4263 42.7278 31.9357C43.7234 32.4219 44.7073 32.665 45.6796 32.665C46.1195 32.665 46.5478 32.6186 46.9645 32.526C47.3812 32.4334 47.7401 32.2829 48.0411 32.0746C48.3652 31.8662 48.6198 31.5884 48.805 31.2411C48.9903 30.8938 49.0829 30.4771 49.0829 29.9909C49.0829 29.5279 48.9671 29.1343 48.7356 28.8102C48.5041 28.4861 48.1684 28.1967 47.7285 27.942C47.3118 27.6642 46.7793 27.4211 46.1311 27.2127C45.506 26.9812 44.7883 26.7381 43.978 26.4834C43.1909 26.2288 42.4153 25.9278 41.6513 25.5805C40.9105 25.2332 40.2391 24.7933 39.6372 24.2608C39.0584 23.7052 38.5838 23.0454 38.2134 22.2814C37.8661 21.4942 37.6925 20.545 37.6925 19.4337C37.6925 18.0677 37.9703 16.8986 38.5259 15.9262C39.0815 14.9538 39.8108 14.1551 40.7137 13.53C41.6166 12.9049 42.6352 12.4534 43.7696 12.1756C44.9041 11.8746 46.05 11.7241 47.2076 11.7241C48.5967 11.7241 50.0089 11.9788 51.4443 12.4882C52.9028 12.9975 54.1761 13.7499 55.2642 14.7455L51.479 18.7391Z" fill="#03252F"/>
<path d="M69.0899 17.4195V36.9365H63.1516V17.4195H56.2062V12.3492H76.0352V17.4195H69.0899Z" fill="#03252F"/>
<path d="M93.346 36.9365L91.436 32.1093H81.9209L80.1151 36.9365H73.6559L83.9698 12.3492H89.7344L99.9441 36.9365H93.346ZM86.7479 18.9128L83.6225 27.3516H89.8039L86.7479 18.9128Z" fill="#03252F"/>
<path d="M121.145 29.7826C121.145 31.1254 120.879 32.2598 120.347 33.1859C119.814 34.0888 119.108 34.8181 118.228 35.3737C117.349 35.9294 116.341 36.3345 115.207 36.5892C114.096 36.8207 112.95 36.9365 111.769 36.9365H101.976V12.3492H111.769C112.718 12.3492 113.691 12.4534 114.686 12.6618C115.682 12.847 116.585 13.1827 117.395 13.6689C118.205 14.1319 118.865 14.7686 119.374 15.5789C119.884 16.3892 120.138 17.4195 120.138 18.6697C120.138 20.0356 119.768 21.1701 119.027 22.073C118.286 22.9528 117.314 23.5894 116.11 23.983V24.0525C116.805 24.1682 117.453 24.3882 118.055 24.7123C118.68 25.0133 119.212 25.4069 119.652 25.893C120.115 26.3792 120.474 26.9465 120.729 27.5947C121.006 28.243 121.145 28.9722 121.145 29.7826ZM114.408 19.4684C114.408 18.635 114.084 18.033 113.436 17.6626C112.811 17.269 111.873 17.0722 110.623 17.0722H107.706V22.1425H110.901C112.012 22.1425 112.869 21.9225 113.471 21.4826C114.096 21.0196 114.408 20.3482 114.408 19.4684ZM115.207 29.2269C115.207 28.2082 114.825 27.5021 114.061 27.1085C113.297 26.7149 112.278 26.5181 111.005 26.5181H107.706V32.144H111.04C111.503 32.144 111.977 32.1093 112.464 32.0399C112.973 31.9472 113.424 31.7968 113.818 31.5884C114.235 31.38 114.57 31.0906 114.825 30.7202C115.08 30.3266 115.207 29.8289 115.207 29.2269Z" fill="#03252F"/>
<path d="M150.699 24.5387C150.699 26.4834 150.364 28.2661 149.692 29.8867C149.021 31.4842 148.083 32.8617 146.879 34.0193C145.699 35.1538 144.286 36.0335 142.643 36.6586C140.999 37.2837 139.216 37.5963 137.295 37.5963C135.373 37.5963 133.591 37.2837 131.947 36.6586C130.326 36.0335 128.914 35.1538 127.71 34.0193C126.529 32.8617 125.603 31.4842 124.932 29.8867C124.261 28.2661 123.925 26.4834 123.925 24.5387C123.925 22.5708 124.261 20.7997 124.932 19.2253C125.603 17.6279 126.529 16.2735 127.71 15.1622C128.914 14.0509 130.326 13.1943 131.947 12.5923C133.591 11.9904 135.373 11.6894 137.295 11.6894C139.216 11.6894 140.999 11.9904 142.643 12.5923C144.286 13.1943 145.699 14.0509 146.879 15.1622C148.083 16.2735 149.021 17.6279 149.692 19.2253C150.364 20.7997 150.699 22.5708 150.699 24.5387ZM144.344 24.5387C144.344 23.4737 144.171 22.4782 143.823 21.5521C143.476 20.626 142.99 19.8389 142.365 19.1906C141.763 18.5192 141.022 17.9983 140.142 17.6279C139.286 17.2343 138.337 17.0375 137.295 17.0375C136.253 17.0375 135.304 17.2343 134.447 17.6279C133.591 17.9983 132.85 18.5192 132.225 19.1906C131.6 19.8389 131.113 20.626 130.766 21.5521C130.442 22.4782 130.28 23.4737 130.28 24.5387C130.28 25.65 130.454 26.6802 130.801 27.6294C131.148 28.5555 131.623 29.3542 132.225 30.0256C132.85 30.697 133.591 31.2295 134.447 31.6231C135.304 31.9935 136.253 32.1788 137.295 32.1788C138.337 32.1788 139.286 31.9935 140.142 31.6231C140.999 31.2295 141.74 30.697 142.365 30.0256C142.99 29.3542 143.476 28.5555 143.823 27.6294C144.171 26.6802 144.344 25.65 144.344 24.5387Z" fill="#03252F"/>
<path d="M167.771 36.9365L162.457 27.178H160.443V36.9365H154.609V12.3492H163.985C165.166 12.3492 166.312 12.4766 167.423 12.7312C168.558 12.9628 169.565 13.3679 170.444 13.9467C171.347 14.5255 172.065 15.2895 172.598 16.2387C173.13 17.188 173.396 18.3687 173.396 19.781C173.396 21.4479 172.945 22.8486 172.042 23.983C171.139 25.1175 169.889 25.9278 168.291 26.414L174.716 36.9365H167.771ZM167.527 19.8852C167.527 19.3064 167.4 18.8433 167.145 18.496C166.914 18.1256 166.601 17.8478 166.208 17.6626C165.837 17.4542 165.409 17.3153 164.923 17.2458C164.46 17.1764 164.008 17.1417 163.569 17.1417H160.408V22.8717H163.221C163.707 22.8717 164.205 22.837 164.715 22.7676C165.224 22.6749 165.687 22.5245 166.104 22.3161C166.52 22.1077 166.856 21.8068 167.111 21.4132C167.389 21.0196 167.527 20.5103 167.527 19.8852Z" fill="#03252F"/>
<path d="M193.263 36.9365L183.366 20.8575H183.262L183.401 36.9365H177.636V12.3492H184.408L194.27 28.3934H194.374L194.235 12.3492H200V36.9365H193.263Z" fill="#03252F"/>
<path d="M81.5685 50.6984C81.5685 51.3692 81.4499 51.9869 81.2127 52.5514C80.9836 53.1077 80.6645 53.5904 80.2555 53.9994C79.8464 54.4003 79.3596 54.7153 78.7951 54.9444C78.2306 55.1652 77.6171 55.2757 76.9544 55.2757C76.2917 55.2757 75.6781 55.1652 75.1136 54.9444C74.5573 54.7153 74.0746 54.4003 73.6656 53.9994C73.2565 53.5904 72.9375 53.1077 72.7084 52.5514C72.4793 51.9869 72.3648 51.3692 72.3648 50.6984C72.3648 50.0193 72.4793 49.4016 72.7084 48.8453C72.9375 48.2808 73.2565 47.8022 73.6656 47.4095C74.0746 47.0087 74.5573 46.6978 75.1136 46.4769C75.6781 46.256 76.2917 46.1456 76.9544 46.1456C77.6171 46.1456 78.2306 46.256 78.7951 46.4769C79.3596 46.6978 79.8464 47.0087 80.2555 47.4095C80.6645 47.8022 80.9836 48.2808 81.2127 48.8453C81.4499 49.4016 81.5685 50.0193 81.5685 50.6984ZM80.2555 50.6984C80.2555 50.2238 80.1777 49.778 80.0223 49.3607C79.8669 48.9353 79.646 48.5631 79.3596 48.244C79.0733 47.9249 78.7256 47.6754 78.3165 47.4954C77.9157 47.3073 77.4616 47.2132 76.9544 47.2132C76.4553 47.2132 76.0013 47.3073 75.5922 47.4954C75.1914 47.6754 74.8477 47.9249 74.5614 48.244C74.2832 48.5631 74.0665 48.9353 73.911 49.3607C73.7556 49.778 73.6778 50.2238 73.6778 50.6984C73.6778 51.181 73.7556 51.6351 73.911 52.0605C74.0665 52.4859 74.2873 52.8582 74.5737 53.1772C74.86 53.4881 75.2036 53.7335 75.6045 53.9135C76.0054 54.0935 76.4553 54.1835 76.9544 54.1835C77.4534 54.1835 77.9075 54.0935 78.3165 53.9135C78.7256 53.7335 79.0733 53.4881 79.3596 53.1772C79.646 52.8582 79.8669 52.4859 80.0223 52.0605C80.1777 51.6351 80.2555 51.181 80.2555 50.6984Z" fill="#03252F"/>
<path d="M84.2024 49.238C84.2188 49.3853 84.2311 49.553 84.2393 49.7412C84.2474 49.9211 84.2515 50.0725 84.2515 50.1952H84.2883C84.362 50.0398 84.4601 49.8966 84.5829 49.7657C84.7138 49.6266 84.861 49.508 85.0246 49.4098C85.1883 49.3035 85.3682 49.2217 85.5646 49.1644C85.7609 49.1071 85.9655 49.0785 86.1782 49.0785C86.5545 49.0785 86.8777 49.1439 87.1476 49.2748C87.4176 49.3976 87.6426 49.5653 87.8226 49.778C88.0026 49.9907 88.1335 50.2402 88.2153 50.5265C88.3053 50.8129 88.3503 51.1197 88.3503 51.4469V55.0548H87.1967V51.8273C87.1967 51.5901 87.1763 51.3651 87.1354 51.1524C87.1026 50.9397 87.0372 50.7515 86.939 50.5879C86.8409 50.4243 86.7059 50.2934 86.5341 50.1952C86.3623 50.097 86.1414 50.048 85.8714 50.048C85.4132 50.048 85.0369 50.2238 84.7424 50.5756C84.4561 50.9192 84.3129 51.3815 84.3129 51.9623V55.0548H83.1593V50.4897C83.1593 50.3343 83.1553 50.1339 83.1471 49.8884C83.1389 49.643 83.1266 49.4262 83.1103 49.238H84.2024Z" fill="#03252F"/>
<path d="M96.5113 50.7106C96.3804 50.4979 96.1963 50.3261 95.9591 50.1952C95.7218 50.0561 95.4559 49.9866 95.1614 49.9866C95.0305 49.9866 94.8996 50.003 94.7687 50.0357C94.6378 50.0602 94.5192 50.1052 94.4129 50.1707C94.3147 50.2279 94.2329 50.3057 94.1674 50.4038C94.1102 50.4938 94.0815 50.6084 94.0815 50.7474C94.0815 50.9929 94.192 51.1769 94.4129 51.2997C94.6338 51.4142 94.9651 51.5206 95.4069 51.6187C95.685 51.6842 95.9427 51.7619 96.18 51.8519C96.4172 51.9419 96.6218 52.0564 96.7936 52.1955C96.9735 52.3264 97.1126 52.4859 97.2108 52.6741C97.309 52.8623 97.3581 53.0831 97.3581 53.3368C97.3581 53.6804 97.2926 53.9708 97.1617 54.208C97.0308 54.4453 96.8549 54.6417 96.634 54.7971C96.4213 54.9444 96.1759 55.0507 95.8977 55.1162C95.6196 55.1816 95.3332 55.2143 95.0387 55.2143C94.5969 55.2143 94.1633 55.1284 93.7379 54.9566C93.3207 54.7848 92.973 54.523 92.6948 54.1712L93.517 53.4718C93.6725 53.7008 93.8852 53.8931 94.1552 54.0485C94.4333 54.204 94.736 54.2817 95.0633 54.2817C95.2105 54.2817 95.3496 54.2694 95.4805 54.2449C95.6196 54.2121 95.7423 54.1631 95.8486 54.0976C95.9632 54.0322 96.0532 53.9463 96.1186 53.8399C96.1841 53.7335 96.2168 53.5986 96.2168 53.4349C96.2168 53.165 96.0859 52.9645 95.8241 52.8336C95.5705 52.7027 95.1942 52.58 94.6951 52.4655C94.4988 52.4164 94.2983 52.3591 94.0938 52.2937C93.8974 52.22 93.7175 52.1219 93.5538 51.9991C93.3902 51.8764 93.2552 51.7251 93.1489 51.5451C93.0507 51.3569 93.0016 51.1279 93.0016 50.8579C93.0016 50.547 93.063 50.2811 93.1857 50.0602C93.3166 49.8312 93.4843 49.6471 93.6888 49.508C93.8934 49.3607 94.1265 49.2544 94.3883 49.1889C94.6501 49.1153 94.9201 49.0785 95.1982 49.0785C95.6155 49.0785 96.0164 49.1603 96.4009 49.3239C96.7936 49.4875 97.0963 49.7248 97.309 50.0357L96.5113 50.7106Z" fill="#03252F"/>
<path d="M103.081 51.631C103.073 51.4019 103.032 51.1892 102.958 50.9929C102.893 50.7883 102.79 50.6124 102.651 50.4652C102.52 50.3179 102.353 50.2034 102.148 50.1216C101.952 50.0316 101.719 49.9866 101.449 49.9866C101.203 49.9866 100.97 50.0316 100.749 50.1216C100.536 50.2034 100.348 50.3179 100.185 50.4652C100.029 50.6124 99.8983 50.7883 99.792 50.9929C99.6938 51.1892 99.6365 51.4019 99.6202 51.631H103.081ZM104.247 52.0973C104.247 52.1628 104.247 52.2282 104.247 52.2937C104.247 52.3591 104.243 52.4246 104.234 52.49H99.6202C99.6283 52.7355 99.6815 52.9686 99.7797 53.1895C99.8861 53.4022 100.025 53.5904 100.197 53.754C100.369 53.9094 100.565 54.0322 100.786 54.1222C101.015 54.2121 101.256 54.2571 101.51 54.2571C101.903 54.2571 102.242 54.1712 102.529 53.9994C102.815 53.8276 103.04 53.619 103.204 53.3736L104.013 54.024C103.703 54.433 103.334 54.7357 102.909 54.9321C102.492 55.1202 102.025 55.2143 101.51 55.2143C101.068 55.2143 100.659 55.1407 100.283 54.9934C99.9065 54.8462 99.5834 54.6417 99.3134 54.3799C99.0434 54.1099 98.8307 53.7867 98.6753 53.4104C98.5198 53.0341 98.4421 52.6168 98.4421 52.1587C98.4421 51.7087 98.5157 51.2956 98.663 50.9192C98.8184 50.5347 99.0311 50.2075 99.3011 49.9375C99.5711 49.6675 99.8902 49.4589 100.258 49.3117C100.626 49.1562 101.023 49.0785 101.449 49.0785C101.874 49.0785 102.259 49.148 102.602 49.2871C102.954 49.4262 103.248 49.6266 103.486 49.8884C103.731 50.1502 103.919 50.4693 104.05 50.8456C104.181 51.2138 104.247 51.631 104.247 52.0973Z" fill="#03252F"/>
<path d="M112.999 50.7106C112.877 50.5225 112.692 50.367 112.447 50.2443C112.202 50.1134 111.94 50.048 111.662 50.048C111.359 50.048 111.089 50.1052 110.852 50.2198C110.623 50.3343 110.426 50.4897 110.263 50.6861C110.099 50.8742 109.972 51.0951 109.882 51.3488C109.8 51.6024 109.76 51.8683 109.76 52.1464C109.76 52.4246 109.8 52.6905 109.882 52.9441C109.972 53.1977 110.099 53.4227 110.263 53.619C110.426 53.8072 110.627 53.9585 110.864 54.0731C111.101 54.1876 111.371 54.2449 111.674 54.2449C111.968 54.2449 112.234 54.1876 112.472 54.0731C112.717 53.9585 112.917 53.8031 113.073 53.6067L113.846 54.3062C113.601 54.5926 113.294 54.8175 112.926 54.9812C112.557 55.1366 112.14 55.2143 111.674 55.2143C111.224 55.2143 110.807 55.1407 110.422 54.9934C110.046 54.8462 109.719 54.6417 109.44 54.3799C109.162 54.1099 108.941 53.7867 108.778 53.4104C108.622 53.0341 108.545 52.6127 108.545 52.1464C108.545 51.6883 108.622 51.271 108.778 50.8947C108.933 50.5184 109.15 50.1952 109.428 49.9252C109.706 49.6553 110.034 49.4466 110.41 49.2994C110.794 49.1521 111.208 49.0785 111.649 49.0785C112.058 49.0785 112.463 49.1603 112.864 49.3239C113.273 49.4875 113.596 49.7248 113.834 50.0357L112.999 50.7106Z" fill="#03252F"/>
<path d="M116.192 50.1216C116.331 49.8352 116.568 49.5898 116.903 49.3853C117.239 49.1808 117.615 49.0785 118.032 49.0785C118.409 49.0785 118.732 49.1439 119.002 49.2748C119.272 49.3976 119.497 49.5653 119.677 49.778C119.857 49.9907 119.988 50.2402 120.069 50.5265C120.159 50.8129 120.204 51.1197 120.204 51.4469V55.0548H119.051V51.8396C119.051 51.6024 119.03 51.3774 118.99 51.1647C118.957 50.952 118.891 50.7638 118.793 50.6002C118.695 50.4366 118.56 50.3057 118.388 50.2075C118.225 50.1093 118.008 50.0602 117.738 50.0602C117.28 50.0602 116.903 50.2361 116.609 50.5879C116.314 50.9315 116.167 51.3937 116.167 51.9746V55.0548H115.014V45.7774H116.167V50.1216H116.192Z" fill="#03252F"/>
<path d="M125.776 51.2874C125.776 50.8538 125.645 50.5347 125.383 50.3302C125.121 50.1175 124.773 50.0111 124.34 50.0111C124.013 50.0111 123.702 50.0766 123.407 50.2075C123.121 50.3302 122.88 50.4897 122.683 50.6861L122.07 49.9498C122.356 49.6798 122.704 49.4671 123.113 49.3117C123.53 49.1562 123.976 49.0785 124.45 49.0785C124.868 49.0785 125.227 49.1399 125.53 49.2626C125.841 49.3771 126.095 49.5366 126.291 49.7412C126.487 49.9457 126.635 50.187 126.733 50.4652C126.831 50.7433 126.88 51.042 126.88 51.361V53.9013C126.88 54.0976 126.884 54.3062 126.892 54.5271C126.909 54.7398 126.933 54.9157 126.966 55.0548H125.923C125.857 54.7766 125.825 54.4985 125.825 54.2203H125.788C125.575 54.5312 125.305 54.7725 124.978 54.9444C124.659 55.1162 124.278 55.2021 123.837 55.2021C123.608 55.2021 123.366 55.1693 123.113 55.1039C122.867 55.0466 122.642 54.9484 122.438 54.8094C122.233 54.6703 122.061 54.4862 121.922 54.2571C121.791 54.0281 121.726 53.7458 121.726 53.4104C121.726 52.9686 121.845 52.6209 122.082 52.3673C122.319 52.1055 122.63 51.9092 123.014 51.7783C123.399 51.6392 123.833 51.5492 124.315 51.5083C124.798 51.4674 125.285 51.4469 125.776 51.4469V51.2874ZM125.493 52.2814C125.207 52.2814 124.908 52.2937 124.598 52.3182C124.295 52.3428 124.017 52.3918 123.763 52.4655C123.518 52.5391 123.313 52.6495 123.149 52.7968C122.986 52.9441 122.904 53.1404 122.904 53.3858C122.904 53.5577 122.937 53.7008 123.002 53.8154C123.076 53.9299 123.17 54.024 123.284 54.0976C123.399 54.1712 123.526 54.2244 123.665 54.2571C123.804 54.2817 123.947 54.294 124.094 54.294C124.634 54.294 125.048 54.1344 125.334 53.8154C125.628 53.4881 125.776 53.0791 125.776 52.5882V52.2814H125.493Z" fill="#03252F"/>
<path d="M128.807 50.4897C128.807 50.3343 128.803 50.1339 128.794 49.8884C128.786 49.643 128.774 49.4262 128.758 49.238H129.85C129.866 49.3853 129.878 49.5571 129.887 49.7534C129.895 49.9416 129.899 50.097 129.899 50.2198H129.936C130.099 49.8762 130.337 49.6021 130.647 49.3976C130.966 49.1848 131.322 49.0785 131.715 49.0785C131.895 49.0785 132.046 49.0948 132.169 49.1276L132.12 50.1952C131.956 50.1543 131.78 50.1339 131.592 50.1339C131.314 50.1339 131.073 50.187 130.868 50.2934C130.664 50.3916 130.492 50.5266 130.353 50.6984C130.222 50.8702 130.124 51.0706 130.058 51.2997C129.993 51.5206 129.96 51.7537 129.96 51.9991V55.0548H128.807V50.4897Z" fill="#03252F"/>
<path d="M133.491 56.0488C133.745 56.3351 134.06 56.5642 134.436 56.736C134.82 56.9078 135.213 56.9937 135.614 56.9937C135.999 56.9937 136.322 56.9365 136.584 56.8219C136.845 56.7156 137.054 56.5642 137.209 56.3679C137.373 56.1797 137.488 55.9547 137.553 55.6929C137.627 55.4311 137.663 55.1489 137.663 54.8462V54.0976H137.639C137.426 54.4249 137.136 54.6744 136.768 54.8462C136.399 55.018 136.007 55.1039 135.59 55.1039C135.148 55.1039 134.743 55.0262 134.375 54.8707C134.015 54.7153 133.708 54.5026 133.454 54.2326C133.201 53.9626 133.004 53.6476 132.865 53.2877C132.726 52.9195 132.657 52.5268 132.657 52.1096C132.657 51.6924 132.726 51.2997 132.865 50.9315C133.004 50.5634 133.201 50.2443 133.454 49.9743C133.708 49.6962 134.015 49.4794 134.375 49.3239C134.735 49.1603 135.135 49.0785 135.577 49.0785C135.994 49.0785 136.391 49.1685 136.768 49.3485C137.152 49.5285 137.455 49.8025 137.676 50.1707H137.7V49.238H138.817V54.7603C138.817 55.1857 138.764 55.5907 138.657 55.9752C138.551 56.3679 138.371 56.7115 138.117 57.006C137.864 57.3087 137.533 57.55 137.123 57.73C136.714 57.91 136.207 58 135.602 58C135.095 58 134.583 57.9059 134.068 57.7178C133.561 57.5378 133.123 57.2801 132.755 56.9446L133.491 56.0488ZM133.847 52.0851C133.847 52.355 133.888 52.6127 133.97 52.8582C134.06 53.1036 134.186 53.3204 134.35 53.5086C134.522 53.6967 134.726 53.8481 134.964 53.9626C135.201 54.0772 135.471 54.1344 135.774 54.1344C136.068 54.1344 136.338 54.0812 136.584 53.9749C136.829 53.8685 137.038 53.7254 137.209 53.5454C137.381 53.3572 137.512 53.1404 137.602 52.895C137.7 52.6414 137.749 52.3714 137.749 52.0851C137.749 51.8069 137.7 51.5451 137.602 51.2997C137.512 51.0542 137.377 50.8374 137.197 50.6493C137.025 50.4611 136.817 50.3138 136.571 50.2075C136.334 50.0929 136.068 50.0357 135.774 50.0357C135.471 50.0357 135.201 50.0929 134.964 50.2075C134.726 50.3138 134.522 50.4611 134.35 50.6493C134.186 50.8293 134.06 51.046 133.97 51.2997C133.888 51.5451 133.847 51.8069 133.847 52.0851Z" fill="#03252F"/>
<path d="M145.049 51.631C145.041 51.4019 145 51.1892 144.926 50.9929C144.861 50.7883 144.759 50.6124 144.619 50.4652C144.489 50.3179 144.321 50.2034 144.116 50.1216C143.92 50.0316 143.687 49.9866 143.417 49.9866C143.171 49.9866 142.938 50.0316 142.717 50.1216C142.505 50.2034 142.316 50.3179 142.153 50.4652C141.997 50.6124 141.867 50.7883 141.76 50.9929C141.662 51.1892 141.605 51.4019 141.588 51.631H145.049ZM146.215 52.0973C146.215 52.1628 146.215 52.2282 146.215 52.2937C146.215 52.3591 146.211 52.4246 146.202 52.49H141.588C141.597 52.7355 141.65 52.9686 141.748 53.1895C141.854 53.4022 141.993 53.5904 142.165 53.754C142.337 53.9094 142.533 54.0322 142.754 54.1222C142.983 54.2121 143.225 54.2571 143.478 54.2571C143.871 54.2571 144.21 54.1712 144.497 53.9994C144.783 53.8276 145.008 53.619 145.172 53.3736L145.982 54.024C145.671 54.433 145.303 54.7357 144.877 54.9321C144.46 55.1202 143.994 55.2143 143.478 55.2143C143.036 55.2143 142.627 55.1407 142.251 54.9934C141.875 54.8462 141.552 54.6417 141.282 54.3799C141.012 54.1099 140.799 53.7867 140.643 53.4104C140.488 53.0341 140.41 52.6168 140.41 52.1587C140.41 51.7087 140.484 51.2956 140.631 50.9192C140.787 50.5347 140.999 50.2075 141.269 49.9375C141.539 49.6675 141.858 49.4589 142.226 49.3117C142.595 49.1562 142.991 49.0785 143.417 49.0785C143.842 49.0785 144.227 49.148 144.57 49.2871C144.922 49.4262 145.217 49.6266 145.454 49.8884C145.699 50.1502 145.888 50.4693 146.018 50.8456C146.149 51.2138 146.215 51.631 146.215 52.0973Z" fill="#03252F"/>
<path d="M155.532 54.1344C155.311 54.4862 155.008 54.7562 154.624 54.9444C154.248 55.1243 153.851 55.2143 153.433 55.2143C152.984 55.2143 152.579 55.1366 152.219 54.9812C151.859 54.8175 151.552 54.5967 151.298 54.3185C151.045 54.0403 150.848 53.7131 150.709 53.3368C150.57 52.9604 150.501 52.5596 150.501 52.1341C150.501 51.7087 150.57 51.3119 150.709 50.9438C150.848 50.5675 151.045 50.2402 151.298 49.9621C151.56 49.6839 151.871 49.4671 152.231 49.3117C152.591 49.1562 152.988 49.0785 153.421 49.0785C153.896 49.0785 154.309 49.1808 154.661 49.3853C155.012 49.5816 155.291 49.823 155.495 50.1093H155.52V45.7774H156.673V55.0548H155.557V54.1344H155.532ZM151.703 52.1341C151.703 52.4041 151.744 52.6659 151.826 52.9195C151.908 53.1731 152.03 53.3981 152.194 53.5945C152.358 53.7908 152.558 53.9503 152.795 54.0731C153.033 54.1876 153.311 54.2449 153.63 54.2449C153.924 54.2449 154.19 54.1876 154.428 54.0731C154.673 53.9585 154.882 53.8072 155.053 53.619C155.225 53.4227 155.356 53.1977 155.446 52.9441C155.544 52.6905 155.593 52.4246 155.593 52.1464C155.593 51.8683 155.544 51.6024 155.446 51.3488C155.356 51.0951 155.225 50.8702 155.053 50.6738C154.882 50.4775 154.673 50.322 154.428 50.2075C154.19 50.0929 153.924 50.0357 153.63 50.0357C153.311 50.0357 153.033 50.0929 152.795 50.2075C152.558 50.322 152.358 50.4775 152.194 50.6738C152.03 50.8702 151.908 51.0951 151.826 51.3488C151.744 51.6024 151.703 51.8642 151.703 52.1341Z" fill="#03252F"/>
<path d="M162.941 51.631C162.933 51.4019 162.892 51.1892 162.818 50.9929C162.753 50.7883 162.651 50.6124 162.512 50.4652C162.381 50.3179 162.213 50.2034 162.009 50.1216C161.812 50.0316 161.579 49.9866 161.309 49.9866C161.064 49.9866 160.83 50.0316 160.61 50.1216C160.397 50.2034 160.209 50.3179 160.045 50.4652C159.89 50.6124 159.759 50.7883 159.652 50.9929C159.554 51.1892 159.497 51.4019 159.481 51.631H162.941ZM164.107 52.0973C164.107 52.1628 164.107 52.2282 164.107 52.2937C164.107 52.3591 164.103 52.4246 164.095 52.49H159.481C159.489 52.7355 159.542 52.9686 159.64 53.1895C159.746 53.4022 159.886 53.5904 160.057 53.754C160.229 53.9094 160.425 54.0322 160.646 54.1222C160.875 54.2121 161.117 54.2571 161.37 54.2571C161.763 54.2571 162.103 54.1712 162.389 53.9994C162.675 53.8276 162.9 53.619 163.064 53.3736L163.874 54.024C163.563 54.433 163.195 54.7357 162.769 54.9321C162.352 55.1202 161.886 55.2143 161.37 55.2143C160.929 55.2143 160.52 55.1407 160.143 54.9934C159.767 54.8462 159.444 54.6417 159.174 54.3799C158.904 54.1099 158.691 53.7867 158.536 53.4104C158.38 53.0341 158.302 52.6168 158.302 52.1587C158.302 51.7087 158.376 51.2956 158.523 50.9192C158.679 50.5347 158.892 50.2075 159.161 49.9375C159.431 49.6675 159.751 49.4589 160.119 49.3117C160.487 49.1562 160.884 49.0785 161.309 49.0785C161.734 49.0785 162.119 49.148 162.463 49.2871C162.814 49.4262 163.109 49.6266 163.346 49.8884C163.592 50.1502 163.78 50.4693 163.911 50.8456C164.042 51.2138 164.107 51.631 164.107 52.0973Z" fill="#03252F"/>
<path d="M171.522 55.0548H170.27L167.902 49.238H169.178L170.884 53.8154H170.908L172.626 49.238H173.854L171.522 55.0548Z" fill="#03252F"/>
<path d="M180.86 52.1341C180.86 52.5841 180.778 52.9972 180.614 53.3736C180.459 53.7499 180.238 54.0772 179.952 54.3553C179.673 54.6253 179.342 54.838 178.958 54.9934C178.573 55.1407 178.16 55.2143 177.718 55.2143C177.276 55.2143 176.863 55.1407 176.479 54.9934C176.094 54.838 175.763 54.6253 175.485 54.3553C175.206 54.0772 174.986 53.7499 174.822 53.3736C174.667 52.9972 174.589 52.5841 174.589 52.1341C174.589 51.6842 174.667 51.2751 174.822 50.907C174.986 50.5306 175.206 50.2075 175.485 49.9375C175.763 49.6675 176.094 49.4589 176.479 49.3117C176.863 49.1562 177.276 49.0785 177.718 49.0785C178.16 49.0785 178.573 49.1562 178.958 49.3117C179.342 49.4589 179.673 49.6675 179.952 49.9375C180.238 50.2075 180.459 50.5306 180.614 50.907C180.778 51.2751 180.86 51.6842 180.86 52.1341ZM179.657 52.1341C179.657 51.856 179.612 51.5901 179.522 51.3365C179.44 51.0829 179.318 50.862 179.154 50.6738C178.99 50.4775 178.786 50.322 178.54 50.2075C178.303 50.0929 178.029 50.0357 177.718 50.0357C177.407 50.0357 177.129 50.0929 176.884 50.2075C176.646 50.322 176.446 50.4775 176.282 50.6738C176.119 50.862 175.992 51.0829 175.902 51.3365C175.82 51.5901 175.779 51.856 175.779 52.1341C175.779 52.4123 175.82 52.6782 175.902 52.9318C175.992 53.1854 176.119 53.4104 176.282 53.6067C176.446 53.8031 176.646 53.9585 176.884 54.0731C177.129 54.1876 177.407 54.2449 177.718 54.2449C178.029 54.2449 178.303 54.1876 178.54 54.0731C178.786 53.9585 178.99 53.8031 179.154 53.6067C179.318 53.4104 179.44 53.1854 179.522 52.9318C179.612 52.6782 179.657 52.4123 179.657 52.1341Z" fill="#03252F"/>
<path d="M186.558 55.0548C186.542 54.9075 186.529 54.7439 186.521 54.5639C186.513 54.3758 186.509 54.2203 186.509 54.0976H186.484C186.337 54.4085 186.088 54.6744 185.736 54.8953C185.392 55.108 185.008 55.2143 184.582 55.2143C184.206 55.2143 183.879 55.153 183.601 55.0303C183.331 54.9075 183.106 54.7398 182.926 54.5271C182.754 54.3062 182.623 54.0526 182.533 53.7663C182.451 53.4799 182.41 53.1731 182.41 52.8459V49.238H183.564V52.4532C183.564 52.6905 183.58 52.9195 183.613 53.1404C183.654 53.3531 183.723 53.5413 183.821 53.7049C183.92 53.8685 184.055 53.9994 184.226 54.0976C184.398 54.1958 184.619 54.2449 184.889 54.2449C185.355 54.2449 185.732 54.0731 186.018 53.7295C186.304 53.3777 186.448 52.9113 186.448 52.3305V49.238H187.601V53.8031C187.601 53.9585 187.605 54.159 187.613 54.4044C187.622 54.6498 187.634 54.8666 187.65 55.0548H186.558Z" fill="#03252F"/>
<path d="M192.743 50.7106C192.612 50.4979 192.428 50.3261 192.191 50.1952C191.954 50.0561 191.688 49.9866 191.393 49.9866C191.263 49.9866 191.132 50.003 191.001 50.0357C190.87 50.0602 190.751 50.1052 190.645 50.1707C190.547 50.2279 190.465 50.3057 190.399 50.4038C190.342 50.4938 190.314 50.6084 190.314 50.7474C190.314 50.9929 190.424 51.1769 190.645 51.2997C190.866 51.4142 191.197 51.5206 191.639 51.6187C191.917 51.6842 192.175 51.7619 192.412 51.8519C192.649 51.9419 192.854 52.0564 193.026 52.1955C193.206 52.3264 193.345 52.4859 193.443 52.6741C193.541 52.8623 193.59 53.0831 193.59 53.3368C193.59 53.6804 193.525 53.9708 193.394 54.208C193.263 54.4453 193.087 54.6417 192.866 54.7971C192.653 54.9444 192.408 55.0507 192.13 55.1162C191.852 55.1816 191.565 55.2143 191.271 55.2143C190.829 55.2143 190.395 55.1284 189.97 54.9566C189.553 54.7848 189.205 54.523 188.927 54.1712L189.749 53.4718C189.904 53.7008 190.117 53.8931 190.387 54.0485C190.665 54.204 190.968 54.2817 191.295 54.2817C191.443 54.2817 191.582 54.2694 191.713 54.2449C191.852 54.2121 191.974 54.1631 192.081 54.0976C192.195 54.0322 192.285 53.9463 192.351 53.8399C192.416 53.7335 192.449 53.5986 192.449 53.4349C192.449 53.165 192.318 52.9645 192.056 52.8336C191.802 52.7027 191.426 52.58 190.927 52.4655C190.731 52.4164 190.53 52.3591 190.326 52.2937C190.129 52.22 189.949 52.1219 189.786 51.9991C189.622 51.8764 189.487 51.7251 189.381 51.5451C189.283 51.3569 189.234 51.1279 189.234 50.8579C189.234 50.547 189.295 50.2811 189.418 50.0602C189.549 49.8312 189.716 49.6471 189.921 49.508C190.125 49.3607 190.359 49.2544 190.62 49.1889C190.882 49.1153 191.152 49.0785 191.43 49.0785C191.847 49.0785 192.248 49.1603 192.633 49.3239C193.026 49.4875 193.328 49.7248 193.541 50.0357L192.743 50.7106Z" fill="#03252F"/>
<path d="M199.779 52.5146H198.564V46.3665H199.779V52.5146ZM200 54.3185C200 54.5312 199.922 54.7194 199.767 54.883C199.611 55.0466 199.415 55.1284 199.178 55.1284C198.949 55.1284 198.752 55.0507 198.589 54.8953C198.433 54.7316 198.356 54.5435 198.356 54.3308C198.356 54.1099 198.433 53.9217 198.589 53.7663C198.744 53.6026 198.941 53.5208 199.178 53.5208C199.415 53.5208 199.611 53.5986 199.767 53.754C199.922 53.9094 200 54.0976 200 54.3185Z" fill="#03252F"/>
<path d="M215.35 23.5326C215.35 22.3511 216.308 21.3933 217.49 21.3933H223.457V25.672H217.49C216.308 25.672 215.35 24.7141 215.35 23.5326Z" fill="#03252F"/>
<path d="M215.35 34.5671C215.35 33.3855 216.308 32.4277 217.49 32.4277H223.457V36.7064H217.49C216.308 36.7064 215.35 35.7486 215.35 34.5671Z" fill="#03252F"/>
<path d="M204.091 29.0006C204.091 44.9904 217.108 58 233.11 58C240.836 58 248.106 55.0009 253.581 49.5564C256.824 46.331 259.286 42.3409 260.699 38.0165C260.794 37.728 260.839 37.4348 260.839 37.1474C260.839 35.9722 260.09 34.8791 258.91 34.4932C257.443 34.0146 255.865 34.8157 255.387 36.2806C254.245 39.77 252.257 42.9907 249.637 45.5956C245.216 49.9916 239.347 52.4124 233.11 52.4124C220.191 52.4124 209.681 41.9093 209.681 28.9994C209.681 16.0884 220.191 5.58525 233.11 5.58525C239.371 5.58525 245.251 8.01897 249.675 12.4384C251.199 14.1344 254.263 18.3438 254.263 20.8714C254.263 22.1697 253.854 23.1397 252.976 23.9291C250.748 25.9276 246.236 26.3651 243.094 26.3475C242.85 21.5 236.5 18 233.938 17.6413H225.24V40.3587H233.938C239 38.5 242.695 36.6524 243.079 31.9386C246.825 31.968 252.962 31.4425 256.701 28.094C258.763 26.2478 259.853 23.7508 259.853 20.8714C259.853 15.4679 254.391 9.31734 253.769 8.63473L253.685 8.54442C248.198 3.03424 240.891 0 233.11 0C217.108 0 204.091 13.0096 204.091 29.0006Z" fill="#02B5A1"/>
<path d="M225.034 17.3398H232.69C239.157 17.3398 244.4 22.5826 244.4 29.0498C244.4 35.5171 239.157 40.7599 232.69 40.7599H225.034V17.3398Z" fill="#03252F"/>
</svg>
