<svg width="30" height="13" viewBox="0 0 30 13" fill="none" xmlns="http://www.w3.org/2000/svg">
<path d="M23.6724 0.599976C19.8887 0.599976 16.7295 3.61212 15.3336 5.19185C13.9376 3.61238 10.7784 0.599976 6.99474 0.599976C3.65179 0.599976 0.933594 3.31843 0.933594 6.66112C0.933594 10.0041 3.65205 12.7223 6.99474 12.7223C10.8151 12.7223 13.9377 9.70987 15.3336 8.13039C16.7296 9.70987 19.8888 12.7223 23.6724 12.7223C27.0154 12.7223 29.7336 10.0038 29.7336 6.66112C29.7336 3.31817 27.0151 0.599976 23.6724 0.599976ZM12.2846 8.49801C10.0071 10.445 8.13346 10.849 6.99468 10.849C4.6803 10.849 2.80688 8.97563 2.80688 6.66125C2.80688 4.34688 4.6805 2.47346 6.99468 2.47346C10.2274 2.47346 13.0558 5.41233 14.1213 6.66125C13.7541 7.13889 13.0928 7.79997 12.2846 8.49801ZM23.6724 10.849C20.4397 10.849 17.6113 7.91018 16.5459 6.66125C17.611 5.41233 20.4397 2.47346 23.6724 2.47346C25.9868 2.47346 27.8602 4.34688 27.8602 6.66125C27.8602 8.97563 25.9866 10.849 23.6724 10.849Z" fill="#02B5A1"/>
</svg>
