<svg width="208" height="60" viewBox="0 0 208 60" fill="none" xmlns="http://www.w3.org/2000/svg">
<path d="M83.52 50.6059V37.6442H83.4166C82.9684 38.0578 81.2448 38.0923 80.5209 38.0923H79.2799V38.1957C80.7277 39.092 80.5209 40.402 80.5209 42.0222V47.5034C80.5209 50.2612 77.832 52.1916 75.6602 52.1916C72.799 52.1916 71.5924 50.1578 71.5924 46.8829V37.6442H71.489C71.0409 38.0578 69.3172 38.0923 68.5933 38.0923H67.3523V38.1957C68.8002 39.092 68.5933 40.402 68.5933 42.0222V47.5034C68.5933 52.5019 70.7651 54.8805 74.6605 54.8805C76.9702 54.8805 79.3488 54.0532 80.5209 52.1227V54.5013H84.7955V54.3979C83.3476 53.5361 83.52 52.2261 83.52 50.6059Z" fill="#A1A1AA"/>
<path d="M102.066 45.7108C102.204 41.1259 99.1361 37.6786 94.6547 37.6786C89.7596 37.6786 86.4157 41.2293 86.4157 46.1934C86.4157 51.1575 90.2766 54.9495 95.8612 54.9495C97.4125 54.9495 98.9982 54.7081 100.412 54.0532L102.066 50.7093H101.963C100.446 51.9848 98.5501 52.6053 96.5507 52.6053C92.8276 52.6053 90.0353 50.0543 89.9664 45.7108H102.066ZM90.1043 43.6424C90.4835 41.4017 92.1382 39.9883 94.3444 39.9883C96.723 39.9883 98.2398 41.1604 98.5846 43.6424H90.1043Z" fill="#A1A1AA"/>
<path d="M104.652 30.0946C105.445 30.0946 107.065 30.0602 107.547 29.5776H107.651V52.0193C108.547 52.2606 109.443 52.433 110.374 52.433C113.959 52.433 116.028 49.9164 116.028 46.4002C116.028 42.953 114.442 40.2986 111.133 40.2986C110.098 40.2986 109.271 40.5743 108.375 41.0914L110.133 38.0578C110.891 37.7821 111.684 37.6786 112.443 37.6786C116.166 37.6786 119.337 40.9191 119.337 45.7797C119.337 51.3298 115.58 54.9495 109.616 54.9495C107.375 54.9495 105.272 54.5703 103.652 54.2945V54.1911C104.721 53.674 104.652 52.5019 104.652 51.3298V34.9898C104.652 33.3351 104.859 31.0599 103.445 30.1636V30.0602H104.652V30.0946Z" fill="#A1A1AA"/>
<path d="M137.159 45.7108C137.297 41.1259 134.229 37.6786 129.748 37.6786C124.853 37.6786 121.509 41.2293 121.509 46.1934C121.509 51.1575 125.37 54.9495 130.954 54.9495C132.506 54.9495 134.091 54.7081 135.505 54.0532L137.159 50.7093H137.056C135.539 51.9848 133.643 52.6053 131.644 52.6053C127.921 52.6053 125.129 50.0543 125.06 45.7108H137.159ZM125.197 43.6424C125.577 41.4017 127.231 39.9883 129.438 39.9883C131.816 39.9883 133.333 41.1604 133.678 43.6424H125.197Z" fill="#A1A1AA"/>
<path d="M151.879 41.7464H151.776C150.811 40.5743 149.225 39.9883 147.743 39.9883C144.537 39.9883 142.261 42.4014 142.261 45.8142C142.261 49.9164 145.467 52.6053 149.122 52.6053C150.811 52.6053 152.638 51.8814 153.948 50.8472H154.051L152.327 54.2255C150.949 54.7771 149.432 54.915 147.984 54.915C142.916 54.915 138.952 51.3298 138.952 46.7105C138.952 40.5743 143.365 37.6442 148.329 37.6442C149.501 37.6442 150.742 37.7821 151.879 38.0578V41.7464Z" fill="#A1A1AA"/>
<path d="M97.9296 34.7485V31.1978C95.7578 32.163 93.7584 33.9901 92.4139 35.7482V37.1271C95.6544 34.9553 97.9296 34.8519 97.9296 34.7485Z" fill="#A1A1AA"/>
<path d="M70.8685 57.9486C67.2144 58.5346 63.6637 57.397 59.9062 53.0879C63.5258 51.2609 65.7666 46.745 65.7666 42.5393V42.0222C65.6976 34.8174 60.2854 30.0602 53.839 30.0602C47.3926 30.0602 41.6702 35.0242 41.6357 42.2635C41.6357 42.298 41.6357 42.7117 41.6357 42.7461C41.6357 49.813 46.8755 55.0529 53.2874 55.0529C54.2182 55.0529 55.08 54.915 55.9763 54.7081C60.182 58.638 63.9395 60.3272 67.1799 59.948C68.7312 59.7756 70.3514 59.1551 71.3167 57.8796L70.8685 57.9486ZM53.839 52.5019C48.8749 52.5019 45.3932 46.8828 45.3932 42.1256C45.3932 42.0911 45.3932 41.643 45.3932 41.5741C45.4621 36.9547 48.4268 32.6112 53.6666 32.6112C59.1478 32.6112 61.9746 37.8165 62.0435 42.7117V43.2287C62.0435 48.5031 58.7686 52.5019 53.839 52.5019Z" fill="#A1A1AA"/>
<path d="M4.40518 4.51592H5.33594C6.57696 4.51592 7.23194 4.0333 7.23194 3.2749C7.23194 2.61992 6.78379 2.27519 5.8875 2.27519H4.8878L4.40518 4.51592ZM6.37012 0.482615C8.67979 0.482615 9.85186 1.27549 9.85186 2.8957C9.85186 4.30908 8.88663 5.20538 7.19747 5.34327C7.85245 5.72247 8.02481 6.20508 8.1627 6.86006L8.88663 10.135H6.33565L5.6462 7.03243C5.50831 6.48086 5.19805 6.3085 4.47412 6.3085H4.02598L3.23311 10.1694H0.682129L2.71602 0.51709H6.37012V0.482615Z" fill="#A1A1AA"/>
<path d="M14.5746 0H17.1945V0.310252L14.8849 1.99941H13.2302V1.82705L14.5746 0ZM15.6433 5.51563C15.6433 4.72276 15.1607 4.20567 14.4023 4.20567C13.6439 4.20567 12.9889 4.7917 12.7131 5.82588H15.6088C15.6433 5.72246 15.6433 5.61905 15.6433 5.51563ZM12.4028 7.20479C12.5063 8.27344 13.0923 8.75606 14.2299 8.75606C14.9883 8.75606 15.8501 8.58369 16.6775 8.20449L16.4017 9.9626C15.5399 10.2384 14.678 10.3763 13.7473 10.3763C11.5066 10.3763 10.1621 9.06631 10.1621 7.03243C10.1621 5.86035 10.6792 4.65381 11.4376 3.89541C12.196 3.17148 13.2647 2.75781 14.6091 2.75781C16.6085 2.75781 17.6772 3.89541 17.6772 5.86036C17.6772 6.27403 17.6082 6.72217 17.5048 7.23926H12.4028V7.20479Z" fill="#A1A1AA"/>
<path d="M22.8825 4.65381C21.9173 4.65381 21.09 5.68799 21.09 7.13584C21.09 7.96319 21.607 8.51475 22.331 8.51475C23.3307 8.51475 24.227 7.48057 24.227 6.13613C24.227 5.23984 23.6754 4.65381 22.8825 4.65381ZM27.4329 2.99912L25.9161 10.1694C25.468 12.2378 23.7788 12.9962 21.5381 12.9962C20.6073 12.9962 19.6766 12.8238 18.7113 12.4791L19.1595 10.6176C19.78 11.0313 20.5384 11.2381 21.4002 11.2381C22.7102 11.2381 23.7444 10.6176 24.0201 8.68711C23.2962 9.65234 22.3999 10.135 21.3313 10.135C19.6421 10.135 18.539 8.92842 18.539 6.99795C18.539 5.96377 18.8148 5.03301 19.3663 4.27461C20.0558 3.30938 21.09 2.75781 22.331 2.75781C23.3652 2.75781 24.1925 3.24043 24.6751 4.17119L24.9509 2.96465H27.4329V2.99912Z" fill="#A1A1AA"/>
<path d="M32.0522 0.482584L31.8109 1.75807H29.3634L29.6047 0.482584H32.0522ZM31.5351 2.99909L29.9839 10.1694H27.5363L29.0876 2.99909H31.5351Z" fill="#A1A1AA"/>
<path d="M37.6369 5.51563C37.6369 4.72276 37.1543 4.20567 36.3959 4.20567C35.6375 4.20567 34.9825 4.7917 34.7067 5.82588H37.6024C37.6024 5.72246 37.6369 5.61905 37.6369 5.51563ZM34.362 7.20479C34.4654 8.27344 35.0514 8.75606 36.189 8.75606C36.9474 8.75606 37.8092 8.58369 38.6366 8.20449L38.3608 9.9626C37.499 10.2384 36.6372 10.3763 35.7064 10.3763C33.4657 10.3763 32.1213 9.06631 32.1213 7.03243C32.1213 5.86035 32.6383 4.65381 33.3967 3.89541C34.1551 3.17148 35.2238 2.75781 36.6027 2.75781C38.6021 2.75781 39.6708 3.89541 39.6708 5.86036C39.6708 6.27403 39.6018 6.72217 39.4984 7.23926H34.362V7.20479Z" fill="#A1A1AA"/>
<path d="M5.40492 18.5808C4.43969 18.5808 3.61234 19.615 3.61234 21.0628C3.61234 21.8902 4.12943 22.4417 4.85336 22.4417C5.85307 22.4417 6.74935 21.4075 6.74935 20.0286C6.74935 19.1668 6.19779 18.5808 5.40492 18.5808ZM10.4724 14.4096L8.43852 24.0619H6.19779L6.47357 22.8554C5.78412 23.7861 4.88783 24.2688 3.85365 24.2688C2.16449 24.2688 1.06136 23.0622 1.06136 21.0628C1.06136 18.4429 2.6471 16.6848 4.85336 16.6848C5.88754 16.6848 6.71488 17.1674 7.1975 18.0982L7.99037 14.3751H10.4724V14.4096Z" fill="#A1A1AA"/>
<path d="M13.9541 16.9261L13.1957 20.5112C13.1268 20.7526 13.1268 20.9939 13.1268 21.2352C13.1268 21.9246 13.4715 22.3038 14.0576 22.3038C14.9539 22.3038 15.6778 21.511 15.988 19.9597L16.643 16.9261H19.1595L17.6083 24.0964H15.3675L15.6433 22.8899C14.8504 23.8206 13.9197 24.2688 12.92 24.2688C11.4376 24.2688 10.5758 23.3725 10.5758 21.7867C10.5758 21.3041 10.6448 20.6491 10.8516 19.7873L11.4376 16.9261H13.9541Z" fill="#A1A1AA"/>
<path d="M28.674 18.5808C27.6743 18.5808 26.778 19.615 26.778 20.9249C26.778 21.8557 27.2951 22.4417 28.0879 22.4417C29.0532 22.4417 29.8805 21.4075 29.8805 20.0286C29.915 19.1323 29.4324 18.5808 28.674 18.5808ZM28.0535 14.4096L27.2951 17.8224C27.9501 17.0984 28.7429 16.7193 29.6737 16.7193C31.3629 16.7193 32.466 17.9603 32.466 19.9252C32.466 22.5107 30.9147 24.2688 28.674 24.2688C27.5364 24.2688 26.709 23.7172 26.1575 22.6141L25.8128 24.0619H23.572L25.6059 14.4096H28.0535Z" fill="#A1A1AA"/>
<path d="M37.3611 20.787C36.0167 20.787 35.3272 21.1662 35.3272 21.8902C35.3272 22.3728 35.7064 22.683 36.258 22.683C37.1198 22.683 37.9127 21.9936 38.085 20.787C37.8437 20.787 37.6024 20.787 37.3611 20.787ZM37.1887 13.927H39.4295L40.636 15.754V15.9264H39.0847L38.2229 14.8233L37.0164 15.9264H35.2927V15.754L37.1887 13.927ZM40.1189 22.2694C40.0155 22.7864 39.8776 23.3725 39.8087 24.0964H37.7403L37.8782 22.9933C37.3266 23.8206 36.4648 24.2343 35.3962 24.2343C33.9138 24.2343 32.9831 23.3725 32.9831 22.097C32.9831 20.5112 34.4654 19.4771 37.1887 19.4771C37.5335 19.4771 37.9471 19.5115 38.3608 19.546C38.3608 19.4771 38.3608 19.3736 38.3608 19.3047C38.3608 18.5808 37.8782 18.2016 36.9819 18.2016C36.1546 18.2016 35.3617 18.3739 34.6378 18.7531L34.948 17.064C35.7409 16.7882 36.4993 16.6503 37.3266 16.6503C39.4984 16.6503 40.6705 17.5466 40.6705 18.9255C40.6705 19.2702 40.6015 19.7184 40.5326 20.201L40.1189 22.2694Z" fill="#A1A1AA"/>
<path d="M45.8069 16.9261H47.565L47.1858 18.6497H45.4277L44.9106 21.1318C44.8417 21.442 44.8072 21.6488 44.8072 21.7523C44.8072 22.2694 45.0485 22.4762 45.6001 22.4762C45.8069 22.4762 46.0827 22.4417 46.4274 22.3383L46.0482 24.0619C45.4622 24.1653 45.014 24.1998 44.6693 24.1998C43.187 24.1998 42.3252 23.4069 42.3252 22.028C42.3252 21.7867 42.3596 21.5454 42.3941 21.3041L42.9801 18.6152H41.5323L41.9115 16.8916H43.3593L43.7385 15.2025L46.3585 14.513L45.8069 16.9261Z" fill="#A1A1AA"/>
<path d="M51.9776 14.4096L51.7362 15.6851H49.2887L49.53 14.4096H51.9776ZM51.4605 16.9261L49.9092 24.0964H47.4616L49.0129 16.9261H51.4605Z" fill="#A1A1AA"/>
<path d="M63.5258 24.0964H61.1472L61.9056 20.5113C61.9746 20.1321 62.0435 19.8563 62.0435 19.615C62.0435 19.0979 61.7677 18.7532 61.2851 18.7532C60.9059 18.7532 60.5612 18.9255 60.3199 19.2358C59.9062 19.7529 59.8373 20.4079 59.6994 21.0628L59.0444 24.0964H56.5279L57.2863 20.5113C57.3552 20.1321 57.3897 19.8218 57.3897 19.546C57.3897 19.0634 57.1139 18.7876 56.6313 18.7876C55.8729 18.7876 55.4248 19.3737 55.1834 20.5458L54.425 24.0964H51.8741L53.3909 16.8572H55.5282L55.2524 18.1671C56.0453 17.2019 56.8037 16.7538 57.7689 16.7538C58.8031 16.7538 59.4581 17.2364 59.7338 18.1671C60.5267 17.2019 61.2506 16.7538 62.2848 16.7538C63.6293 16.7538 64.4566 17.6156 64.4566 18.9945C64.4566 19.4426 64.3877 19.7529 64.3532 19.9597L63.5258 24.0964Z" fill="#A1A1AA"/>
<path d="M71.0409 19.4426C71.0409 18.6498 70.5583 18.1327 69.7999 18.1327C69.0415 18.1327 68.3865 18.7187 68.1107 19.7529H71.0064C71.0064 19.6495 71.0409 19.546 71.0409 19.4426ZM67.766 21.1318C67.8694 22.2004 68.4554 22.6831 69.593 22.6831C70.3514 22.6831 71.2132 22.5107 72.0406 22.1315L71.7648 23.8896C70.903 24.1654 70.0412 24.3033 69.1104 24.3033C66.8697 24.3033 65.5253 22.9933 65.5253 20.9594C65.5253 19.7873 66.0423 18.5808 66.8007 17.8224C67.5591 17.0985 68.6278 16.6848 70.0067 16.6848C72.0061 16.6848 73.0748 17.8224 73.0748 19.7873C73.0748 20.201 73.0058 20.6492 72.9024 21.1663H67.766V21.1318Z" fill="#A1A1AA"/>
<path d="M81.2103 24.0964H78.7283L79.4867 20.5113C79.5556 20.2355 79.5556 19.9942 79.5556 19.7873C79.5556 19.0979 79.2109 18.7187 78.6593 18.7187C77.6596 18.7187 77.0047 19.5116 76.6944 21.0628L76.0394 24.0964H73.5229L75.0397 16.8572H77.2804L77.0047 18.1327C77.7975 17.2019 78.7283 16.7538 79.728 16.7538C81.2103 16.7538 82.0721 17.65 82.0721 19.2703C82.0721 19.7184 82.0032 20.3734 81.7964 21.2352L81.2103 24.0964Z" fill="#A1A1AA"/>
<path d="M87.312 16.9261H89.0701L88.6909 18.6498H86.9328L86.4157 21.1318C86.3468 21.442 86.3123 21.6489 86.3123 21.7523C86.3123 22.2694 86.5191 22.4762 87.1052 22.4762C87.312 22.4762 87.5878 22.4417 87.9325 22.3383L87.5533 24.062C86.9673 24.1654 86.5191 24.1998 86.1744 24.1998C84.6921 24.1998 83.8303 23.407 83.8303 22.0281C83.8303 21.7868 83.8647 21.5455 83.8992 21.3041L84.4852 18.6153H83.0374L83.4166 16.8916H84.8644L85.2436 15.2025L87.8635 14.513L87.312 16.9261Z" fill="#A1A1AA"/>
<path d="M181.767 24.1999H161.807V36.4377H181.767V24.1999Z" fill="#A1A1AA"/>
<path d="M171.77 24.8203C171.632 25.0961 171.287 25.4753 170.736 26.1648C170.115 26.9576 170.219 28.0263 170.495 28.6468C170.839 29.3707 171.046 29.9568 171.184 30.5428C171.391 31.3701 171.253 32.4733 171.287 32.3698H170.736C170.736 31.0254 170.322 29.7499 169.288 29.1984C167.84 28.4055 166.427 29.7844 166.875 31.2323C167.116 31.9907 167.53 32.232 167.668 32.232C167.668 32.232 167.461 31.4046 168.081 30.9565C168.633 30.5428 169.357 30.7841 169.667 31.2667C169.977 31.7149 170.012 32.3354 170.012 32.3354H168.978V33.0938H171.081C171.081 33.0938 171.012 34.1969 169.874 34.059C169.874 34.059 170.012 34.9208 171.081 34.4727C171.081 34.4727 171.012 35.369 171.736 35.8171C172.459 35.369 172.391 34.4727 172.391 34.4727C173.459 34.9208 173.597 34.059 173.597 34.059C172.459 34.1624 172.391 33.0938 172.391 33.0938H174.493V32.3698H173.459C173.459 32.3698 173.494 31.7493 173.804 31.3012C174.114 30.8186 174.838 30.5773 175.39 30.9909C175.976 31.4046 175.803 32.2664 175.803 32.2664C175.941 32.2664 176.355 31.9906 176.596 31.2667C177.044 29.8189 175.631 28.44 174.183 29.2328C173.149 29.7844 172.735 31.0599 172.735 32.4043H172.184C172.184 32.5077 172.046 31.4046 172.287 30.5773C172.459 29.9912 172.632 29.4052 172.977 28.6813C173.287 28.0608 173.39 26.9921 172.77 26.1992C172.253 25.4753 171.908 25.0961 171.77 24.8203Z" fill="white"/>
<path d="M207.518 24.1999H187.559V36.4377H207.518V24.1999Z" fill="#A1A1AA"/>
<path d="M197.521 24.8203C197.383 25.0961 197.039 25.4753 196.487 26.1648C195.832 26.9576 195.97 28.0263 196.28 28.6468C196.625 29.3707 196.832 29.9568 196.97 30.5428C197.176 31.3701 197.039 32.4733 197.073 32.3698H196.521C196.521 31.0254 196.108 29.7499 195.074 29.1984C193.626 28.4055 192.212 29.7844 192.661 31.2323C192.902 31.9907 193.316 32.232 193.453 32.232C193.453 32.232 193.247 31.4046 193.867 30.9565C194.419 30.5428 195.143 30.7841 195.453 31.2667C195.763 31.7149 195.798 32.3354 195.798 32.3354H194.763V33.0938H196.866C196.866 33.0938 196.797 34.1969 195.66 34.059C195.66 34.059 195.798 34.9208 196.866 34.4727C196.866 34.4727 196.797 35.369 197.556 35.8171C198.28 35.369 198.211 34.4727 198.211 34.4727C199.279 34.9208 199.417 34.059 199.417 34.059C198.28 34.1624 198.211 33.0938 198.211 33.0938H200.313V32.3698H199.279C199.279 32.3698 199.348 31.7493 199.624 31.3012C199.934 30.8186 200.658 30.5773 201.21 30.9909C201.796 31.4046 201.623 32.2664 201.623 32.2664C201.727 32.2664 202.175 31.9906 202.416 31.2667C202.864 29.8189 201.451 28.44 200.003 29.2328C199.004 29.7844 198.555 31.0599 198.555 32.4043H198.004C198.004 32.5077 197.866 31.4046 198.107 30.5773C198.245 29.9912 198.452 29.4052 198.797 28.6813C199.107 28.0608 199.21 26.9921 198.555 26.1992C198.004 25.4753 197.694 25.0961 197.521 24.8203Z" fill="white"/>
<path d="M181.767 42.229H161.807V54.4668H181.767V42.229Z" fill="#A1A1AA"/>
<path d="M171.77 42.884C171.632 43.1598 171.287 43.539 170.736 44.2284C170.115 45.0213 170.219 46.0899 170.495 46.7105C170.839 47.4344 171.046 48.0204 171.184 48.6065C171.391 49.4338 171.253 50.5369 171.287 50.4335H170.736C170.736 49.0891 170.322 47.8136 169.288 47.262C167.84 46.4691 166.427 47.8481 166.875 49.2959C167.116 50.0543 167.53 50.2956 167.668 50.2956C167.668 50.2956 167.461 49.4683 168.081 49.0201C168.633 48.6064 169.357 48.8478 169.667 49.3304C169.977 49.7785 170.012 50.399 170.012 50.399H168.978V51.1574H171.081C171.081 51.1574 171.012 52.2261 169.874 52.1227C169.874 52.1227 170.012 52.9845 171.081 52.5363C171.081 52.5363 171.012 53.4326 171.736 53.8808C172.459 53.4326 172.391 52.5363 172.391 52.5363C173.459 52.9845 173.597 52.1227 173.597 52.1227C172.459 52.2261 172.391 51.1574 172.391 51.1574H174.493V50.399H173.459C173.459 50.399 173.494 49.7785 173.804 49.3304C174.114 48.8478 174.838 48.6064 175.39 49.0201C175.976 49.4338 175.803 50.2956 175.803 50.2956C175.941 50.2956 176.355 50.0543 176.596 49.2959C177.044 47.8481 175.631 46.4691 174.183 47.262C173.149 47.8136 172.735 49.0891 172.735 50.4335H172.184C172.184 50.5369 172.046 49.4338 172.287 48.6065C172.459 48.0204 172.632 47.4344 172.977 46.7105C173.287 46.0899 173.39 45.0213 172.77 44.2284C172.253 43.539 171.908 43.1598 171.77 42.884Z" fill="white"/>
<path d="M207.518 42.229H187.559V54.4668H207.518V42.229Z" fill="#A1A1AA"/>
<path d="M197.521 42.884C197.383 43.1598 197.039 43.539 196.487 44.2284C195.832 45.0213 195.97 46.0899 196.28 46.7105C196.625 47.4344 196.832 48.0204 196.97 48.6065C197.176 49.4338 197.039 50.5369 197.073 50.4335H196.521C196.521 49.0891 196.108 47.8136 195.074 47.262C193.626 46.4691 192.212 47.8481 192.661 49.2959C192.902 50.0543 193.316 50.2956 193.453 50.2956C193.453 50.2956 193.247 49.4683 193.867 49.0201C194.419 48.6064 195.143 48.8478 195.453 49.3304C195.763 49.7785 195.798 50.399 195.798 50.399H194.763V51.1574H196.866C196.866 51.1574 196.797 52.2261 195.66 52.1227C195.66 52.1227 195.798 52.9845 196.866 52.5363C196.866 52.5363 196.797 53.4326 197.556 53.8808C198.28 53.4326 198.211 52.5363 198.211 52.5363C199.279 52.9845 199.417 52.1227 199.417 52.1227C198.28 52.2261 198.211 51.1574 198.211 51.1574H200.313V50.399H199.279C199.279 50.399 199.348 49.7785 199.624 49.3304C199.934 48.8478 200.658 48.6064 201.21 49.0201C201.796 49.4338 201.623 50.2956 201.623 50.2956C201.727 50.2956 202.175 50.0543 202.416 49.2959C202.864 47.8481 201.451 46.4691 200.003 47.262C199.004 47.8136 198.555 49.0891 198.555 50.4335H198.004C198.004 50.5369 197.866 49.4338 198.107 48.6065C198.245 48.0204 198.452 47.4344 198.797 46.7105C199.107 46.0899 199.21 45.0213 198.555 44.2284C198.004 43.539 197.694 43.1598 197.521 42.884Z" fill="white"/>
</svg>
